<svg width="70" height="70" viewBox="0 0 70 70" fill="none" xmlns="http://www.w3.org/2000/svg">
<mask id="path-1-inside-1_767_108" fill="white">
<path fill-rule="evenodd" clip-rule="evenodd" d="M15.4386 5.97243L19.0347 7.41321C22.0602 8.62537 25.5001 7.20052 26.7823 4.20403L28.3078 0.639083C30.474 0.219672 32.7113 0 35 0C37.2887 0 39.526 0.219672 41.6922 0.639083L43.2177 4.20404C44.4999 7.20053 47.9398 8.62537 50.9653 7.41321L54.5614 5.97243C58.2911 8.49075 61.5092 11.7089 64.0276 15.4386L62.5868 19.0347C61.3746 22.0602 62.7995 25.5001 65.796 26.7823L69.3609 28.3078C69.7803 30.474 70 32.7113 70 35C70 37.2887 69.7803 39.526 69.3609 41.6922L65.796 43.2177C62.7995 44.4999 61.3746 47.9398 62.5868 50.9653L64.0276 54.5614C61.5092 58.2911 58.2911 61.5092 54.5614 64.0276L50.9653 62.5868C47.9398 61.3746 44.4999 62.7995 43.2177 65.796L41.6922 69.3609C39.526 69.7803 37.2887 70 35 70C32.7113 70 30.474 69.7803 28.3078 69.3609L26.7823 65.796C25.5001 62.7995 22.0602 61.3746 19.0347 62.5868L15.4386 64.0276C11.7089 61.5092 8.49075 58.2911 5.97243 54.5614L7.41321 50.9653C8.62537 47.9398 7.20052 44.4999 4.20403 43.2177L0.639083 41.6922C0.219673 39.526 0 37.2887 0 35C0 32.7113 0.219672 30.474 0.639083 28.3078L4.20404 26.7823C7.20053 25.5001 8.62537 22.0602 7.41321 19.0347L5.97243 15.4386C8.49075 11.7089 11.7089 8.49075 15.4386 5.97243Z"/>
</mask>
<path d="M15.4386 5.97243L16.1824 4.11589L15.1982 3.72156L14.3194 4.3149L15.4386 5.97243ZM19.0347 7.41321L18.2909 9.26975V9.26975L19.0347 7.41321ZM26.7823 4.20403L28.6211 4.99085L26.7823 4.20403ZM28.3078 0.639083L27.9277 -1.32445L26.8864 -1.12283L26.4691 -0.147733L28.3078 0.639083ZM41.6922 0.639083L43.5309 -0.147733L43.1136 -1.12283L42.0723 -1.32445L41.6922 0.639083ZM43.2177 4.20404L41.3789 4.99085L43.2177 4.20404ZM50.9653 7.41321L50.2215 5.55667L50.9653 7.41321ZM54.5614 5.97243L55.6806 4.3149L54.8018 3.72156L53.8176 4.11589L54.5614 5.97243ZM64.0276 15.4386L65.8841 16.1824L66.2784 15.1982L65.6851 14.3194L64.0276 15.4386ZM62.5868 19.0347L64.4433 19.7785L62.5868 19.0347ZM65.796 26.7823L65.0091 28.6211H65.0092L65.796 26.7823ZM69.3609 28.3078L71.3244 27.9277L71.1228 26.8864L70.1477 26.4691L69.3609 28.3078ZM69.3609 41.6922L70.1477 43.5309L71.1228 43.1136L71.3244 42.0723L69.3609 41.6922ZM65.796 43.2177L65.0091 41.3789L65.0091 41.3789L65.796 43.2177ZM62.5868 50.9653L60.7303 51.7091V51.7091L62.5868 50.9653ZM64.0276 54.5614L65.6851 55.6806L66.2784 54.8018L65.8841 53.8176L64.0276 54.5614ZM54.5614 64.0276L53.8176 65.8841L54.8018 66.2784L55.6806 65.6851L54.5614 64.0276ZM50.9653 62.5868L50.2215 64.4433L50.9653 62.5868ZM43.2177 65.796L45.0564 66.5828L43.2177 65.796ZM41.6922 69.3609L42.0723 71.3244L43.1136 71.1228L43.5309 70.1477L41.6922 69.3609ZM28.3078 69.3609L26.4691 70.1477L26.8864 71.1228L27.9277 71.3244L28.3078 69.3609ZM26.7823 65.796L28.6211 65.0091L26.7823 65.796ZM19.0347 62.5868L18.2909 60.7303H18.2909L19.0347 62.5868ZM15.4386 64.0276L14.3194 65.6851L15.1982 66.2784L16.1824 65.8841L15.4386 64.0276ZM5.97243 54.5614L4.11589 53.8176L3.72156 54.8018L4.3149 55.6806L5.97243 54.5614ZM7.41321 50.9653L5.55667 50.2215L7.41321 50.9653ZM4.20403 43.2177L3.41722 45.0564L3.41722 45.0564L4.20403 43.2177ZM0.639083 41.6922L-1.32445 42.0723L-1.12283 43.1136L-0.147733 43.5309L0.639083 41.6922ZM0.639083 28.3078L-0.147733 26.4691L-1.12283 26.8864L-1.32445 27.9277L0.639083 28.3078ZM4.20404 26.7823L3.41722 24.9436H3.41722L4.20404 26.7823ZM7.41321 19.0347L9.26974 18.2909L7.41321 19.0347ZM5.97243 15.4386L4.3149 14.3194L3.72156 15.1982L4.11589 16.1824L5.97243 15.4386ZM14.6948 7.82897L18.2909 9.26975L19.7785 5.55667L16.1824 4.11589L14.6948 7.82897ZM18.2909 9.26975C22.3249 10.886 26.9114 8.98617 28.6211 4.99085L24.9436 3.41722C24.0888 5.41488 21.7955 6.36477 19.7785 5.55667L18.2909 9.26975ZM28.6211 4.99085L30.1466 1.4259L26.4691 -0.147733L24.9436 3.41722L28.6211 4.99085ZM28.688 2.60262C30.7295 2.20733 32.8396 2 35 2V-2C32.5831 -2 30.2184 -1.76799 27.9277 -1.32445L28.688 2.60262ZM35 2C37.1604 2 39.2705 2.20733 41.312 2.60262L42.0723 -1.32445C39.7816 -1.76799 37.4169 -2 35 -2V2ZM39.8534 1.4259L41.3789 4.99085L45.0564 3.41722L43.5309 -0.147733L39.8534 1.4259ZM41.3789 4.99085C43.0886 8.98617 47.6751 10.886 51.7091 9.26974L50.2215 5.55667C48.2045 6.36477 45.9112 5.41488 45.0564 3.41722L41.3789 4.99085ZM51.7091 9.26974L55.3052 7.82897L53.8176 4.11589L50.2215 5.55667L51.7091 9.26974ZM53.4422 7.62997C56.9596 10.005 59.995 13.0404 62.37 16.5578L65.6851 14.3194C63.0235 10.3775 59.6225 6.97654 55.6806 4.3149L53.4422 7.62997ZM62.171 14.6948L60.7303 18.2909L64.4433 19.7785L65.8841 16.1824L62.171 14.6948ZM60.7303 18.2909C59.114 22.3249 61.0138 26.9114 65.0091 28.6211L66.5828 24.9436C64.5851 24.0888 63.6352 21.7955 64.4433 19.7785L60.7303 18.2909ZM65.0092 28.6211L68.5741 30.1466L70.1477 26.4691L66.5828 24.9436L65.0092 28.6211ZM67.3974 28.688C67.7927 30.7295 68 32.8396 68 35H72C72 32.5831 71.768 30.2184 71.3244 27.9277L67.3974 28.688ZM68 35C68 37.1604 67.7927 39.2705 67.3974 41.312L71.3244 42.0723C71.768 39.7816 72 37.4169 72 35H68ZM68.5741 39.8534L65.0091 41.3789L66.5828 45.0564L70.1477 43.5309L68.5741 39.8534ZM65.0091 41.3789C61.0138 43.0886 59.114 47.6751 60.7303 51.7091L64.4433 50.2215C63.6352 48.2045 64.5851 45.9112 66.5828 45.0564L65.0091 41.3789ZM60.7303 51.7091L62.171 55.3052L65.8841 53.8176L64.4433 50.2215L60.7303 51.7091ZM62.37 53.4422C59.995 56.9596 56.9596 59.995 53.4422 62.37L55.6806 65.6851C59.6225 63.0235 63.0235 59.6225 65.6851 55.6806L62.37 53.4422ZM55.3052 62.171L51.7091 60.7303L50.2215 64.4433L53.8176 65.8841L55.3052 62.171ZM51.7091 60.7303C47.6751 59.114 43.0886 61.0138 41.3789 65.0091L45.0564 66.5828C45.9112 64.5851 48.2045 63.6352 50.2215 64.4433L51.7091 60.7303ZM41.3789 65.0091L39.8534 68.5741L43.5309 70.1477L45.0564 66.5828L41.3789 65.0091ZM41.312 67.3974C39.2705 67.7927 37.1604 68 35 68V72C37.4169 72 39.7816 71.768 42.0723 71.3244L41.312 67.3974ZM35 68C32.8396 68 30.7295 67.7927 28.688 67.3974L27.9277 71.3244C30.2184 71.768 32.5831 72 35 72V68ZM30.1466 68.5741L28.6211 65.0091L24.9436 66.5828L26.4691 70.1477L30.1466 68.5741ZM28.6211 65.0091C26.9114 61.0138 22.3249 59.114 18.2909 60.7303L19.7785 64.4433C21.7955 63.6352 24.0888 64.5851 24.9436 66.5828L28.6211 65.0091ZM18.2909 60.7303L14.6948 62.171L16.1824 65.8841L19.7785 64.4433L18.2909 60.7303ZM16.5578 62.37C13.0404 59.995 10.005 56.9596 7.62997 53.4422L4.3149 55.6806C6.97654 59.6225 10.3775 63.0235 14.3194 65.6851L16.5578 62.37ZM7.82897 55.3052L9.26975 51.7091L5.55667 50.2215L4.11589 53.8176L7.82897 55.3052ZM9.26975 51.7091C10.886 47.6751 8.98617 43.0886 4.99085 41.3789L3.41722 45.0564C5.41488 45.9112 6.36477 48.2045 5.55667 50.2215L9.26975 51.7091ZM4.99085 41.3789L1.4259 39.8534L-0.147733 43.5309L3.41722 45.0564L4.99085 41.3789ZM2.60262 41.312C2.20733 39.2705 2 37.1604 2 35H-2C-2 37.4169 -1.76799 39.7816 -1.32445 42.0723L2.60262 41.312ZM2 35C2 32.8396 2.20733 30.7295 2.60262 28.688L-1.32445 27.9277C-1.76799 30.2184 -2 32.5831 -2 35H2ZM1.4259 30.1466L4.99085 28.6211L3.41722 24.9436L-0.147733 26.4691L1.4259 30.1466ZM4.99085 28.6211C8.98617 26.9114 10.886 22.3249 9.26974 18.2909L5.55667 19.7785C6.36477 21.7955 5.41488 24.0888 3.41722 24.9436L4.99085 28.6211ZM9.26974 18.2909L7.82897 14.6948L4.11589 16.1824L5.55667 19.7785L9.26974 18.2909ZM7.62997 16.5578C10.005 13.0404 13.0404 10.005 16.5578 7.62997L14.3194 4.3149C10.3775 6.97654 6.97654 10.3775 4.3149 14.3194L7.62997 16.5578Z" fill="black" mask="url(#path-1-inside-1_767_108)"/>
<circle cx="35" cy="35" r="24.5" stroke="black"/>
<path d="M29.1548 36.7445L20.3865 40.1667C19.6279 38.0212 19.3504 35.7329 19.5762 33.4644C19.8186 31.0299 20.6338 28.6873 21.9552 26.6283C23.2766 24.5693 25.0666 22.8523 27.1789 21.6178C29.1384 20.4725 31.3236 19.7727 33.5794 19.5651L33.5794 29.0457C33.33 29.0814 33.115 29.1358 32.9024 29.2177C32.6106 29.33 32.3361 29.4908 32.0093 29.6823C31.9806 29.6991 31.9515 29.7161 31.922 29.7334C31.0907 30.2192 30.3863 30.8949 29.8662 31.7052C29.3462 32.5156 29.0254 33.4375 28.93 34.3956C28.8512 35.1873 28.9282 35.9851 29.1548 36.7445Z" stroke="black"/>
<path d="M40.8452 36.7445L49.6135 40.1667C50.3721 38.0212 50.6496 35.7329 50.4238 33.4644C50.1814 31.0299 49.3662 28.6873 48.0448 26.6283C46.7234 24.5693 44.9334 22.8523 42.8211 21.6178C40.8616 20.4725 38.6764 19.7727 36.4206 19.5651L36.4206 29.0457C36.67 29.0814 36.885 29.1358 37.0976 29.2177C37.3894 29.33 37.6639 29.4908 37.9907 29.6823C38.0194 29.6991 38.0485 29.7161 38.078 29.7334C38.9093 30.2192 39.6137 30.8949 40.1338 31.7052C40.6538 32.5156 40.9746 33.4375 41.07 34.3956C41.1488 35.1873 41.0718 35.9851 40.8452 36.7445Z" stroke="black"/>
<path d="M29.0684 49.3203L29.0615 49.3174L29.0546 49.3148C26.0778 48.1847 23.7842 45.6414 22.2708 43.687L30.9463 39.5584C31.4546 40.0104 32.0356 40.3749 32.6657 40.6358C33.4058 40.9424 34.199 41.1002 35 41.1002C35.8011 41.1002 36.5943 40.9424 37.3344 40.6358C37.962 40.3759 38.5409 40.0133 39.0479 39.5636L48.1554 44.1356C47.4131 44.8699 46.3945 45.8476 45.2671 46.7677C43.852 47.9225 42.3227 48.9379 40.9918 49.2997L40.9611 49.3081L40.9316 49.3203C39.0511 50.0992 37.0355 50.5002 35 50.5002C32.9645 50.5002 30.949 50.0992 29.0684 49.3203Z" stroke="black"/>
</svg>
