<svg width="26" height="27" viewBox="0 0 26 27" fill="none" xmlns="http://www.w3.org/2000/svg">
<g clip-path="url(#clip0_767_838)">
<path fill-rule="evenodd" clip-rule="evenodd" d="M26 13.7798C26 21.0811 20.1797 27.0001 13 27.0001C5.8203 27.0001 0 21.0811 0 13.7798C0 6.47838 5.8203 0.559448 13 0.559448C20.1797 0.559448 26 6.47838 26 13.7798ZM13.5293 19.5781H12.509C12.509 19.5781 10.2576 19.716 8.27512 17.6169C6.11301 15.3274 4.2035 10.7843 4.2035 10.7843C4.2035 10.7843 4.09342 10.4864 4.213 10.3424C4.34741 10.1805 4.71355 10.1702 4.71355 10.1702L7.15259 10.1539C7.15259 10.1539 7.38247 10.193 7.547 10.3158C7.68257 10.4171 7.75858 10.6066 7.75858 10.6066C7.75858 10.6066 8.15277 11.6205 8.67487 12.5377C9.69382 14.3282 10.1684 14.7199 10.5144 14.528C11.0184 14.2484 10.8673 11.9967 10.8673 11.9967C10.8673 11.9967 10.8766 11.1795 10.6136 10.8157C10.4099 10.5335 10.0257 10.4513 9.85603 10.4282C9.71885 10.4096 9.9441 10.0855 10.2361 9.94014C10.675 9.72145 11.4502 9.70896 12.366 9.71862C13.0795 9.72592 13.2848 9.77117 13.5638 9.83975C14.2112 9.9987 14.191 10.508 14.1474 11.6069C14.1344 11.9353 14.1193 12.3163 14.1193 12.7563C14.1193 12.8553 14.1165 12.9609 14.1136 13.0694C14.0984 13.6322 14.0811 14.2766 14.4454 14.516C14.6321 14.6386 15.0891 14.5344 16.2321 12.5607C16.7739 11.6254 17.1801 10.5255 17.1801 10.5255C17.1801 10.5255 17.2688 10.3295 17.4067 10.2453C17.5479 10.1595 17.7381 10.1859 17.7381 10.1859L20.3048 10.1697C20.3048 10.1697 21.0761 10.0761 21.201 10.4301C21.3319 10.8017 20.9127 11.6695 19.8641 13.0908C18.8682 14.4406 18.3843 14.9366 18.4298 15.3761C18.463 15.6964 18.7775 15.9866 19.3802 16.5555C20.6436 17.7481 20.9804 18.3743 21.0604 18.5231C21.0669 18.5352 21.0717 18.544 21.0751 18.5499C21.6406 19.5034 20.4481 19.5781 20.4481 19.5781L18.1685 19.6104C18.1685 19.6104 17.6786 19.7092 17.0339 19.2588C16.6967 19.0234 16.3671 18.6391 16.053 18.273C15.573 17.7133 15.1292 17.196 14.7506 17.3181C14.1151 17.5231 14.1351 18.9154 14.1351 18.9154C14.1351 18.9154 14.1397 19.2128 13.9949 19.3712C13.8375 19.5437 13.5293 19.5781 13.5293 19.5781Z" fill="white"/>
</g>
<defs>
<clipPath id="clip0_767_838">
<rect width="26" height="26.4406" fill="white" transform="translate(0 0.559448)"/>
</clipPath>
</defs>
</svg>
