<svg width="70" height="70" viewBox="0 0 70 70" fill="none" xmlns="http://www.w3.org/2000/svg">
<path d="M28.7841 20.848L8.80957 40.8225" stroke="black"/>
<path d="M10.0764 37.0382C9.51032 37.6042 8.59185 37.6043 8.02491 37.0373C7.45797 36.4704 7.458 35.5519 8.02405 34.9858C8.59011 34.4198 9.50858 34.4198 10.0755 34.9867C10.6425 35.5536 10.6424 36.4721 10.0764 37.0382Z" stroke="black"/>
<path d="M2.35735 33.3226L1.65024 32.6154L2.35735 33.3226ZM21.4433 14.2366L22.1504 14.9437V14.9437L21.4433 14.2366ZM22.8575 14.2366L22.1504 14.9437V14.9437L22.8575 14.2366ZM29.049 20.4281L28.3419 21.1352L28.5523 21.3457L28.8436 21.4068L29.049 20.4281ZM42.3155 32.5845L41.5123 33.1802L42.3155 32.5845ZM50.7426 41.2297L50.0355 41.9368L50.7426 41.2297ZM46.4561 45.5162C46.0656 45.1257 45.4324 45.1257 45.0419 45.5162C44.6513 45.9067 44.6513 46.5399 45.0419 46.9304L46.4561 45.5162ZM40.0959 49.6689C39.7053 49.2784 39.0722 49.2784 38.6816 49.6689C38.2911 50.0594 38.2911 50.6926 38.6816 51.0831L40.0959 49.6689ZM27.5889 59.9683L26.8818 60.6754L27.5889 59.9683ZM33.7356 53.8215C33.3451 53.431 32.712 53.431 32.3214 53.8215C31.9309 54.2121 31.9309 54.8452 32.3214 55.2358L33.7356 53.8215ZM43.2162 29.2612L43.5524 30.203L43.2162 29.2612ZM2.35735 34.7368L3.06445 34.0297H3.06445L2.35735 34.7368ZM3.06445 34.0297L22.1504 14.9437L20.7362 13.5295L1.65024 32.6154L3.06445 34.0297ZM22.1504 14.9437L28.3419 21.1352L29.7561 19.721L23.5646 13.5295L22.1504 14.9437ZM41.5123 33.1802C42.6575 34.7244 44.3846 36.5031 46.0047 38.0825C47.6784 39.7141 49.161 41.0623 50.0355 41.9368L51.4497 40.5226C50.6009 39.6738 48.9632 38.1735 47.4008 36.6504C45.7848 35.075 44.16 33.3928 43.1187 31.9888L41.5123 33.1802ZM50.0355 41.9368C51.685 43.5862 52.5518 45.053 52.884 46.1744C53.2208 47.3114 52.9788 47.9271 52.7126 48.1933C52.4464 48.4595 51.8307 48.7015 50.6937 48.3647C49.5723 48.0325 48.1055 47.1657 46.4561 45.5162L45.0419 46.9304C46.8417 48.7302 48.5861 49.8262 50.1256 50.2823C51.6496 50.7338 53.1446 50.5897 54.1268 49.6075C55.109 48.6253 55.2531 47.1303 54.8016 45.6063C54.3455 44.0668 53.2495 42.3224 51.4497 40.5226L50.0355 41.9368ZM45.0419 46.9304C47.0304 48.9189 46.851 51.0478 46.0861 51.854C45.7252 52.2343 45.1082 52.4978 44.1292 52.2818C43.1174 52.0586 41.7437 51.3167 40.0959 49.6689L38.6816 51.0831C40.4831 52.8845 42.1809 53.9001 43.6983 54.2349C45.2485 54.5768 46.6181 54.1989 47.5369 53.2306C49.3313 51.3395 48.8827 47.9428 46.4561 45.5162L45.0419 46.9304ZM26.8818 60.6754C28.1341 61.9277 29.531 62.5477 30.8829 62.6011C32.2291 62.6542 33.454 62.1401 34.3271 61.2669C35.2003 60.3938 35.7144 59.1688 35.6613 57.8226C35.6079 56.4708 34.988 55.0739 33.7356 53.8215L32.3214 55.2358C33.2767 56.191 33.6324 57.1297 33.6629 57.9015C33.6936 58.679 33.3997 59.3659 32.9129 59.8527C32.4262 60.3395 31.7393 60.6333 30.9618 60.6026C30.1899 60.5722 29.2512 60.2164 28.296 59.2612L26.8818 60.6754ZM32.3214 55.2358C35.4922 58.4066 38.87 58.9767 40.8937 57.2484C42.936 55.5043 42.6638 52.2368 40.0959 49.6689L38.6816 51.0831C40.8047 53.2062 40.3878 55.0504 39.5949 55.7276C38.7835 56.4205 36.6356 56.7215 33.7356 53.8215L32.3214 55.2358ZM28.8436 21.4068C31.8966 22.0474 38.5508 24.4496 42.3805 26.3203L43.2583 24.5233C39.324 22.6014 32.5107 20.1327 29.2543 19.4494L28.8436 21.4068ZM43.5524 30.203C43.8498 30.0968 44.1444 29.9261 44.4199 29.6505L43.0057 28.2363C42.976 28.266 42.9534 28.2824 42.9376 28.2922C42.9218 28.3021 42.9041 28.3108 42.88 28.3194L43.5524 30.203ZM1.65024 32.6154C0.869191 33.3965 0.869191 34.6628 1.65024 35.4439L3.06445 34.0297L3.06445 34.0297L1.65024 32.6154ZM43.1187 31.9888C42.791 31.5469 42.7493 31.1556 42.8168 30.8948C42.88 30.6505 43.0755 30.3732 43.5524 30.203L42.88 28.3194C41.8587 28.684 41.13 29.4295 40.8805 30.3937C40.6353 31.3414 40.8924 32.3443 41.5123 33.1802L43.1187 31.9888ZM22.1504 14.9437L22.1504 14.9437L23.5646 13.5295C22.7836 12.7485 21.5172 12.7485 20.7362 13.5295L22.1504 14.9437ZM28.296 59.2612L3.06445 34.0297L1.65024 35.4439L26.8818 60.6754L28.296 59.2612Z" fill="black"/>
<line x1="29.085" y1="29.3776" x2="41.0713" y2="41.3638" stroke="black" stroke-linecap="round"/>
<path d="M27.2471 38.2344L35.2494 46.2367" stroke="black" stroke-linecap="round"/>
<path d="M25.3018 46.8022L29.4409 50.9414" stroke="black" stroke-linecap="round"/>
<path d="M23.6602 34.6471L25.8677 36.8546" stroke="black" stroke-linecap="round"/>
<path d="M65.8902 26.416L65.9261 27.0517C66.1285 30.6396 63.617 33.7046 60.2031 34.675" stroke="black" stroke-width="0.5" stroke-linecap="round"/>
<path d="M22.8068 60.7317C22.2408 61.2977 21.3223 61.2977 20.7554 60.7308C20.1884 60.1639 20.1885 59.2454 20.7545 58.6793C21.3206 58.1133 22.239 58.1132 22.806 58.6802C23.3729 59.2471 23.3729 60.1656 22.8068 60.7317Z" stroke="black"/>
<path d="M17.5743 56.8974L18.2779 57.608L17.5743 56.8974ZM20.5001 54.0002L21.2072 53.2931C20.8181 52.904 20.1876 52.9024 19.7965 53.2897L20.5001 54.0002ZM27.5001 61.0002L28.2226 61.6916C28.5985 61.2988 28.5917 60.6776 28.2072 60.2931L27.5001 61.0002ZM24.712 63.9141L25.4345 64.6054L24.712 63.9141ZM42.5001 32.0002L41.7701 31.3168C41.4269 31.6834 41.4088 32.2477 41.7278 32.6355L42.5001 32.0002ZM43.4363 31.0002L44.434 31.0678C44.4626 30.646 44.2227 30.2517 43.8349 30.0831C43.4471 29.9146 42.9952 30.0081 42.7063 30.3168L43.4363 31.0002ZM50.6108 38.1748L51.3179 38.8819C51.6638 38.536 51.7087 37.9907 51.4241 37.5929C51.1395 37.1951 50.609 37.0616 50.1699 37.2772L50.6108 38.1748ZM49.2967 39.4889L48.5896 40.196C48.7771 40.3835 49.0315 40.4889 49.2967 40.4889C49.5619 40.4889 49.8163 40.3835 50.0038 40.196L49.2967 39.4889ZM45.7094 35.9016L44.9371 36.5369C44.9577 36.5619 44.9794 36.5859 45.0023 36.6087L45.7094 35.9016ZM18.2779 57.608L21.2037 54.7108L19.7965 53.2897L16.8706 56.1868L18.2779 57.608ZM26.7776 60.3089L23.9895 63.2227L25.4345 64.6054L28.2226 61.6916L26.7776 60.3089ZM43.2302 32.6837L44.1663 31.6837L42.7063 30.3168L41.7701 31.3168L43.2302 32.6837ZM49.9037 37.4677L48.5896 38.7818L50.0038 40.196L51.3179 38.8819L49.9037 37.4677ZM19.793 54.7074L26.793 61.7073L28.2072 60.2931L21.2072 53.2931L19.793 54.7074ZM41.7278 32.6355L42.5302 33.6109L44.0747 32.3403L43.2724 31.365L41.7278 32.6355ZM42.5302 33.6109L44.9371 36.5369L46.4817 35.2663L44.0747 32.3403L42.5302 33.6109ZM42.4386 30.9326L42.3047 32.908L44.3002 33.0432L44.434 31.0678L42.4386 30.9326ZM48.1412 39.7476L48.5896 40.196L50.0038 38.7818L49.5554 38.3334L48.1412 39.7476ZM49.5554 38.3334L46.4165 35.1945L45.0023 36.6087L48.1412 39.7476L49.5554 38.3334ZM49.2891 39.938L51.0517 39.0723L50.1699 37.2772L48.4074 38.1429L49.2891 39.938ZM18.2639 63.2858C16.6943 61.7163 16.7006 59.1697 18.2779 57.608L16.8706 56.1868C14.5058 58.5284 14.4964 62.3467 16.8496 64.7L18.2639 63.2858ZM16.8496 64.7C19.2314 67.0818 23.1059 67.0391 25.4345 64.6054L23.9895 63.2227C22.4364 64.8458 19.8523 64.8743 18.2639 63.2858L16.8496 64.7Z" fill="black"/>
<path d="M50.9998 38.0001L54.2026 38.2179C57.3041 38.6303 60.4488 37.8851 63.0354 36.1247C64.1516 35.3651 65.1396 34.4327 65.9626 33.3623L66.4611 32.714C68.9309 29.5016 68.6351 24.9558 65.7699 22.0905L60.8688 26.9916C60.0878 27.7726 58.8215 27.7726 58.0404 26.9916L54.4946 23.4457C53.7135 22.6647 53.7135 21.3983 54.4946 20.6173L59.3956 15.7162C56.5304 12.851 51.9845 12.5552 48.7721 15.0251L48.1238 15.5236C47.0535 16.3465 46.121 17.3346 45.3614 18.4507C43.601 21.0373 42.8558 24.182 43.2682 27.2835L43.4998 30.5001" stroke="black" stroke-width="2" stroke-linecap="round"/>
</svg>
