<svg width="26" height="27" viewBox="0 0 26 27" fill="none" xmlns="http://www.w3.org/2000/svg">
<g clip-path="url(#clip0_767_840)">
<path fill-rule="evenodd" clip-rule="evenodd" d="M26 13.7798C26 21.0811 20.1797 27.0001 13 27.0001C5.8203 27.0001 0 21.0811 0 13.7798C0 6.47838 5.8203 0.559448 13 0.559448C20.1797 0.559448 26 6.47838 26 13.7798ZM13.9485 14.2972H16.2682L16.5752 11.2627H13.9487V9.47523C13.9487 8.80476 14.3844 8.64734 14.6942 8.64734H16.5831V5.69918L13.9798 5.6881C11.0905 5.6881 10.4339 7.88897 10.4339 9.29448V11.26H8.76242V14.2972H10.4339V22.9395H13.9485V14.2972Z" fill="white"/>
</g>
<defs>
<clipPath id="clip0_767_840">
<rect width="26" height="26.4406" fill="white" transform="translate(0 0.559448)"/>
</clipPath>
</defs>
</svg>
