<svg width="70" height="70" viewBox="0 0 70 70" fill="none" xmlns="http://www.w3.org/2000/svg">
<mask id="path-1-inside-1_610_726" fill="white">
<path fill-rule="evenodd" clip-rule="evenodd" d="M6.9309 7.35304C8.75874 7.45962 10.5478 6.71821 11.7645 5.34985C12.8065 5.12075 13.8891 5 15 5C16.1109 5 17.1935 5.12075 18.2355 5.34985C19.4522 6.71821 21.2413 7.45962 23.0691 7.35304C24.9071 8.52815 26.4719 10.0929 27.647 11.9309C27.5404 13.7587 28.2818 15.5478 29.6501 16.7645C29.8792 17.8065 30 18.8891 30 20C30 21.1109 29.8792 22.1935 29.6501 23.2355C28.2818 24.4522 27.5404 26.2413 27.647 28.0691C26.4719 29.9071 24.9071 31.4719 23.0691 32.647C21.2413 32.5404 19.4522 33.2818 18.2355 34.6501C17.1935 34.8792 16.1109 35 15 35C13.8891 35 12.8065 34.8792 11.7645 34.6502C10.5478 33.2818 8.75874 32.5404 6.9309 32.647C5.09294 31.4719 3.52815 29.9071 2.35304 28.0691C2.45962 26.2413 1.71821 24.4522 0.349851 23.2355C0.120754 22.1935 0 21.1109 0 20C0 18.8891 0.120754 17.8065 0.349851 16.7645C1.71821 15.5478 2.45962 13.7587 2.35304 11.9309C3.52815 10.0929 5.09294 8.52815 6.9309 7.35304Z"/>
</mask>
<path d="M6.9309 7.35304L7.01822 5.85558L6.53267 5.82727L6.1229 6.08926L6.9309 7.35304ZM11.7645 5.34985L11.4424 3.88484L10.9669 3.98937L10.6435 4.35316L11.7645 5.34985ZM18.2355 5.34985L19.3565 4.35316L19.0331 3.98937L18.5576 3.88484L18.2355 5.34985ZM23.0691 7.35304L23.8771 6.08926L23.4673 5.82727L22.9818 5.85558L23.0691 7.35304ZM27.647 11.9309L29.1444 12.0182L29.1727 11.5327L28.9107 11.1229L27.647 11.9309ZM29.6501 16.7645L31.1152 16.4424L31.0106 15.9669L30.6468 15.6435L29.6501 16.7645ZM29.6501 23.2355L30.6468 24.3565L31.0106 24.0331L31.1152 23.5576L29.6501 23.2355ZM27.647 28.0691L28.9107 28.8771L29.1727 28.4673L29.1444 27.9818L27.647 28.0691ZM23.0691 32.647L22.9818 34.1444L23.4673 34.1727L23.8771 33.9107L23.0691 32.647ZM18.2355 34.6501L18.5576 36.1152L19.0331 36.0106L19.3565 35.6468L18.2355 34.6501ZM11.7645 34.6502L10.6435 35.6468L10.9669 36.0106L11.4424 36.1152L11.7645 34.6502ZM6.9309 32.647L6.1229 33.9107L6.53268 34.1727L7.01822 34.1444L6.9309 32.647ZM2.35304 28.0691L0.855582 27.9818L0.827268 28.4673L1.08926 28.8771L2.35304 28.0691ZM0.349851 23.2355L-1.11516 23.5576L-1.01063 24.0331L-0.646842 24.3565L0.349851 23.2355ZM0.349851 16.7645L-0.646842 15.6435L-1.01063 15.9669L-1.11516 16.4424L0.349851 16.7645ZM2.35304 11.9309L1.08926 11.1229L0.827268 11.5327L0.855581 12.0182L2.35304 11.9309ZM6.84358 8.85049C9.12957 8.9838 11.3638 8.0579 12.8854 6.34654L10.6435 4.35316C9.73179 5.37853 8.38791 5.93545 7.01822 5.85558L6.84358 8.85049ZM12.0865 6.81486C13.0235 6.60887 13.9982 6.5 15 6.5V3.5C13.7801 3.5 12.5895 3.63264 11.4424 3.88484L12.0865 6.81486ZM15 6.5C16.0018 6.5 16.9765 6.60887 17.9135 6.81486L18.5576 3.88484C17.4105 3.63264 16.2199 3.5 15 3.5V6.5ZM17.1146 6.34654C18.6362 8.0579 20.8704 8.98379 23.1564 8.85049L22.9818 5.85558C21.6121 5.93545 20.2682 5.37853 19.3565 4.35316L17.1146 6.34654ZM22.2611 8.61681C23.9159 9.67482 25.3252 11.0841 26.3832 12.7389L28.9107 11.1229C27.6185 9.10178 25.8982 7.38147 23.8771 6.08926L22.2611 8.61681ZM26.1495 11.8436C26.0162 14.1296 26.9421 16.3638 28.6535 17.8854L30.6468 15.6435C29.6215 14.7318 29.0645 13.3879 29.1444 12.0182L26.1495 11.8436ZM28.1851 17.0865C28.3911 18.0235 28.5 18.9982 28.5 20H31.5C31.5 18.7801 31.3674 17.5895 31.1152 16.4424L28.1851 17.0865ZM28.5 20C28.5 21.0018 28.3911 21.9765 28.1851 22.9135L31.1152 23.5576C31.3674 22.4105 31.5 21.2199 31.5 20H28.5ZM28.6535 22.1146C26.9421 23.6362 26.0162 25.8704 26.1495 28.1564L29.1444 27.9818C29.0646 26.6121 29.6215 25.2682 30.6468 24.3565L28.6535 22.1146ZM26.3832 27.2611C25.3252 28.9159 23.9159 30.3252 22.2611 31.3832L23.8771 33.9107C25.8982 32.6185 27.6185 30.8982 28.9107 28.8771L26.3832 27.2611ZM23.1564 31.1495C20.8704 31.0162 18.6362 31.9421 17.1146 33.6535L19.3565 35.6468C20.2682 34.6215 21.6121 34.0646 22.9818 34.1444L23.1564 31.1495ZM17.9135 33.1851C16.9765 33.3911 16.0018 33.5 15 33.5V36.5C16.2199 36.5 17.4105 36.3674 18.5576 36.1152L17.9135 33.1851ZM15 33.5C13.9982 33.5 13.0235 33.3911 12.0865 33.1851L11.4424 36.1152C12.5895 36.3674 13.7801 36.5 15 36.5V33.5ZM12.8854 33.6535C11.3638 31.9421 9.12958 31.0162 6.84358 31.1495L7.01822 34.1444C8.38791 34.0645 9.73179 34.6215 10.6435 35.6468L12.8854 33.6535ZM7.7389 31.3832C6.0841 30.3252 4.67482 28.9159 3.61681 27.2611L1.08926 28.8771C2.38148 30.8982 4.10178 32.6185 6.1229 33.9107L7.7389 31.3832ZM3.85049 28.1564C3.9838 25.8704 3.0579 23.6362 1.34654 22.1146L-0.646842 24.3565C0.37853 25.2682 0.935452 26.6121 0.855582 27.9818L3.85049 28.1564ZM1.81486 22.9135C1.60887 21.9765 1.5 21.0018 1.5 20H-1.5C-1.5 21.2199 -1.36736 22.4105 -1.11516 23.5576L1.81486 22.9135ZM1.5 20C1.5 18.9982 1.60887 18.0235 1.81486 17.0865L-1.11516 16.4424C-1.36736 17.5895 -1.5 18.7801 -1.5 20H1.5ZM1.34654 17.8854C3.0579 16.3638 3.98379 14.1296 3.85049 11.8436L0.855581 12.0182C0.935451 13.3879 0.378528 14.7318 -0.646842 15.6435L1.34654 17.8854ZM3.61681 12.7389C4.67482 11.0841 6.0841 9.67482 7.7389 8.61681L6.1229 6.08926C4.10178 7.38147 2.38147 9.10178 1.08926 11.1229L3.61681 12.7389Z" fill="black" mask="url(#path-1-inside-1_610_726)"/>
<circle cx="15.0004" cy="19.9999" r="10.2143" stroke="black"/>
<path d="M12.3309 18.8743L8.93833 18.0952C9.18804 17.3005 9.59203 16.561 10.1289 15.9198C10.773 15.1505 11.5902 14.5445 12.5135 14.1516C13.4367 13.7586 14.4399 13.5897 15.441 13.6589C16.2649 13.7157 17.068 13.9325 17.8063 14.2952L15.8292 17.1984C15.7936 17.1872 15.7573 17.1772 15.7201 17.1685C15.5656 17.1323 15.4059 17.1215 15.2495 17.111C15.2339 17.1099 15.2184 17.1089 15.2028 17.1078C14.7462 17.0763 14.2886 17.1533 13.8674 17.3326C13.4462 17.5118 13.0734 17.7882 12.7796 18.1392C12.5937 18.3612 12.4427 18.6091 12.3309 18.8743Z" stroke="black"/>
<path d="M17.0308 22.0746L18.9987 24.9458C19.6466 24.4223 20.1867 23.7755 20.5866 23.041C21.0664 22.1598 21.3308 21.1774 21.3582 20.1744C21.3856 19.1713 21.1751 18.176 20.744 17.2699C20.3892 16.5242 19.8933 15.8562 19.2854 15.3022L17.3083 18.2055C17.3319 18.2346 17.3544 18.2647 17.3762 18.2961C17.4665 18.4266 17.535 18.5712 17.6021 18.7129C17.6088 18.727 17.6155 18.7411 17.6222 18.7551C17.8188 19.1685 17.9148 19.6225 17.9023 20.0801C17.8899 20.5377 17.7692 20.9858 17.5503 21.3878C17.4119 21.6421 17.2365 21.8734 17.0308 22.0746Z" stroke="black"/>
<path d="M9.68645 23.4863L9.68235 23.48L9.67808 23.4739C9.02327 22.5373 8.79693 21.3351 8.70994 20.345L12.2434 20.8923C12.3229 21.1386 12.4352 21.3736 12.5777 21.5909C12.7865 21.9094 13.056 22.1837 13.3708 22.398C13.6855 22.6124 14.0395 22.7627 14.4123 22.8402C14.6642 22.8926 14.9214 22.9112 15.1771 22.8958L17.0148 26.1989C16.646 26.2609 16.2173 26.3233 15.7767 26.3615C15.0034 26.4287 14.2679 26.4139 13.7694 26.2418L13.7393 26.2314L13.7081 26.2249C12.8908 26.0548 12.1149 25.7255 11.4249 25.2556C10.7349 24.7857 10.1441 24.1845 9.68645 23.4863Z" stroke="black"/>
<mask id="path-7-inside-2_610_726" fill="white">
<path fill-rule="evenodd" clip-rule="evenodd" d="M46.9309 7.35304C48.7587 7.45962 50.5478 6.71821 51.7645 5.34985C52.8065 5.12075 53.8891 5 55 5C56.1109 5 57.1935 5.12075 58.2355 5.34985C59.4522 6.71821 61.2413 7.45962 63.0691 7.35304C64.9071 8.52815 66.4719 10.0929 67.647 11.9309C67.5404 13.7587 68.2818 15.5478 69.6501 16.7645C69.8792 17.8065 70 18.8891 70 20C70 21.1109 69.8792 22.1935 69.6501 23.2355C68.2818 24.4522 67.5404 26.2413 67.647 28.0691C66.4719 29.9071 64.9071 31.4719 63.0691 32.647C61.2413 32.5404 59.4522 33.2818 58.2355 34.6501C57.1935 34.8792 56.1109 35 55 35C53.8891 35 52.8065 34.8792 51.7645 34.6502C50.5478 33.2818 48.7587 32.5404 46.9309 32.647C45.0929 31.4719 43.5281 29.9071 42.353 28.0691C42.4596 26.2413 41.7182 24.4522 40.3499 23.2355C40.1208 22.1935 40 21.1109 40 20C40 18.8891 40.1208 17.8065 40.3499 16.7645C41.7182 15.5478 42.4596 13.7587 42.353 11.9309C43.5281 10.0929 45.0929 8.52815 46.9309 7.35304Z"/>
</mask>
<path d="M46.9309 7.35304L47.0182 5.85558L46.5327 5.82727L46.1229 6.08926L46.9309 7.35304ZM51.7645 5.34985L51.4424 3.88484L50.9669 3.98937L50.6435 4.35316L51.7645 5.34985ZM58.2355 5.34985L59.3565 4.35316L59.0331 3.98937L58.5576 3.88484L58.2355 5.34985ZM63.0691 7.35304L63.8771 6.08926L63.4673 5.82727L62.9818 5.85558L63.0691 7.35304ZM67.647 11.9309L69.1444 12.0182L69.1727 11.5327L68.9107 11.1229L67.647 11.9309ZM69.6501 16.7645L71.1152 16.4424L71.0106 15.9669L70.6468 15.6435L69.6501 16.7645ZM69.6501 23.2355L70.6468 24.3565L71.0106 24.0331L71.1152 23.5576L69.6501 23.2355ZM67.647 28.0691L68.9107 28.8771L69.1727 28.4673L69.1444 27.9818L67.647 28.0691ZM63.0691 32.647L62.9818 34.1444L63.4673 34.1727L63.8771 33.9107L63.0691 32.647ZM58.2355 34.6501L58.5576 36.1152L59.0331 36.0106L59.3565 35.6468L58.2355 34.6501ZM51.7645 34.6502L50.6435 35.6468L50.9669 36.0106L51.4424 36.1152L51.7645 34.6502ZM46.9309 32.647L46.1229 33.9107L46.5327 34.1727L47.0182 34.1444L46.9309 32.647ZM42.353 28.0691L40.8556 27.9818L40.8273 28.4673L41.0893 28.8771L42.353 28.0691ZM40.3499 23.2355L38.8848 23.5576L38.9894 24.0331L39.3532 24.3565L40.3499 23.2355ZM40.3499 16.7645L39.3532 15.6435L38.9894 15.9669L38.8848 16.4424L40.3499 16.7645ZM42.353 11.9309L41.0893 11.1229L40.8273 11.5327L40.8556 12.0182L42.353 11.9309ZM46.8436 8.85049C49.1296 8.9838 51.3638 8.0579 52.8854 6.34654L50.6435 4.35316C49.7318 5.37853 48.3879 5.93545 47.0182 5.85558L46.8436 8.85049ZM52.0865 6.81486C53.0235 6.60887 53.9982 6.5 55 6.5V3.5C53.7801 3.5 52.5895 3.63264 51.4424 3.88484L52.0865 6.81486ZM55 6.5C56.0018 6.5 56.9765 6.60887 57.9135 6.81486L58.5576 3.88484C57.4105 3.63264 56.2199 3.5 55 3.5V6.5ZM57.1146 6.34654C58.6362 8.0579 60.8704 8.98379 63.1564 8.85049L62.9818 5.85558C61.6121 5.93545 60.2682 5.37853 59.3565 4.35316L57.1146 6.34654ZM62.2611 8.61681C63.9159 9.67482 65.3252 11.0841 66.3832 12.7389L68.9107 11.1229C67.6185 9.10178 65.8982 7.38147 63.8771 6.08926L62.2611 8.61681ZM66.1495 11.8436C66.0162 14.1296 66.9421 16.3638 68.6535 17.8854L70.6468 15.6435C69.6215 14.7318 69.0645 13.3879 69.1444 12.0182L66.1495 11.8436ZM68.1851 17.0865C68.3911 18.0235 68.5 18.9982 68.5 20H71.5C71.5 18.7801 71.3674 17.5895 71.1152 16.4424L68.1851 17.0865ZM68.5 20C68.5 21.0018 68.3911 21.9765 68.1851 22.9135L71.1152 23.5576C71.3674 22.4105 71.5 21.2199 71.5 20H68.5ZM68.6535 22.1146C66.9421 23.6362 66.0162 25.8704 66.1495 28.1564L69.1444 27.9818C69.0646 26.6121 69.6215 25.2682 70.6468 24.3565L68.6535 22.1146ZM66.3832 27.2611C65.3252 28.9159 63.9159 30.3252 62.2611 31.3832L63.8771 33.9107C65.8982 32.6185 67.6185 30.8982 68.9107 28.8771L66.3832 27.2611ZM63.1564 31.1495C60.8704 31.0162 58.6362 31.9421 57.1146 33.6535L59.3565 35.6468C60.2682 34.6215 61.6121 34.0646 62.9818 34.1444L63.1564 31.1495ZM57.9135 33.1851C56.9765 33.3911 56.0018 33.5 55 33.5V36.5C56.2199 36.5 57.4105 36.3674 58.5576 36.1152L57.9135 33.1851ZM55 33.5C53.9982 33.5 53.0235 33.3911 52.0865 33.1851L51.4424 36.1152C52.5895 36.3674 53.7801 36.5 55 36.5V33.5ZM52.8854 33.6535C51.3638 31.9421 49.1296 31.0162 46.8436 31.1495L47.0182 34.1444C48.3879 34.0645 49.7318 34.6215 50.6435 35.6468L52.8854 33.6535ZM47.7389 31.3832C46.0841 30.3252 44.6748 28.9159 43.6168 27.2611L41.0893 28.8771C42.3815 30.8982 44.1018 32.6185 46.1229 33.9107L47.7389 31.3832ZM43.8505 28.1564C43.9838 25.8704 43.0579 23.6362 41.3465 22.1146L39.3532 24.3565C40.3785 25.2682 40.9355 26.6121 40.8556 27.9818L43.8505 28.1564ZM41.8149 22.9135C41.6089 21.9765 41.5 21.0018 41.5 20H38.5C38.5 21.2199 38.6326 22.4105 38.8848 23.5576L41.8149 22.9135ZM41.5 20C41.5 18.9982 41.6089 18.0235 41.8149 17.0865L38.8848 16.4424C38.6326 17.5895 38.5 18.7801 38.5 20H41.5ZM41.3465 17.8854C43.0579 16.3638 43.9838 14.1296 43.8505 11.8436L40.8556 12.0182C40.9355 13.3879 40.3785 14.7318 39.3532 15.6435L41.3465 17.8854ZM43.6168 12.7389C44.6748 11.0841 46.0841 9.67482 47.7389 8.61681L46.1229 6.08926C44.1018 7.38147 42.3815 9.10178 41.0893 11.1229L43.6168 12.7389Z" fill="black" mask="url(#path-7-inside-2_610_726)"/>
<circle cx="55.0004" cy="19.9999" r="10.2143" stroke="black"/>
<path d="M52.2519 19.0826L48.8095 18.5662C48.9975 17.7547 49.3435 16.9863 49.8296 16.3059C50.4128 15.4893 51.181 14.8225 52.0714 14.3598C52.9618 13.8971 53.9491 13.6518 54.9525 13.6439C55.7783 13.6373 56.5958 13.7918 57.3596 14.0967L55.6113 17.1432C55.5748 17.1347 55.5379 17.1276 55.5001 17.1217C55.3433 17.0975 55.1833 17.099 55.0266 17.1005C55.0109 17.1006 54.9953 17.1008 54.9798 17.1009C54.522 17.1045 54.0717 17.2164 53.6655 17.4275C53.2593 17.6385 52.9089 17.9428 52.6428 18.3152C52.4745 18.5509 52.343 18.8096 52.2519 19.0826Z" stroke="black"/>
<path d="M57.1831 21.9127L59.3655 24.6244C59.9714 24.0527 60.4602 23.3663 60.8026 22.6034C61.2134 21.6879 61.4016 20.6882 61.3519 19.686C61.3022 18.6838 61.016 17.7076 60.5166 16.8372C60.1057 16.1209 59.5599 15.493 58.9113 14.9873L57.1629 18.0337C57.1886 18.0609 57.2134 18.0892 57.2375 18.1188C57.3375 18.242 57.417 18.381 57.4947 18.517C57.5025 18.5306 57.5102 18.5442 57.518 18.5576C57.7458 18.9547 57.8763 19.4 57.899 19.8572C57.9217 20.3144 57.8358 20.7704 57.6484 21.1881C57.5298 21.4523 57.3728 21.6963 57.1831 21.9127Z" stroke="black"/>
<path d="M49.969 23.8838L49.9644 23.8779L49.9597 23.8721C49.2349 22.9885 48.917 21.8072 48.7543 20.8268L52.3193 21.1012C52.4175 21.3406 52.5475 21.5664 52.7063 21.7721C52.9389 22.0737 53.2286 22.3264 53.5589 22.516C53.8892 22.7056 54.2536 22.8282 54.6313 22.8769C54.8865 22.9099 55.1443 22.9086 55.3981 22.8737L57.4839 26.026C57.121 26.1161 56.6983 26.2112 56.262 26.2832C55.496 26.4095 54.7616 26.4511 54.2514 26.3178L54.2206 26.3097L54.189 26.3057C53.361 26.1988 52.5622 25.93 51.8381 25.5144C51.114 25.0989 50.4789 24.5448 49.969 23.8838Z" stroke="black"/>
<mask id="path-13-inside-3_610_726" fill="white">
<path fill-rule="evenodd" clip-rule="evenodd" d="M25.9309 37.353C27.7587 37.4596 29.5478 36.7182 30.7645 35.3499C31.8065 35.1208 32.8891 35 34 35C35.1109 35 36.1935 35.1208 37.2355 35.3499C38.4522 36.7182 40.2413 37.4596 42.0691 37.353C43.9071 38.5281 45.4719 40.0929 46.647 41.9309C46.5404 43.7587 47.2818 45.5478 48.6501 46.7645C48.8792 47.8065 49 48.8891 49 50C49 51.1109 48.8792 52.1935 48.6501 53.2355C47.2818 54.4522 46.5404 56.2413 46.647 58.0691C45.4719 59.9071 43.9071 61.4719 42.0691 62.647C40.2413 62.5404 38.4522 63.2818 37.2355 64.6501C36.1935 64.8792 35.1109 65 34 65C32.8891 65 31.8065 64.8792 30.7645 64.6502C29.5478 63.2818 27.7587 62.5404 25.9309 62.647C24.0929 61.4719 22.5281 59.9071 21.353 58.0691C21.4596 56.2413 20.7182 54.4522 19.3499 53.2355C19.1208 52.1935 19 51.1109 19 50C19 48.8891 19.1208 47.8065 19.3499 46.7645C20.7182 45.5478 21.4596 43.7587 21.353 41.9309C22.5281 40.0929 24.0929 38.5281 25.9309 37.353Z"/>
</mask>
<path d="M25.9309 37.353L26.0182 35.8556L25.5327 35.8273L25.1229 36.0893L25.9309 37.353ZM30.7645 35.3499L30.4424 33.8848L29.9669 33.9894L29.6435 34.3532L30.7645 35.3499ZM37.2355 35.3499L38.3565 34.3532L38.0331 33.9894L37.5576 33.8848L37.2355 35.3499ZM42.0691 37.353L42.8771 36.0893L42.4673 35.8273L41.9818 35.8556L42.0691 37.353ZM46.647 41.9309L48.1444 42.0182L48.1727 41.5327L47.9107 41.1229L46.647 41.9309ZM48.6501 46.7645L50.1152 46.4424L50.0106 45.9669L49.6468 45.6435L48.6501 46.7645ZM48.6501 53.2355L49.6468 54.3565L50.0106 54.0331L50.1152 53.5576L48.6501 53.2355ZM46.647 58.0691L47.9107 58.8771L48.1727 58.4673L48.1444 57.9818L46.647 58.0691ZM42.0691 62.647L41.9818 64.1444L42.4673 64.1727L42.8771 63.9107L42.0691 62.647ZM37.2355 64.6501L37.5576 66.1152L38.0331 66.0106L38.3565 65.6468L37.2355 64.6501ZM30.7645 64.6502L29.6435 65.6468L29.9669 66.0106L30.4424 66.1152L30.7645 64.6502ZM25.9309 62.647L25.1229 63.9107L25.5327 64.1727L26.0182 64.1444L25.9309 62.647ZM21.353 58.0691L19.8556 57.9818L19.8273 58.4673L20.0893 58.8771L21.353 58.0691ZM19.3499 53.2355L17.8848 53.5576L17.9894 54.0331L18.3532 54.3565L19.3499 53.2355ZM19.3499 46.7645L18.3532 45.6435L17.9894 45.9669L17.8848 46.4424L19.3499 46.7645ZM21.353 41.9309L20.0893 41.1229L19.8273 41.5327L19.8556 42.0182L21.353 41.9309ZM25.8436 38.8505C28.1296 38.9838 30.3638 38.0579 31.8854 36.3465L29.6435 34.3532C28.7318 35.3785 27.3879 35.9355 26.0182 35.8556L25.8436 38.8505ZM31.0865 36.8149C32.0235 36.6089 32.9982 36.5 34 36.5V33.5C32.7801 33.5 31.5895 33.6326 30.4424 33.8848L31.0865 36.8149ZM34 36.5C35.0018 36.5 35.9765 36.6089 36.9135 36.8149L37.5576 33.8848C36.4105 33.6326 35.2199 33.5 34 33.5V36.5ZM36.1146 36.3465C37.6362 38.0579 39.8704 38.9838 42.1564 38.8505L41.9818 35.8556C40.6121 35.9355 39.2682 35.3785 38.3565 34.3532L36.1146 36.3465ZM41.2611 38.6168C42.9159 39.6748 44.3252 41.0841 45.3832 42.7389L47.9107 41.1229C46.6185 39.1018 44.8982 37.3815 42.8771 36.0893L41.2611 38.6168ZM45.1495 41.8436C45.0162 44.1296 45.9421 46.3638 47.6535 47.8854L49.6468 45.6435C48.6215 44.7318 48.0645 43.3879 48.1444 42.0182L45.1495 41.8436ZM47.1851 47.0865C47.3911 48.0235 47.5 48.9982 47.5 50H50.5C50.5 48.7801 50.3674 47.5895 50.1152 46.4424L47.1851 47.0865ZM47.5 50C47.5 51.0018 47.3911 51.9765 47.1851 52.9135L50.1152 53.5576C50.3674 52.4105 50.5 51.2199 50.5 50H47.5ZM47.6535 52.1146C45.9421 53.6362 45.0162 55.8704 45.1495 58.1564L48.1444 57.9818C48.0646 56.6121 48.6215 55.2682 49.6468 54.3565L47.6535 52.1146ZM45.3832 57.2611C44.3252 58.9159 42.9159 60.3252 41.2611 61.3832L42.8771 63.9107C44.8982 62.6185 46.6185 60.8982 47.9107 58.8771L45.3832 57.2611ZM42.1564 61.1495C39.8704 61.0162 37.6362 61.9421 36.1146 63.6535L38.3565 65.6468C39.2682 64.6215 40.6121 64.0646 41.9818 64.1444L42.1564 61.1495ZM36.9135 63.1851C35.9765 63.3911 35.0018 63.5 34 63.5V66.5C35.2199 66.5 36.4105 66.3674 37.5576 66.1152L36.9135 63.1851ZM34 63.5C32.9982 63.5 32.0235 63.3911 31.0865 63.1851L30.4424 66.1152C31.5895 66.3674 32.7801 66.5 34 66.5V63.5ZM31.8854 63.6535C30.3638 61.9421 28.1296 61.0162 25.8436 61.1495L26.0182 64.1444C27.3879 64.0645 28.7318 64.6215 29.6435 65.6468L31.8854 63.6535ZM26.7389 61.3832C25.0841 60.3252 23.6748 58.9159 22.6168 57.2611L20.0893 58.8771C21.3815 60.8982 23.1018 62.6185 25.1229 63.9107L26.7389 61.3832ZM22.8505 58.1564C22.9838 55.8704 22.0579 53.6362 20.3465 52.1146L18.3532 54.3565C19.3785 55.2682 19.9355 56.6121 19.8556 57.9818L22.8505 58.1564ZM20.8149 52.9135C20.6089 51.9765 20.5 51.0018 20.5 50H17.5C17.5 51.2199 17.6326 52.4105 17.8848 53.5576L20.8149 52.9135ZM20.5 50C20.5 48.9982 20.6089 48.0235 20.8149 47.0865L17.8848 46.4424C17.6326 47.5895 17.5 48.7801 17.5 50H20.5ZM20.3465 47.8854C22.0579 46.3638 22.9838 44.1296 22.8505 41.8436L19.8556 42.0182C19.9355 43.3879 19.3785 44.7318 18.3532 45.6435L20.3465 47.8854ZM22.6168 42.7389C23.6748 41.0841 25.0841 39.6748 26.7389 38.6168L25.1229 36.0893C23.1018 37.3815 21.3815 39.1018 20.0893 41.1229L22.6168 42.7389Z" fill="black" mask="url(#path-13-inside-3_610_726)"/>
<circle cx="34.0004" cy="49.9999" r="10.2143" stroke="black"/>
<path d="M31.3252 48.887L27.9289 48.1242C28.1748 47.3284 28.5752 46.5869 29.109 45.9432C29.7495 45.1708 30.5637 44.5609 31.4851 44.1635C32.4065 43.7661 33.4089 43.5925 34.4102 43.6568C35.2344 43.7098 36.0386 43.9227 36.7785 44.2818L34.8154 47.1945C34.7797 47.1834 34.7434 47.1736 34.7061 47.1651C34.5515 47.1296 34.3917 47.1196 34.2353 47.1098C34.2197 47.1088 34.2041 47.1079 34.1886 47.1069C33.7318 47.0775 33.2746 47.1567 32.8542 47.338C32.4339 47.5193 32.0625 47.7975 31.7703 48.1499C31.5855 48.3728 31.4357 48.6214 31.3252 48.887Z" stroke="black"/>
<path d="M36.0406 52.0648L38.0222 54.9266C38.6676 54.4 39.2046 53.7506 39.601 53.0143C40.0766 52.1307 40.3363 51.1471 40.3589 50.144C40.3814 49.1408 40.1662 48.1465 39.7308 47.2425C39.3725 46.4984 38.8733 45.8329 38.2628 45.2818L36.2997 48.1945C36.3233 48.2234 36.346 48.2534 36.3679 48.2848C36.4589 48.4148 36.5281 48.5591 36.5958 48.7004C36.6026 48.7145 36.6094 48.7286 36.6161 48.7426C36.8147 49.155 36.9129 49.6086 36.9026 50.0662C36.8923 50.5238 36.7738 50.9725 36.5569 51.3756C36.4196 51.6306 36.2454 51.8627 36.0406 52.0648Z" stroke="black"/>
<path d="M28.7032 53.5116L28.6991 53.5053L28.6948 53.4992C28.0355 52.5657 27.8034 51.3646 27.7117 50.375L31.2477 50.9054C31.3284 51.1512 31.4419 51.3857 31.5854 51.6024C31.7957 51.9199 32.0665 52.1929 32.3823 52.4057C32.6981 52.6185 33.0527 52.7671 33.4259 52.8429C33.678 52.8941 33.9353 52.9114 34.1909 52.8948L36.0445 56.1891C35.676 56.2529 35.2475 56.3173 34.8071 56.3576C34.0341 56.4285 33.2986 56.4172 32.7993 56.2475L32.7691 56.2372L32.7379 56.2309C31.9198 56.0647 31.1424 55.7391 30.4501 55.2725C29.7578 54.8059 29.1642 54.2075 28.7032 53.5116Z" stroke="black"/>
</svg>
