<svg width="70" height="70" viewBox="0 0 70 70" fill="none" xmlns="http://www.w3.org/2000/svg">
<path fill-rule="evenodd" clip-rule="evenodd" d="M6.36364 13.1814C3.85325 13.1814 1.81818 15.1926 1.81818 17.6734V55.7112C1.81818 58.1921 3.85325 60.2032 6.36364 60.2032H63.6364C66.1468 60.2032 68.1818 58.1921 68.1818 55.7112V17.6734C68.1818 15.1926 66.1468 13.1814 63.6364 13.1814H62.1662C61.6641 13.1814 61.2571 12.7792 61.2571 12.283C61.2571 11.7869 61.6641 11.3847 62.1662 11.3847H63.6364C67.1509 11.3847 70 14.2002 70 17.6734V55.7112C70 59.1844 67.1509 62 63.6364 62H6.36364C2.8491 62 0 59.1844 0 55.7112V17.6734C0 14.2002 2.8491 11.3847 6.36364 11.3847H53.6435C54.1455 11.3847 54.5526 11.7869 54.5526 12.283C54.5526 12.7792 54.1455 13.1814 53.6435 13.1814H6.36364Z" fill="black"/>
<path fill-rule="evenodd" clip-rule="evenodd" d="M16.8892 22.4535H6.2358V21.5551H16.8892V22.4535Z" fill="black"/>
<path fill-rule="evenodd" clip-rule="evenodd" d="M16.8892 26.5218H6.2358V25.6234H16.8892V26.5218Z" fill="black"/>
<path fill-rule="evenodd" clip-rule="evenodd" d="M16.8892 30.59H6.2358V29.6916H16.8892V30.59Z" fill="black"/>
<path fill-rule="evenodd" clip-rule="evenodd" d="M16.8892 52.9652H6.2358V52.0668H16.8892V52.9652Z" fill="black"/>
<path fill-rule="evenodd" clip-rule="evenodd" d="M16.8892 48.897H6.2358V47.9986H16.8892V48.897Z" fill="black"/>
<path fill-rule="evenodd" clip-rule="evenodd" d="M16.8892 44.8287H6.2358V43.9303H16.8892V44.8287Z" fill="black"/>
<path fill-rule="evenodd" clip-rule="evenodd" d="M20.696 21.3179C20.696 20.5737 21.3065 19.9703 22.0597 19.9703H48.3168C48.5678 19.9703 48.7713 20.1714 48.7713 20.4195C48.7713 20.6676 48.5678 20.8687 48.3168 20.8687H22.0597C21.8086 20.8687 21.6051 21.0698 21.6051 21.3179V46.3544C21.6051 46.6025 21.4016 46.8036 21.1506 46.8036C20.8995 46.8036 20.696 46.6025 20.696 46.3544V21.3179ZM55.3196 20.4195C55.3196 20.1714 55.5231 19.9703 55.7741 19.9703H62.8551C63.6082 19.9703 64.2188 20.5737 64.2188 21.3179V52.0668C64.2188 52.8111 63.6082 53.4144 62.8551 53.4144H22.0597C21.3065 53.4144 20.696 52.8111 20.696 52.0668V48.3885C20.696 48.1404 20.8995 47.9393 21.1506 47.9393C21.4016 47.9393 21.6051 48.1404 21.6051 48.3885V52.0668C21.6051 52.3149 21.8086 52.516 22.0597 52.516H62.8551C63.1062 52.516 63.3097 52.3149 63.3097 52.0668V21.3179C63.3097 21.0698 63.1062 20.8687 62.8551 20.8687H55.7741C55.5231 20.8687 55.3196 20.6676 55.3196 20.4195Z" fill="black"/>
<path fill-rule="evenodd" clip-rule="evenodd" d="M11.5625 40.8791C13.4438 40.8791 14.9148 39.431 14.9148 37.7093C14.9148 35.9877 13.4438 34.5395 11.5625 34.5395C9.68123 34.5395 8.21023 35.9877 8.21023 37.7093C8.21023 39.431 9.68123 40.8791 11.5625 40.8791ZM11.5625 41.7775C13.916 41.7775 15.8239 39.9561 15.8239 37.7093C15.8239 35.4625 13.916 33.6411 11.5625 33.6411C9.20901 33.6411 7.30114 35.4625 7.30114 37.7093C7.30114 39.9561 9.20901 41.7775 11.5625 41.7775Z" fill="black"/>
<path fill-rule="evenodd" clip-rule="evenodd" d="M41.3239 32.238L41.5474 32.1908C42.7299 31.9407 43.8734 32.7051 44.0317 33.8514L44.0616 34.0681L61.0062 10.9656C61.5419 10.2353 61.3632 9.23357 60.6072 8.72821C59.8512 8.22285 58.8042 8.4052 58.2685 9.13551L41.3239 32.238ZM40.4637 32.6458L57.892 8.88383C58.575 7.95265 59.9101 7.72014 60.874 8.3645C61.8379 9.00886 62.0657 10.2861 61.3827 11.2173L43.9544 34.9793L40.9302 36.9907C40.2233 37.4608 39.2972 36.8417 39.5182 36.0468L40.4637 32.6458ZM43.6694 34.6029L43.5743 33.9143C43.4511 33.0227 42.5617 32.4281 41.642 32.6226L40.9317 32.7728L40.8881 32.8322L39.964 36.1563C39.8535 36.5537 40.3166 36.8633 40.67 36.6282L43.6258 34.6623L43.6694 34.6029Z" fill="black"/>
</svg>
