<svg width="69" height="68" viewBox="0 0 69 68" fill="none" xmlns="http://www.w3.org/2000/svg">
<path fill-rule="evenodd" clip-rule="evenodd" d="M34.0944 5.59351L34.0133 5.51361V5.43371V5.3538V5.2739V5.19398V5.11408V5.03417V4.95427V4.87437V4.79445V4.71455V4.63464V4.55474L34.0944 4.79445H34.1757H34.2568H34.338H34.4192H34.5004H34.5815H34.6627H34.7439H34.825H34.9063H34.9874H35.0686H35.1497H35.231H35.3121H35.3932V4.87437V4.95427V5.03417V5.11408V5.19398V5.2739V5.3538V5.43371V5.51361V5.59351V5.67342V5.75333V5.83324V5.91314V5.99304L34.9063 5.59351H34.825H34.7439H34.6627H34.5815H34.5004H34.4192H34.338H34.2568H34.1757H34.0944H34.0133H33.9321H34.0944ZM27.438 21.4948V21.0154V20.7757H27.2757L26.1392 20.1364C26.2203 19.8966 26.3827 19.5771 26.5451 19.3374C26.7074 19.0976 26.7886 18.778 26.9509 18.5382C27.1133 18.2986 27.1944 17.979 27.3568 17.7392C27.5192 17.4995 27.6815 17.1798 27.7626 16.9402C27.925 16.7005 28.0874 16.4607 28.1686 16.1411C28.331 15.9014 28.4933 15.6617 28.6556 15.3421C28.818 15.1023 28.9803 14.8626 29.1427 14.543C29.3051 14.3033 29.4674 14.0636 29.6298 13.8238C29.7921 13.5042 30.0356 13.2645 30.198 12.9449C30.4415 12.6253 30.6039 12.3855 30.7662 12.1458C30.9286 11.9061 31.1721 11.5865 31.4157 11.3468C31.6592 11.107 31.8215 10.7874 32.065 10.5477C32.3085 10.308 32.4709 10.0682 32.7145 9.74863C32.958 9.50891 33.2015 9.18929 33.3638 8.94957C33.6074 8.70985 33.7698 8.47013 34.0133 8.23041C34.1757 8.0706 34.4192 7.83089 34.5815 7.67107C34.7439 7.91079 34.9874 8.0706 35.1497 8.23041C35.3932 8.47013 35.5556 8.70985 35.7992 8.94957C36.0427 9.18929 36.2862 9.429 36.4486 9.74863C36.6922 9.98835 36.8544 10.308 37.098 10.5477C37.3415 10.7874 37.5039 11.107 37.7474 11.3468C37.991 11.5865 38.1533 11.9061 38.3968 12.1458C38.5592 12.3855 38.8027 12.7052 38.965 12.9449C39.1274 13.1845 39.3709 13.5042 39.5333 13.8238C39.6956 14.0636 39.858 14.3033 40.0204 14.543C40.1827 14.7827 40.3451 15.0224 40.5075 15.2622C40.6697 15.5019 40.8321 15.7415 40.9944 16.0612C41.1568 16.3009 41.3192 16.6206 41.4003 16.8603C41.5627 17.0999 41.725 17.4196 41.8063 17.6593C41.9686 17.8991 42.0498 18.2187 42.2121 18.4583C42.3745 18.6981 42.4556 19.0177 42.618 19.2575C42.7803 19.4972 42.8615 19.8167 42.9427 20.0565L41.725 20.7757L41.6439 20.8556H41.5627V20.9355V21.0154V22.214V30.2046V30.3644V30.4443H41.6439H41.8063H43.1862H43.3486H43.4298V30.3644V30.2046V21.9743L44.485 21.4149L44.5662 21.335L44.6474 21.255C44.6474 21.255 44.7286 21.1751 44.7286 21.0953C44.7286 21.0154 44.8097 21.0154 44.8097 20.9355C44.8097 20.8556 44.891 20.8556 44.891 20.7757C44.891 20.6958 44.891 20.6958 44.9721 20.6159C44.9721 20.5359 44.9721 20.5359 44.9721 20.456C44.9721 20.3761 44.9721 20.3761 44.9721 20.2962C44.9721 20.2163 44.9721 20.2163 44.9721 20.1364C44.9721 20.0565 44.9721 20.0565 44.891 19.9766C44.7286 19.657 44.6474 19.3374 44.485 19.0177C44.3226 18.6981 44.1604 18.3785 44.0791 18.0589C43.9168 17.7392 43.7544 17.4196 43.5921 17.0999C43.4298 16.7804 43.2674 16.4607 43.1051 16.221C42.9427 15.9014 42.7803 15.5818 42.618 15.3421C42.4556 15.0224 42.2933 14.7028 42.1309 14.463C41.9686 14.1435 41.8063 13.9038 41.5627 13.5841C41.4003 13.2645 41.1568 13.0247 40.9944 12.7052C40.8321 12.4654 40.5886 12.1458 40.4262 11.9061C40.2639 11.5865 40.0204 11.3468 39.858 11.107C39.6956 10.8673 39.4521 10.5477 39.2898 10.308C39.0462 10.0682 38.8839 9.74863 38.6403 9.5089C38.3968 9.26919 38.2345 8.94957 37.991 8.70985C37.7474 8.47013 37.585 8.23041 37.3415 7.91079C37.098 7.67107 36.9356 7.43136 36.6922 7.19164C36.5298 6.95191 36.2862 6.79211 36.1238 6.55239L36.2051 6.47248C36.2862 6.39258 36.2862 6.39257 36.2862 6.31267C36.4486 6.31267 36.5298 6.31267 36.5298 6.23277C36.5298 6.15286 36.6109 6.07295 36.6109 5.99304C36.6109 5.91314 36.6922 5.83324 36.6922 5.75333C36.6922 5.67342 36.7733 5.59351 36.7733 5.51361C36.7733 5.43371 36.7733 5.3538 36.7733 5.2739C36.7733 5.19398 36.7733 5.11408 36.7733 5.03417C36.7733 4.95427 36.7733 4.87437 36.7733 4.79445C36.7733 4.71455 36.7733 4.63464 36.7733 4.55474C36.7733 4.47484 36.7733 4.39492 36.6922 4.31502C36.6922 4.23511 36.6109 4.15521 36.6109 4.07531C36.6109 3.9954 36.5298 3.91549 36.5298 3.91549C36.5298 3.9954 36.5298 3.91549 36.4486 3.91549L36.3674 3.83558L36.2862 3.75568L36.2051 3.67577C36.1238 3.59587 36.1238 3.59587 36.0427 3.51596C35.9616 3.43605 35.9616 3.43605 35.8803 3.35615C35.718 3.19634 35.6368 3.19634 35.6368 3.11643C35.5556 3.11643 35.4745 3.03652 35.3932 3.03652C35.3121 3.03652 35.231 2.95662 35.1497 2.95662C35.0686 2.95662 34.9874 2.87671 34.9063 2.87671C34.825 2.87671 34.7439 2.87671 34.6627 2.87671C34.5815 2.87671 34.5004 2.87671 34.4192 2.87671C34.338 2.87671 34.2568 2.87671 34.1757 2.87671C34.0944 2.87671 34.0133 2.87671 33.9321 2.87671C33.8509 2.87671 33.7698 2.87671 33.6886 2.95662C33.6074 2.95662 33.5262 3.03652 33.4451 3.03652C33.3638 3.03652 33.2827 3.11643 33.2015 3.11643C33.3638 3.19634 33.2827 3.19634 33.2015 3.27624C33.1204 3.35615 33.0391 3.35615 33.0391 3.43605C32.958 3.51596 32.958 3.51596 32.8769 3.59587C32.7956 3.67577 32.7956 3.67577 32.7145 3.75568C32.6333 3.83558 32.6333 3.83558 32.5521 3.91549C32.5521 3.91549 32.4709 3.9954 32.4709 4.07531C32.4709 4.15521 32.3898 4.23511 32.3898 4.31502C32.3898 4.39492 32.3085 4.47484 32.3085 4.55474C32.3085 4.63464 32.2274 4.71455 32.2274 4.79445C32.2274 4.87437 32.2274 4.95427 32.2274 5.03417C32.2274 5.11408 32.2274 5.19398 32.2274 5.2739C32.2274 5.3538 32.2274 5.43371 32.2274 5.51361C32.2274 5.59351 32.2274 5.67342 32.2274 5.75333C32.2274 5.83324 32.2274 5.91314 32.3085 5.99304C32.3085 6.07295 32.3898 6.15286 32.3898 6.23277C32.3898 6.31267 32.4709 6.39258 32.4709 6.47248C32.4709 6.31267 32.5521 6.39257 32.5521 6.39257C32.5521 6.47248 32.6333 6.47248 32.6333 6.55239L32.7145 6.6323C32.5521 6.87201 32.3085 7.03183 32.1463 7.27154C31.9027 7.51126 31.7403 7.75098 31.4968 7.9907C31.2533 8.23041 31.091 8.47013 30.8474 8.78976C30.6039 9.02947 30.4415 9.26919 30.198 9.58882C29.9545 9.82853 29.7921 10.1482 29.5485 10.3879C29.3051 10.6276 29.1427 10.9472 28.9803 11.187C28.818 11.4267 28.5745 11.7462 28.4121 11.986C28.2497 12.2257 28.0062 12.5454 27.8439 12.7851C27.6815 13.1046 27.438 13.3444 27.2757 13.664C27.1133 13.9837 26.8698 14.2234 26.7074 14.543C26.5451 14.8626 26.3827 15.1023 26.2203 15.422C26.058 15.7415 25.8956 16.0612 25.7332 16.3009C25.5709 16.6206 25.4086 16.9402 25.2463 17.1798C25.0839 17.4995 24.9215 17.8191 24.7592 18.1388C24.5968 18.4583 24.4344 18.778 24.3533 19.0976C24.1909 19.4173 24.0286 19.7369 23.9474 20.0565C23.9474 20.1364 23.9474 20.1364 23.8662 20.2163C23.8662 20.2962 23.8662 20.2962 23.8662 20.3761C23.8662 20.456 23.8662 20.456 23.8662 20.5359C23.8662 20.6159 23.8662 20.6159 23.8662 20.6958C23.8662 20.7757 23.8662 20.7757 23.9474 20.8556C23.9474 20.9355 24.0286 20.9355 24.0286 21.0154C24.0286 21.0953 24.1097 21.0953 24.1097 21.1751C24.1097 21.255 24.1909 21.255 24.1909 21.335L24.2721 21.4149L24.3533 21.4948L25.4086 22.0542V30.2845V30.4443V30.5242H25.4898H25.6521H27.0322H27.1944H27.2757V30.4443V30.2845V22.2939V21.4948H27.438Z" fill="#002FA7"/>
<path fill-rule="evenodd" clip-rule="evenodd" d="M44.2412 59.8496L47.3259 58.0117C47.5694 57.8519 47.7317 57.772 47.9752 57.6922C48.2188 57.6123 48.4623 57.5323 48.6247 57.4524C48.8682 57.3725 49.1118 57.2926 49.3553 57.2926C49.5988 57.2127 49.8424 57.2127 50.0859 57.2127C50.2482 57.2127 50.4106 57.2127 50.5729 57.2127C50.7353 57.2127 50.8977 57.2127 51.0599 57.2127C51.2223 57.2127 51.3035 57.2127 51.4659 57.2926C51.547 57.2926 51.6283 57.2926 51.7094 57.3725C51.7094 57.2926 51.7905 57.2127 51.7905 57.1328C51.7905 56.973 51.8718 56.893 51.9529 56.7332C52.0341 56.5734 52.1152 56.4136 52.1152 56.2539C52.1965 56.094 52.2776 55.9342 52.3588 55.8543C52.5211 55.6146 52.6023 55.4547 52.7647 55.2949C52.9271 55.1351 53.0894 54.8955 53.2517 54.7356C53.4141 54.5758 53.5764 54.416 53.82 54.2562C53.9823 54.0963 54.2259 53.9365 54.3882 53.8566L54.7941 53.617L56.2553 52.7379L57.5541 52.0188L51.7905 42.5899L49.0305 44.2679L48.7058 44.3478C48.5435 44.4277 48.4623 44.5076 48.3 44.5875C48.1376 44.6674 48.0565 44.8273 47.8941 44.9072L47.813 45.067L47.7317 45.2268C47.6506 45.3067 47.5694 45.3866 47.5694 45.4666C47.4882 45.5464 47.4882 45.6263 47.407 45.7062C47.3259 45.866 47.2446 46.0258 47.1635 46.1057C47.0824 46.2656 47.0011 46.4254 47.0011 46.5852C47.0011 46.745 46.92 46.825 46.92 46.9847C46.92 47.0646 46.8388 47.2244 46.8388 47.3842V47.4641H46.7576L45.2965 48.3431H45.2152H45.1341C45.0529 48.2632 44.8906 48.2632 44.8094 48.1834C44.647 48.1834 44.5659 48.1034 44.4847 48.1034C44.3223 48.1034 44.16 48.0235 43.9977 48.0235C43.8353 48.0235 43.6729 48.0235 43.5106 48.0235C43.3482 48.0235 43.1858 48.0235 43.0235 48.1034C42.8611 48.1034 42.6989 48.1834 42.5365 48.1834C42.3741 48.2632 42.2118 48.2632 42.0494 48.3431C41.887 48.423 41.7247 48.5029 41.6435 48.5828L38.5588 50.4207L44.2412 59.8496ZM31.9836 47.5441C32.0647 47.7039 32.0647 47.7039 32.1459 47.7838C32.227 47.9436 32.227 48.0235 32.3082 48.1834C32.3082 48.3431 32.3894 48.5029 32.3894 48.6627C32.3894 48.8225 32.3894 48.9824 32.3082 49.1422C32.3082 49.302 32.227 49.4618 32.1459 49.5418C32.0647 49.7814 31.8212 50.101 31.6588 50.2609L31.5776 50.3408L31.4965 50.4207C31.4153 50.5006 31.3341 50.5006 31.253 50.5805C31.1717 50.6604 31.0906 50.6604 30.9282 50.7403L42.4553 65.1234C43.2671 64.9635 43.9977 64.7238 44.7283 64.4842C45.54 64.2444 46.2706 63.9248 47.0011 63.6051C48.7058 62.886 50.4106 62.0869 51.9529 61.0482C53.4953 60.0893 54.9565 58.9707 56.3364 57.772C56.2553 57.3725 56.0929 56.893 55.9305 56.4935C55.7682 56.094 55.6871 55.6945 55.5247 55.2949L55.4436 55.3748C55.2812 55.4547 55.2 55.5346 55.0376 55.6146C54.8752 55.6945 54.7941 55.8543 54.6317 55.9342C54.5506 56.0141 54.3882 56.1739 54.307 56.3338C54.2259 56.4935 54.1446 56.5734 54.0635 56.7332C53.9823 56.893 53.9012 57.0529 53.82 57.1328C53.7388 57.2926 53.6577 57.4524 53.6577 57.6123C53.6577 57.772 53.5764 57.8519 53.5764 58.0117C53.5764 58.0916 53.4953 58.2514 53.4953 58.4113V58.4912H53.4141L52.0341 59.2902L51.9529 59.3701H51.8718H51.7905C51.7094 59.2902 51.547 59.2902 51.4659 59.2103C51.3035 59.2103 51.2223 59.1304 51.1412 59.1304C50.9788 59.1304 50.8164 59.0506 50.6541 59.0506C50.4917 59.0506 50.3293 59.0506 50.1671 59.0506C50.0047 59.0506 49.8424 59.0506 49.68 59.1304C49.5176 59.1304 49.3553 59.2103 49.1929 59.2103C49.0305 59.2902 48.8682 59.2902 48.7058 59.3701C48.5435 59.45 48.3812 59.5299 48.3 59.6098L44.4035 61.9271L43.8353 62.2467L43.6729 62.3267L43.5917 62.4066L43.5106 62.3267L43.4293 62.1668L43.1047 61.6075L36.3671 50.5805L36.0423 50.0211L35.9611 49.8613L35.88 49.7814L35.9611 49.7015L36.1235 49.6216L36.6918 49.302L40.5882 46.9847C40.8317 46.825 40.9941 46.745 41.2376 46.6651C41.4812 46.5852 41.7247 46.5053 41.887 46.4254C42.1305 46.3455 42.3741 46.2656 42.6176 46.2656C42.8611 46.1857 43.1047 46.1857 43.3482 46.1857C43.5106 46.1857 43.6729 46.1857 43.8353 46.1857C43.9977 46.1857 44.16 46.1857 44.3223 46.1857C44.4847 46.1857 44.5659 46.1857 44.7283 46.2656C44.8094 46.2656 44.8906 46.2656 44.9717 46.3455C44.9717 46.2656 45.0529 46.1857 45.0529 46.1057C45.0529 45.9459 45.1341 45.866 45.2152 45.7062C45.2965 45.5464 45.3776 45.3866 45.3776 45.2268C45.4588 45.067 45.54 44.9072 45.6212 44.8273C45.7023 44.7473 45.7835 44.5875 45.7835 44.5076L45.9458 44.3478C45.4588 44.0282 44.9717 43.7885 44.4035 43.5488C43.8353 43.309 43.2671 43.0693 42.78 42.8296L31.9836 47.5441ZM41.2376 0.639248C39.0458 0.239718 36.8541 0 34.4999 0C32.227 0 29.9542 0.239718 27.7623 0.639248C25.4894 1.03878 23.3788 1.75793 21.2682 2.55699C19.1576 3.43596 17.2095 4.47473 15.2612 5.67332C13.3942 6.95182 11.6083 8.31022 9.9847 9.90834C8.36117 11.5065 6.98117 13.1845 5.68235 15.1022C4.4647 16.9401 3.32824 18.9377 2.51647 21.0153C1.62353 23.0129 0.974117 25.1703 0.568235 27.4078C0.24353 29.4853 0 31.7227 0 33.96C0 36.1974 0.24353 38.4348 0.649412 40.5922C1.05529 42.8296 1.78588 44.9072 2.59765 46.9847C3.49059 49.0623 4.54588 50.98 5.76353 52.8978C7.06235 54.7356 8.44235 56.4935 10.0659 58.0916C13.2318 61.208 17.0471 63.765 21.2682 65.443C23.2976 66.3219 25.4894 66.9612 27.7623 67.3607C29.9542 67.7603 32.227 68 34.4999 68C35.7176 68 36.9353 67.9201 38.153 67.8402C39.3705 67.6803 40.507 67.5205 41.7247 67.2808C42.0494 67.201 42.2929 67.1211 42.6176 67.0412C42.9423 66.9612 43.2671 66.8813 43.5106 66.8014C44.2412 66.6416 44.9717 66.4019 45.6212 66.1621C46.3518 65.9224 47.0011 65.6828 47.7317 65.3631C49.4365 64.6439 51.0599 63.8449 52.6023 62.9659C54.1446 62.007 55.6058 60.9683 56.9859 59.7697C57.2294 59.5299 57.473 59.3701 57.7164 59.1304C57.9599 58.8907 58.2035 58.651 58.447 58.4912L58.6905 58.2514L58.9341 58.0117C60.5577 56.4136 61.9376 54.7356 63.2364 52.8178C64.4541 50.98 65.5905 48.9824 66.4024 46.9048C67.2953 44.9072 67.9447 42.7497 68.3505 40.5123C68.7565 38.3549 69 36.1175 69 33.8801C69 31.6428 68.7565 29.4054 68.3505 27.2479C67.9447 25.0106 67.2141 22.933 66.4024 20.8555C65.5094 18.7779 64.4541 16.8602 63.2364 14.9424C61.9376 13.1045 60.5577 11.3467 58.9341 9.74853C57.3106 8.15041 55.6058 6.79201 53.6577 5.51351C51.7905 4.31492 49.7611 3.19623 47.6506 2.39718C45.6212 1.75793 43.5106 1.11869 41.2376 0.639248ZM30.1976 48.1034H30.1164H30.0353C29.9542 48.1034 29.9542 48.1034 29.9542 48.1034H29.8729C29.8729 48.1034 29.7918 48.1034 29.7918 48.1834L29.7106 48.2632C29.7106 48.2632 29.7106 48.3431 29.6294 48.3431C29.6294 48.3431 29.6294 48.423 29.5482 48.423V48.5029V48.5828C29.5482 48.6627 29.5482 48.6627 29.5482 48.6627C29.5482 48.7426 29.5482 48.7426 29.5482 48.7426C29.5482 48.7426 29.5482 48.8225 29.6294 48.8225L29.7106 48.9025L29.7918 48.9824L29.8729 49.0623H29.9542H30.0353C30.1164 49.0623 30.1164 49.0623 30.1976 49.0623C30.2788 49.0623 30.2788 49.0623 30.2788 49.0623C30.2788 49.0623 30.36 49.0623 30.36 48.9824C30.36 48.9824 30.4411 48.9824 30.4411 48.9025L30.5224 48.8225L30.6035 48.7426V48.6627V48.5828C30.6035 48.5029 30.6035 48.5029 30.6035 48.5029V48.423C30.6035 48.423 30.6035 48.3431 30.5224 48.3431L30.4411 48.2632L30.36 48.1834C30.2788 48.1834 30.2788 48.1834 30.1976 48.1034ZM24.1906 43.6287C23.0541 44.188 21.9988 44.8273 21.0246 45.5464C20.0506 46.2656 19.1576 47.0646 18.3459 47.8637C17.5341 48.6627 16.8847 49.5418 16.1541 50.4207L27.7623 49.302C27.7623 49.2221 27.6812 49.1422 27.6812 49.0623C27.6812 48.9025 27.6812 48.8225 27.6812 48.6627C27.6812 48.5029 27.6812 48.3431 27.7623 48.1834C27.7623 48.0235 27.8435 47.8637 27.9247 47.7838C28.0059 47.7039 28.0059 47.5441 28.087 47.4641C28.1683 47.3842 28.1683 47.3043 28.2494 47.2244L28.3306 47.1445L28.4117 47.0646C28.493 46.9847 28.6552 46.9048 28.7365 46.745C28.8988 46.6651 28.98 46.5852 29.1423 46.5053C29.2236 46.5053 29.3047 46.4254 29.3858 46.4254H29.5482L27.5188 42.1904C26.3824 42.6698 25.2459 43.0693 24.1906 43.6287ZM2.51647 27.7274C2.92236 25.6498 3.57176 23.6522 4.38353 21.7344C5.19529 19.8166 6.25058 17.899 7.38706 16.2209C8.60471 14.4629 9.90353 12.8649 11.4459 11.3467C12.9882 9.82844 14.6117 8.54994 16.3976 7.35135C18.1835 6.15276 20.0506 5.19389 21.9988 4.39483C23.9471 3.59577 25.9765 2.95652 28.087 2.55699C30.1164 2.15746 32.3082 1.91774 34.4188 1.91774C36.6106 1.91774 38.7212 2.15746 40.7506 2.55699C42.8611 2.95652 44.8906 3.59577 46.8388 4.39483C48.787 5.19389 50.7353 6.23267 52.44 7.35135C54.2259 8.54994 55.8494 9.82844 57.3917 11.3467C58.9341 12.8649 60.2329 14.4629 61.4506 16.2209C62.6682 17.9789 63.6424 19.8166 64.4541 21.7344C65.2658 23.6522 65.9153 25.6498 66.3211 27.7274C66.7271 29.725 66.9706 31.8825 66.9706 33.96C66.9706 36.1175 66.7271 38.1951 66.3211 40.1927C65.9153 42.2703 65.2658 44.2679 64.4541 46.1857C63.6424 48.1034 62.6682 49.9412 61.5317 51.6193C60.3953 53.2973 59.0965 54.8155 57.7164 56.2539C57.6353 55.9342 57.5541 55.6146 57.3917 55.2949C57.2294 54.9754 57.1482 54.5758 56.9859 54.2562L59.1776 52.9777L59.7458 52.658L59.9082 52.5781L59.9893 52.4982L59.9082 52.4183L60.0706 52.3384L59.7458 51.7791L52.9271 40.7521L52.6023 40.1927L52.5211 40.0329L52.44 39.953L52.3588 40.0329L52.1965 40.1128L51.6283 40.4324L47.7317 42.7497L47.5694 42.8296L47.4882 42.9095C47.0824 42.6698 46.5953 42.3502 46.1082 42.1105C45.6212 41.8707 45.1341 41.631 44.647 41.3913L44.2412 41.2315L43.8353 41.0717L43.4293 40.9119L42.8611 40.7521H42.78H42.6989H42.6176H42.5365L31.1717 45.866L28.493 40.2726L28.4117 40.1128V40.0329H28.3306H28.1683C27.1129 40.2726 26.1389 40.6721 25.0835 41.0717C24.1094 41.4712 23.1353 41.9506 22.1612 42.4301C21.187 42.9894 20.2941 43.5488 19.4823 44.188C18.5894 44.8273 17.7777 45.5464 17.0471 46.2656C16.7224 46.5852 16.3976 46.9847 16.0729 47.3043C15.7483 47.7039 15.4236 48.0235 15.0988 48.423C14.7741 48.8225 14.5306 49.2221 14.2059 49.5418C13.9624 49.9412 13.6377 50.3408 13.3942 50.7403V50.8202C13.3129 50.98 13.2318 51.0599 13.2318 51.1398C13.2318 51.2996 13.1506 51.3795 13.2318 51.6193C13.2318 51.6992 13.2318 51.6992 13.3129 51.7791C13.3129 51.859 13.3129 51.859 13.3942 51.9389C13.3942 52.0188 13.4753 52.0188 13.4753 52.0987C13.4753 52.1786 13.5564 52.1786 13.5564 52.1786C13.6377 52.2586 13.7188 52.3384 13.8 52.3384C13.8811 52.4183 13.9624 52.4183 14.0435 52.4183C14.1247 52.4183 14.2059 52.4183 14.287 52.4183C14.3682 52.4183 14.4494 52.4183 14.5306 52.4183L28.7365 51.1398L40.2635 65.5229C39.3705 65.6828 38.3965 65.8426 37.5035 65.9224C36.5294 66.0023 35.5553 66.0822 34.4999 66.0822C32.3082 66.0822 30.1976 65.8426 28.1683 65.443C26.0576 65.0435 24.0282 64.4043 22.08 63.6051C20.1318 62.8061 18.1835 61.7674 16.4789 60.6486C14.693 59.45 13.0694 58.1715 11.527 56.6533C9.9847 55.1351 8.68588 53.537 7.46823 51.7791C6.25058 50.0211 5.27647 48.1834 4.4647 46.2656C3.65294 44.3478 3.00353 42.3502 2.59765 40.2726C2.19176 38.275 1.94823 36.1175 1.94823 34.04C1.94823 31.8026 2.11059 29.725 2.51647 27.7274Z" fill="#002FA7"/>
<path fill-rule="evenodd" clip-rule="evenodd" d="M28.4924 25.1701V25.8094V25.9692V26.0491H28.5737H28.7359L31.8207 26.1291V28.8459V30.3641C31.983 30.6836 32.1454 30.9234 32.389 31.1631C32.5512 31.4028 32.7136 31.5627 32.876 31.7225C32.1454 32.1219 31.4148 32.5215 30.6031 32.8412C29.7913 33.2406 28.9795 33.4803 28.0866 33.8C27.2748 34.1196 26.4631 34.3594 25.6512 34.5191C24.9206 34.7588 24.1902 34.9187 23.6218 35.0785L23.5407 35.2383C23.4596 35.3182 23.3783 35.3182 23.3783 35.3981C23.2972 35.478 23.2972 35.478 23.216 35.558C23.216 35.6379 23.1348 35.7178 23.1348 35.7977C23.1348 35.8775 23.1348 35.9574 23.1348 36.0373V36.1172V36.1971V36.2771V36.357V36.4369L23.216 36.5168L23.2972 36.5967L23.3783 36.6766C23.3783 36.6766 23.4596 36.7565 23.5407 36.7565C23.5407 36.7565 23.5407 36.7565 23.6218 36.7565C23.7031 36.7565 23.7031 36.7565 23.7842 36.7565C23.8654 36.7565 23.8654 36.7565 23.9466 36.7565C24.2713 36.6766 24.596 36.6766 24.9206 36.5967C25.2454 36.5168 25.5701 36.5168 25.8948 36.4369C26.2196 36.357 26.5442 36.2771 26.8689 36.1971C27.1936 36.1172 27.5184 36.0373 27.8431 35.9574C28.1677 35.8775 28.4924 35.7178 28.8983 35.6379C29.223 35.558 29.6289 35.3981 29.9536 35.2383C30.3595 35.0785 30.6842 34.9986 31.0901 34.8387C31.496 34.6789 31.9019 34.5191 32.3077 34.3594L32.6325 34.1996L32.9572 34.0397L33.2818 33.8799L33.6066 33.7201L33.9313 33.5603C34.0124 33.4803 34.1748 33.4803 34.256 33.4004L34.4995 33.2406L34.743 33.0809C35.2301 33.3205 35.7983 33.5603 36.2042 33.7201C36.6913 33.9598 37.1784 34.1196 37.6655 34.3594C38.1524 34.5191 38.5583 34.7588 38.9643 34.9187C39.3701 35.0785 39.776 35.2383 40.1818 35.3981C40.5878 35.558 40.9937 35.6379 41.3995 35.7977C41.8054 35.8775 42.1301 36.0373 42.536 36.1172C42.9418 36.1971 43.2665 36.2771 43.6724 36.357C43.9971 36.4369 44.4031 36.5168 44.809 36.5168C44.8901 36.5168 44.8901 36.5168 44.9713 36.5168C45.0525 36.5168 45.0524 36.5168 45.1337 36.5168C45.2148 36.5168 45.2148 36.5168 45.2959 36.4369C45.3772 36.4369 45.3772 36.357 45.4583 36.357L45.5395 36.2771L45.6207 36.1971L45.7019 36.1172L45.783 36.0373V35.9574V35.8775V35.7977V35.7178C45.783 35.6379 45.783 35.558 45.783 35.478C45.783 35.3981 45.783 35.3182 45.7019 35.2383C45.7019 35.1584 45.6207 35.0785 45.5395 35.0785C45.4583 34.9986 45.4583 34.9986 45.3772 34.9187L45.0524 34.8387C44.3219 34.6789 43.5101 34.4393 42.536 34.1196C41.5619 33.8 40.5066 33.4803 39.4513 33.0809C38.396 32.6813 37.4219 32.2019 36.4478 31.6426C35.5548 31.0832 34.6619 30.4439 34.0124 29.8047V24.7707V24.6108V24.5309H33.9313H33.7689L29.0607 24.3711H28.8983H28.8172V24.451V24.6108L28.4924 25.1701Z" fill="#002FA7"/>
<path fill-rule="evenodd" clip-rule="evenodd" d="M35.88 24.7711L35.9611 26.0495V26.2893V26.3691H36.0424H36.2046H36.2859L40.2635 26.1295H40.4259H40.5883V26.0495V25.8897V25.8098L40.507 24.5313V24.4514V24.2916V24.2117H40.3447H40.1823L36.1235 24.4514H35.9611H35.7988L35.88 24.5313V24.6911V24.7711Z" fill="#002FA7"/>
<path fill-rule="evenodd" clip-rule="evenodd" d="M34.4996 40.9119C34.3373 40.9119 34.0937 40.9119 33.9313 40.832C33.6878 40.7522 33.5255 40.7522 33.282 40.5923C33.0385 40.5124 32.8761 40.3526 32.6325 40.2727C32.389 40.1129 32.2266 39.953 31.9832 39.7932C31.7396 39.6334 31.5773 39.3938 31.3337 39.2339C31.0902 38.9942 30.9278 38.7545 30.7655 38.5946C30.6031 38.3549 30.4407 38.1152 30.2784 37.8755C30.116 37.6358 30.0349 37.3961 29.9538 37.2362V37.1563L29.8725 37.0764H29.7914H29.7102L28.4113 37.5559H28.3302H28.249V37.6358V37.7157C28.3302 38.0354 28.4926 38.3549 28.6548 38.6746C28.8172 38.9942 29.0608 39.3139 29.2232 39.6334C29.4667 39.953 29.7102 40.2727 29.9538 40.5124C30.1973 40.832 30.522 41.0717 30.8466 41.3114C31.1713 41.5512 31.4961 41.7909 31.7396 42.0307C32.0643 42.2703 32.389 42.4301 32.7137 42.5899C33.0385 42.7498 33.3631 42.8297 33.6067 42.9096C33.9313 42.9895 34.1749 42.9895 34.4184 42.9895C34.6619 42.9895 34.9866 42.9895 35.2302 42.9096C35.5549 42.8297 35.7984 42.7498 36.1231 42.5899C36.4478 42.4301 36.7725 42.2703 37.0973 42.0307C37.422 41.7909 37.7466 41.5512 38.0713 41.3114C38.3961 41.0717 38.6396 40.7522 38.9643 40.5124C39.2078 40.1928 39.4514 39.953 39.6949 39.6334C39.9384 39.3139 40.1007 38.9942 40.2631 38.6746C40.4255 38.3549 40.5878 38.0354 40.669 37.7157V37.6358V37.5559H40.5878H40.5067L39.2078 37.0764H39.1267H39.0455L38.9643 37.1563V37.2362C38.8832 37.476 38.8019 37.7157 38.6396 37.8755C38.4772 38.1152 38.3149 38.3549 38.1526 38.5946C37.9902 38.8344 37.7466 39.0741 37.5842 39.2339C37.422 39.4736 37.1784 39.6334 36.9349 39.7932C36.6914 39.953 36.529 40.1129 36.2854 40.2727C36.0419 40.4325 35.8796 40.5124 35.6361 40.5923C35.3925 40.6723 35.2302 40.7522 34.9866 40.832C34.9055 40.9119 34.7431 40.9119 34.4996 40.9119Z" fill="#002FA7"/>
</svg>
