<svg width="210" height="65" viewBox="0 0 210 65" fill="none" xmlns="http://www.w3.org/2000/svg">
<path fill-rule="evenodd" clip-rule="evenodd" d="M181.716 55.9581C181.716 56.4896 181.716 57.0211 181.64 57.4767C181.64 57.7804 181.564 58.16 181.564 58.3878C181.564 58.6915 181.488 58.9193 181.488 59.1471C181.412 59.3749 181.412 59.6026 181.336 59.7544C181.336 59.9063 181.26 60.0582 181.184 60.21L181.108 60.5138H180.804H180.5V60.7415V62.4878V62.7915H180.804H181.26H181.488V62.5637L181.564 61.6527H184.529L184.605 62.5637V62.7915H184.833H185.29H185.594V62.4878V60.7415V60.4378H185.29H184.909V55.047V54.7433H184.757H183.237H182.02H181.716H181.412H181.108V55.047V55.6544V55.9581H181.412H181.716ZM182.857 57.4767C182.857 57.0211 182.933 56.4896 182.933 55.9581H183.009H183.769V60.4378H182.324C182.324 60.286 182.4 60.1341 182.4 59.9822C182.476 59.6785 182.552 59.2989 182.628 58.9193C182.78 58.5396 182.78 58.0082 182.857 57.4767Z" fill="white"/>
<path fill-rule="evenodd" clip-rule="evenodd" d="M80.6699 61.3489V55.047V54.7433H80.4418H79.9856H79.8335L79.7575 54.8951L77.6286 58.6156V55.047V54.7433H77.3245H76.6402H76.4121V55.047V61.3489V61.6527H76.6402H77.0964H77.2485L77.3245 61.5008L79.4534 57.7804V61.3489V61.6527H79.7575H80.4418H80.6699V61.3489Z" fill="white"/>
<path fill-rule="evenodd" clip-rule="evenodd" d="M84.3952 57.9323L85.3836 59.9822L85.4597 60.1341H85.6117H85.8398H86.0679L86.144 59.9822L87.1324 57.8563V61.3489V61.6527H87.3605H88.0447H88.3489V61.3489V55.047V54.7433H88.0447H87.4365H87.2844L87.2084 54.8951L85.7638 58.0082L84.3192 54.8951L84.2432 54.7433H84.0151H83.4828H83.1787V55.047V61.3489V61.6527H83.4828H84.0911H84.3952V61.3489V57.9323Z" fill="white"/>
<path fill-rule="evenodd" clip-rule="evenodd" d="M90.8574 55.047V61.3489V61.6527H91.0855H93.9747H94.2028V61.3489V60.7416V60.4378H93.9747H92.0739V58.6915H93.7466H93.9747V58.3878V57.7804V57.5526H93.7466H92.0739V55.9581H93.8987H94.2028V55.6544V55.047V54.7433H93.8987H91.0855H90.8574V55.047Z" fill="white"/>
<path fill-rule="evenodd" clip-rule="evenodd" d="M96.6357 55.047V61.3489V61.6527H96.8638H97.5481H97.8522V61.3489V58.6915H99.601V61.3489V61.6527H99.9051H100.514H100.818V61.3489V55.047V54.7433H100.514H99.9051H99.601V55.047V57.5526H97.8522V55.047V54.7433H97.5481H96.8638H96.6357V55.047Z" fill="white"/>
<path fill-rule="evenodd" clip-rule="evenodd" d="M106.368 57.7804V61.3489V61.6527H106.673H107.357H107.661V61.3489V55.047V54.7433H107.357H106.901H106.749L106.673 54.8951L104.544 58.6156V55.047V54.7433H104.316H103.631H103.327V55.047V61.3489V61.6527H103.631H104.087H104.24L104.316 61.5008L106.368 57.7804Z" fill="white"/>
<path fill-rule="evenodd" clip-rule="evenodd" d="M116.253 57.932H116.025C115.873 57.932 115.797 57.932 115.645 57.8561C115.569 57.8561 115.417 57.7802 115.341 57.7042C115.189 57.5525 115.112 57.3247 115.112 56.945C115.112 56.8691 115.112 56.7172 115.112 56.6413C115.112 56.5654 115.112 56.4894 115.189 56.4135C115.265 56.2617 115.265 56.1858 115.341 56.1099C115.341 56.1099 115.417 56.0339 115.493 56.0339C115.569 56.0339 115.569 55.958 115.645 55.958C115.721 55.958 115.797 55.958 115.797 55.958C115.873 55.958 115.949 55.958 116.025 55.958H116.177H116.253V57.932ZM114.884 58.7673L114.808 58.8432H114.732V58.9192L113.592 61.1969L113.364 61.5766H113.82H114.58H114.732L114.808 61.4247L115.949 58.995L116.177 58.9192V61.3488V61.6524H116.481H117.165H117.469V61.3488V55.1227V54.895L117.241 54.8191C117.165 54.8191 117.013 54.7432 116.937 54.7432C116.861 54.7432 116.709 54.7432 116.633 54.6672C116.557 54.6672 116.405 54.6672 116.329 54.6672C116.253 54.6672 116.101 54.6672 116.025 54.6672C115.873 54.6672 115.721 54.6672 115.645 54.6672C115.493 54.6672 115.417 54.7432 115.265 54.7432C115.113 54.7432 115.036 54.8191 114.884 54.895C114.732 54.9709 114.656 55.0468 114.58 55.1227C114.504 55.1987 114.352 55.3505 114.276 55.4265C114.2 55.5024 114.124 55.6543 114.048 55.8061C113.972 55.958 113.972 56.1099 113.896 56.2616C113.896 56.4135 113.82 56.6413 113.82 56.7932C113.82 57.0969 113.82 57.3247 113.896 57.5525C113.972 57.7802 114.048 58.008 114.2 58.1598C114.352 58.3117 114.504 58.4636 114.656 58.6154L114.884 58.7673Z" fill="white"/>
<path fill-rule="evenodd" clip-rule="evenodd" d="M121.271 58.0841V55.8822H121.423H121.575C121.651 55.8822 121.727 55.8822 121.803 55.8822C121.879 55.8822 121.955 55.8822 122.031 55.9581C122.107 55.9581 122.107 55.9581 122.183 56.034C122.259 56.034 122.259 56.11 122.335 56.11C122.411 56.11 122.411 56.1859 122.411 56.2618C122.411 56.3378 122.487 56.3378 122.487 56.4137C122.487 56.4896 122.563 56.5656 122.563 56.6415C122.563 56.7174 122.563 56.7934 122.563 56.9451C122.563 57.097 122.563 57.1729 122.563 57.3248C122.563 57.4007 122.487 57.4767 122.487 57.5526C122.487 57.6285 122.411 57.7045 122.411 57.7804C122.411 57.8563 122.335 57.8563 122.259 57.9323C122.183 58.0082 122.183 58.0082 122.107 58.0082C122.031 58.0082 122.031 58.0841 121.955 58.0841C121.803 58.0841 121.651 58.16 121.575 58.16H121.499H121.423L121.271 58.0841ZM119.978 55.1229V61.3489V61.6527H120.282H120.966H121.271V61.3489V59.223H121.347H121.423H121.575C121.727 59.223 121.879 59.223 121.955 59.223C122.107 59.223 122.259 59.1471 122.335 59.1471C122.487 59.0711 122.639 59.0711 122.715 58.9952C122.867 58.9193 122.943 58.8433 123.095 58.7674C123.171 58.6915 123.323 58.5396 123.399 58.4637C123.476 58.3118 123.552 58.2359 123.628 58.0841C123.704 57.9323 123.704 57.7804 123.78 57.5526C123.78 57.4007 123.856 57.1729 123.856 56.9451C123.856 56.4896 123.78 56.1859 123.628 55.8822C123.552 55.7303 123.476 55.5784 123.399 55.5026C123.323 55.3507 123.171 55.2748 123.095 55.1989C123.019 55.1229 122.867 55.047 122.715 54.9711C122.563 54.8952 122.487 54.8951 122.335 54.8192C122.107 54.7433 121.803 54.7433 121.575 54.7433C121.499 54.7433 121.347 54.7433 121.271 54.7433C121.119 54.7433 121.042 54.7433 120.966 54.7433C120.814 54.7433 120.738 54.7433 120.662 54.8192C120.586 54.8192 120.434 54.8951 120.358 54.8951L120.13 54.9711V55.1229H119.978Z" fill="white"/>
<path fill-rule="evenodd" clip-rule="evenodd" d="M126.897 58.1598C126.897 57.7042 126.897 57.3247 126.973 57.0209C127.049 56.7172 127.125 56.4894 127.201 56.2616C127.353 55.958 127.657 55.7302 127.962 55.7302C128.038 55.7302 128.114 55.7302 128.19 55.8061C128.266 55.8061 128.342 55.8821 128.418 55.8821C128.494 55.958 128.57 56.0339 128.57 56.1099C128.646 56.1858 128.646 56.2616 128.722 56.4135C128.798 56.4894 128.798 56.6413 128.874 56.7932C128.874 56.945 128.95 57.0969 128.95 57.1728C128.95 57.3247 129.026 57.4765 129.026 57.6283C129.026 57.7802 129.026 57.932 129.026 58.0839C129.026 58.9191 128.95 59.5265 128.722 59.9062C128.57 60.2098 128.266 60.4376 127.962 60.4376C127.886 60.4376 127.81 60.4376 127.734 60.3617C127.657 60.3617 127.581 60.2858 127.505 60.2858C127.429 60.2098 127.353 60.1339 127.353 60.0581C127.277 59.9821 127.277 59.9062 127.201 59.7543C127.125 59.5265 127.049 59.2987 126.973 58.995C126.973 58.8431 126.897 58.5395 126.897 58.1598ZM125.681 58.1598C125.681 58.3876 125.681 58.6914 125.681 58.9191C125.681 59.1469 125.757 59.3747 125.757 59.6025C125.833 60.0581 125.985 60.4376 126.137 60.7413C126.213 60.8932 126.365 61.0451 126.441 61.1969C126.593 61.3488 126.669 61.4246 126.821 61.5006C126.973 61.5765 127.125 61.6524 127.353 61.7284C127.505 61.8043 127.734 61.8043 127.962 61.8043C128.342 61.8043 128.722 61.7284 129.026 61.5765C129.33 61.4246 129.558 61.1969 129.786 60.8932C129.938 60.5895 130.091 60.2098 130.243 59.7543C130.319 59.2987 130.395 58.8432 130.395 58.3117C130.395 58.0839 130.395 57.7802 130.395 57.5524C130.395 57.3247 130.319 57.0969 130.319 56.8691C130.243 56.4135 130.091 56.0339 129.938 55.7302C129.862 55.5783 129.71 55.4265 129.634 55.2746C129.482 55.1227 129.406 55.0468 129.254 54.9709C129.102 54.895 128.95 54.8191 128.722 54.7432C128.57 54.6672 128.342 54.6672 128.114 54.6672C127.734 54.6672 127.353 54.7432 127.049 54.895C126.745 55.0468 126.517 55.2746 126.289 55.5783C126.137 55.8821 125.985 56.2616 125.833 56.7172C125.681 57.1728 125.681 57.6283 125.681 58.1598Z" fill="white"/>
<path fill-rule="evenodd" clip-rule="evenodd" d="M132.523 58.16C132.523 58.4637 132.523 58.7674 132.599 58.9952C132.599 59.223 132.676 59.5266 132.752 59.7544C132.828 59.9822 132.904 60.21 132.98 60.3619C133.056 60.5138 133.132 60.7415 133.284 60.8933C133.36 61.0452 133.512 61.1971 133.664 61.273C133.816 61.3489 133.968 61.5008 134.12 61.5767C134.272 61.6527 134.424 61.7286 134.576 61.7286C134.728 61.7286 134.88 61.8045 135.109 61.8045C135.261 61.8045 135.413 61.8045 135.489 61.8045C135.641 61.8045 135.717 61.8045 135.869 61.7286C136.021 61.7286 136.097 61.6527 136.249 61.5767C136.325 61.5008 136.477 61.4249 136.553 61.3489L136.705 61.1971L136.629 61.0452L136.477 60.5138L136.401 60.1341L136.097 60.3619C136.021 60.3619 136.021 60.4378 135.945 60.4378C135.869 60.4378 135.793 60.5138 135.717 60.5138C135.641 60.5138 135.565 60.5897 135.489 60.5897C135.413 60.5897 135.337 60.5897 135.261 60.5897C135.032 60.5897 134.88 60.5138 134.728 60.4378C134.576 60.3619 134.424 60.21 134.272 60.0582C134.12 59.8304 134.044 59.6026 133.968 59.2989C133.892 58.9952 133.892 58.6155 133.892 58.2359C133.892 57.7804 133.968 57.4007 134.044 57.097C134.12 56.9451 134.12 56.7934 134.196 56.7174C134.272 56.5656 134.272 56.4896 134.348 56.4137C134.424 56.3378 134.5 56.2618 134.576 56.1859C134.652 56.11 134.728 56.11 134.804 56.034C134.88 56.034 134.956 55.9581 135.032 55.9581C135.109 55.9581 135.185 55.9581 135.261 55.9581C135.337 55.9581 135.489 55.9581 135.565 55.9581C135.641 55.9581 135.717 55.9581 135.793 55.9581C135.869 55.9581 135.945 55.9581 136.021 56.034C136.097 56.034 136.097 56.11 136.173 56.11L136.477 56.2618L136.553 55.8822L136.705 55.2748L136.781 55.047L136.553 54.9711C136.477 54.9711 136.401 54.8951 136.325 54.8951C136.249 54.8951 136.173 54.8192 136.021 54.8192C135.793 54.7433 135.565 54.7433 135.261 54.7433C135.109 54.7433 134.956 54.7433 134.804 54.8192C134.652 54.8192 134.5 54.8952 134.348 54.9711C134.196 55.047 134.044 55.1229 133.892 55.1989C133.74 55.2748 133.664 55.4267 133.512 55.5784C133.36 55.7303 133.284 55.8822 133.208 56.11C133.132 56.2618 133.056 56.4896 132.98 56.7174C132.904 56.9451 132.828 57.1729 132.828 57.4767C132.523 57.6285 132.523 57.8563 132.523 58.16Z" fill="white"/>
<path fill-rule="evenodd" clip-rule="evenodd" d="M146.818 58.6914L147.198 57.4006L147.274 57.0969L147.35 57.4006L147.73 58.6914V58.8432H147.578H146.894H146.742L146.818 58.6914ZM146.818 54.895L144.917 61.2729L144.841 61.6524H145.221H145.905H146.133L146.209 61.4247L146.666 59.8303H148.034L148.49 61.4247L148.566 61.6524H148.794H149.479H149.859L149.783 61.2729L147.882 54.895L147.806 54.6672H147.502H147.122H146.894L146.818 54.895Z" fill="white"/>
<path fill-rule="evenodd" clip-rule="evenodd" d="M152.824 57.5525V55.882H152.976H153.204C153.356 55.882 153.432 55.882 153.508 55.958C153.584 55.958 153.584 55.958 153.66 56.0339L153.736 56.1098L153.812 56.1858C153.812 56.1858 153.888 56.2617 153.888 56.3376C153.964 56.4136 153.964 56.5654 153.964 56.7173C153.964 56.945 153.888 57.1728 153.812 57.3247C153.736 57.4006 153.66 57.4765 153.584 57.5525C153.508 57.6284 153.432 57.6284 153.356 57.7043H153.28H153.128H152.976H152.824V57.5525ZM153.204 58.6914C153.28 58.6914 153.356 58.6914 153.432 58.6914C153.508 58.6914 153.584 58.6914 153.66 58.6914C153.736 58.6914 153.736 58.6914 153.812 58.7673C153.888 58.7673 153.888 58.8432 153.964 58.8432C154.04 58.8432 154.04 58.9192 154.04 58.9192C154.04 58.9951 154.116 58.9951 154.116 59.071C154.193 59.147 154.193 59.3748 154.193 59.5265C154.193 59.6024 154.193 59.6784 154.193 59.7543C154.193 59.8302 154.193 59.9062 154.116 59.9062C154.116 59.9821 154.04 59.9821 154.04 60.058C154.04 60.134 153.964 60.134 153.964 60.2099C153.888 60.2099 153.888 60.2858 153.812 60.2858C153.736 60.2858 153.736 60.3618 153.66 60.3618C153.584 60.4377 153.432 60.4377 153.28 60.4377H153.204H153.128H153.052H152.976H152.9V58.6154H153.204V58.6914ZM151.607 55.1228V61.3488V61.5007L151.836 61.5766C151.912 61.5766 151.988 61.5766 151.988 61.6525C152.064 61.6525 152.14 61.6525 152.216 61.6525H152.444H152.672C152.824 61.6525 152.9 61.6525 153.052 61.6525H153.356C153.508 61.6525 153.66 61.6525 153.736 61.6525C153.888 61.6525 154.04 61.5766 154.116 61.5766C154.269 61.5007 154.345 61.5007 154.497 61.4247C154.649 61.3488 154.725 61.2729 154.801 61.1969C154.877 61.121 155.029 60.9691 155.105 60.8932C155.181 60.7414 155.257 60.6655 155.333 60.5136C155.409 60.3618 155.409 60.2099 155.485 60.058C155.485 59.9062 155.561 59.7543 155.561 59.5265C155.561 59.3748 155.561 59.2988 155.561 59.147C155.561 58.9951 155.485 58.9192 155.485 58.7673C155.485 58.6914 155.409 58.5395 155.333 58.4636C155.257 58.3876 155.257 58.3117 155.181 58.2358C155.105 58.1598 155.029 58.084 154.953 58.0081C154.877 57.9321 154.877 57.9321 154.801 57.8562C154.877 57.7803 154.953 57.7043 154.953 57.6284C155.029 57.5525 155.029 57.4765 155.105 57.4006C155.181 57.3247 155.181 57.2487 155.257 57.1728C155.257 57.0969 155.333 57.0209 155.333 56.945C155.333 56.8692 155.333 56.7932 155.409 56.7173C155.409 56.6414 155.409 56.5654 155.409 56.4895C155.409 56.3376 155.409 56.1858 155.333 56.0339C155.333 55.882 155.257 55.7302 155.181 55.6542C155.105 55.5025 155.029 55.4266 154.953 55.3506C154.877 55.2747 154.801 55.1988 154.649 55.1228C154.421 54.971 154.269 54.895 153.964 54.895C153.888 54.895 153.736 54.895 153.66 54.8191C153.508 54.8191 153.432 54.8191 153.356 54.8191C153.204 54.8191 153.052 54.8191 152.9 54.8191C152.748 54.8191 152.596 54.8191 152.52 54.8191C152.368 54.8191 152.292 54.8191 152.14 54.895C151.988 54.895 151.912 54.895 151.836 54.971L151.607 55.0469V55.1228Z" fill="white"/>
<path fill-rule="evenodd" clip-rule="evenodd" d="M159.135 54.895L157.234 61.2729L157.158 61.6524H157.538H158.222H158.45L158.526 61.4247L158.982 59.8303H160.351L160.807 61.4247L160.883 61.6524H161.111H161.796H162.176L162.1 61.2729L160.199 54.895L160.123 54.6672H159.895H159.515H159.287L159.135 54.895ZM159.591 57.0969L159.667 57.4006L160.047 58.6914V58.8432H159.895H159.211H159.059V58.6914L159.439 57.4006L159.591 57.0969Z" fill="white"/>
<path fill-rule="evenodd" clip-rule="evenodd" d="M167.422 55.047V61.3489V61.6527H167.726H168.335H168.639V61.3489V57.9323L169.627 59.9822L169.703 60.1341H169.855H170.083H170.312L170.388 59.9822L171.376 57.8563V61.3489V61.6527H171.604H172.288H172.593V61.3489V55.047V54.7433H172.288H171.68H171.528L171.452 54.8951L170.007 58.0082L168.563 54.8951L168.487 54.7433H168.259H167.726H167.422V55.047Z" fill="white"/>
<path fill-rule="evenodd" clip-rule="evenodd" d="M174.569 55.1229L176.394 59.6785C176.394 59.8304 176.318 59.9063 176.318 60.0582C176.318 60.21 176.242 60.286 176.242 60.3619C176.242 60.4378 176.166 60.4378 176.166 60.4378H176.09H176.014C176.014 60.4378 176.014 60.4378 175.938 60.4378C175.938 60.4378 175.862 60.4378 175.862 60.3619L175.558 60.1341L175.406 60.5138L175.177 61.1211L175.101 61.3489L175.253 61.5008C175.33 61.5767 175.406 61.5767 175.406 61.5767C175.482 61.5767 175.558 61.6527 175.634 61.6527C175.786 61.6527 175.938 61.7286 176.09 61.7286C176.166 61.7286 176.318 61.7286 176.394 61.6527C176.47 61.6527 176.622 61.5767 176.698 61.5008C176.774 61.4249 176.85 61.3489 176.926 61.273C177.002 61.1971 177.078 61.1211 177.078 60.9693C177.154 60.8933 177.154 60.7416 177.23 60.6656C177.306 60.5138 177.306 60.4378 177.382 60.286C177.458 59.9822 177.61 59.6785 177.763 59.223L179.055 55.1229L179.131 54.7433H178.751H178.067H177.915L177.839 54.9711L177.002 57.9323L175.862 54.9711L175.786 54.8192H175.634H174.873H174.493L174.569 55.1229Z" fill="white"/>
<path fill-rule="evenodd" clip-rule="evenodd" d="M189.015 58.0841V55.8822H189.167H189.319C189.395 55.8822 189.472 55.8822 189.548 55.8822C189.624 55.8822 189.7 55.8822 189.776 55.9581C189.852 55.9581 189.852 55.9581 189.928 56.034C190.004 56.034 190.004 56.11 190.08 56.11C190.156 56.11 190.156 56.1859 190.156 56.2618C190.156 56.3378 190.232 56.3378 190.232 56.4137C190.232 56.4896 190.308 56.5656 190.308 56.6415C190.308 56.7174 190.308 56.7934 190.308 56.9451C190.308 57.097 190.308 57.1729 190.308 57.3248C190.308 57.4007 190.232 57.4767 190.232 57.5526C190.232 57.6285 190.156 57.7045 190.156 57.7804C190.156 57.8563 190.08 57.8563 190.004 57.9323C189.928 58.0082 189.928 58.0082 189.852 58.0082C189.776 58.0082 189.776 58.0841 189.7 58.0841C189.548 58.0841 189.395 58.16 189.319 58.16H189.243H189.167L189.015 58.0841ZM187.799 55.1229V61.3489V61.6527H188.103H188.787H189.091V61.3489V59.223H189.167H189.243H189.395C189.548 59.223 189.7 59.223 189.776 59.223C189.928 59.223 190.08 59.1471 190.156 59.1471C190.308 59.0711 190.46 59.0711 190.536 58.9952C190.688 58.9193 190.764 58.8433 190.916 58.7674C190.992 58.6915 191.144 58.5396 191.22 58.4637C191.296 58.3118 191.372 58.2359 191.448 58.0841C191.524 57.9323 191.524 57.7804 191.6 57.5526C191.6 57.4007 191.676 57.1729 191.676 56.9451C191.676 56.4896 191.6 56.1859 191.448 55.8822C191.372 55.7303 191.296 55.5784 191.22 55.5026C191.144 55.3507 190.992 55.2748 190.916 55.1989C190.84 55.1229 190.688 55.047 190.536 54.9711C190.384 54.8952 190.308 54.8951 190.156 54.8192C189.928 54.7433 189.624 54.7433 189.395 54.7433C189.319 54.7433 189.167 54.7433 189.091 54.7433C188.939 54.7433 188.863 54.7433 188.787 54.7433C188.635 54.7433 188.559 54.7433 188.483 54.8192C188.407 54.8192 188.255 54.8951 188.179 54.8951L187.951 54.9711V55.1229H187.799Z" fill="white"/>
<path fill-rule="evenodd" clip-rule="evenodd" d="M194.717 58.1598C194.717 57.7042 194.717 57.3247 194.794 57.0209C194.87 56.7172 194.946 56.4894 195.022 56.2616C195.174 55.958 195.478 55.7302 195.782 55.7302C195.858 55.7302 195.934 55.7302 196.01 55.8061C196.086 55.8061 196.162 55.8821 196.238 55.8821C196.314 55.958 196.39 56.0339 196.39 56.1099C196.466 56.1858 196.466 56.2616 196.542 56.4135C196.618 56.4894 196.618 56.6413 196.694 56.7932C196.694 56.945 196.77 57.0969 196.77 57.1728C196.77 57.3247 196.846 57.4765 196.846 57.6283C196.846 57.7802 196.846 57.932 196.846 58.0839C196.846 58.9191 196.77 59.5265 196.542 59.9062C196.39 60.2098 196.086 60.4376 195.782 60.4376C195.706 60.4376 195.63 60.4376 195.554 60.3617C195.478 60.3617 195.402 60.2858 195.326 60.2858C195.25 60.2098 195.174 60.1339 195.174 60.0581C195.098 59.9821 195.098 59.9062 195.022 59.7543C194.946 59.5265 194.87 59.2987 194.794 58.995C194.794 58.8431 194.717 58.5395 194.717 58.1598ZM193.501 58.1598C193.501 58.3876 193.501 58.6914 193.501 58.9191C193.501 59.1469 193.577 59.3747 193.577 59.6025C193.653 60.0581 193.805 60.4376 193.957 60.7413C194.033 60.8932 194.185 61.0451 194.261 61.1969C194.413 61.3488 194.489 61.4246 194.641 61.5006C194.794 61.5765 194.946 61.6524 195.174 61.7284C195.326 61.8043 195.554 61.8043 195.782 61.8043C196.162 61.8043 196.542 61.7284 196.846 61.5765C197.151 61.4246 197.379 61.1969 197.607 60.8932C197.759 60.5895 197.911 60.2098 198.063 59.7543C198.139 59.2987 198.215 58.8432 198.215 58.3117C198.215 58.0839 198.215 57.7802 198.215 57.5524C198.215 57.3247 198.139 57.0969 198.139 56.8691C198.063 56.4135 197.911 56.0339 197.759 55.7302C197.683 55.5783 197.531 55.4265 197.455 55.2746C197.303 55.1227 197.227 55.0468 197.074 54.9709C196.922 54.895 196.77 54.8191 196.542 54.7432C196.39 54.6672 196.162 54.6672 195.934 54.6672C195.554 54.6672 195.174 54.7432 194.87 54.895C194.565 55.0468 194.337 55.2746 194.109 55.5783C193.957 55.8821 193.805 56.2616 193.653 56.7172C193.501 57.1728 193.501 57.6283 193.501 58.1598Z" fill="white"/>
<path fill-rule="evenodd" clip-rule="evenodd" d="M200.496 55.047V61.3489V61.6527H200.8H201.484H201.713V61.3489V55.9581H203.537H203.841V55.6544V55.047V54.7433H203.537H200.8H200.496V55.047Z" fill="white"/>
<path fill-rule="evenodd" clip-rule="evenodd" d="M206.579 58.1598C206.579 57.7042 206.579 57.3247 206.655 57.0209C206.731 56.7172 206.807 56.4894 206.883 56.2616C207.035 55.958 207.339 55.7302 207.643 55.7302C207.719 55.7302 207.795 55.7302 207.871 55.8061C207.947 55.8061 208.023 55.8821 208.099 55.8821C208.175 55.958 208.251 56.0339 208.251 56.1099C208.327 56.1858 208.327 56.2616 208.403 56.4135C208.479 56.4894 208.479 56.6413 208.556 56.7932C208.556 56.945 208.632 57.0969 208.632 57.1728C208.632 57.3247 208.708 57.4765 208.708 57.6283C208.708 57.7802 208.708 57.932 208.708 58.0839C208.708 58.9191 208.632 59.5265 208.403 59.9062C208.251 60.2098 207.947 60.4376 207.643 60.4376C207.567 60.4376 207.491 60.4376 207.415 60.3617C207.339 60.3617 207.263 60.2858 207.187 60.2858C207.111 60.2098 207.035 60.1339 207.035 60.0581C206.959 59.9821 206.959 59.9062 206.883 59.7543C206.807 59.5265 206.731 59.2987 206.655 58.995C206.579 58.8431 206.579 58.5395 206.579 58.1598ZM205.286 58.9191C205.286 59.1469 205.362 59.3747 205.362 59.6025C205.438 60.0581 205.59 60.4376 205.742 60.7413C205.818 60.8932 205.97 61.0451 206.046 61.1969C206.199 61.3488 206.275 61.4246 206.427 61.5006C206.579 61.5765 206.731 61.6524 206.959 61.7284C207.111 61.8043 207.339 61.8043 207.567 61.8043C207.947 61.8043 208.327 61.7284 208.632 61.5765C208.936 61.4246 209.164 61.1969 209.392 60.8932C209.544 60.5895 209.696 60.2098 209.848 59.7543C209.924 59.2987 210 58.8432 210 58.3117C210 58.0839 210 57.7802 210 57.5524C210 57.3247 209.924 57.0969 209.924 56.8691C209.848 56.4135 209.696 56.0339 209.544 55.7302C209.468 55.5783 209.316 55.4265 209.24 55.2746C209.088 55.1227 209.012 55.0468 208.86 54.9709C208.708 54.895 208.556 54.8191 208.327 54.7432C208.175 54.6672 207.947 54.6672 207.719 54.6672C207.339 54.6672 206.959 54.7432 206.655 54.895C206.351 55.0468 206.122 55.2746 205.894 55.5783C205.742 55.8821 205.59 56.2616 205.438 56.7172C205.362 57.1728 205.286 57.6283 205.286 58.1598C205.286 58.4636 205.286 58.6914 205.286 58.9191Z" fill="white"/>
<path fill-rule="evenodd" clip-rule="evenodd" d="M139.594 55.9581V56.11C139.594 56.4137 139.594 56.7174 139.518 57.0211C139.518 57.3248 139.518 57.5526 139.442 57.7804C139.442 58.0082 139.366 58.2359 139.366 58.4637C139.366 58.6915 139.29 58.8433 139.29 58.9952C139.29 59.1471 139.214 59.2989 139.214 59.4508C139.214 59.6026 139.138 59.6785 139.138 59.8304C139.138 59.9063 139.062 59.9822 139.062 60.0582C139.062 60.1341 138.986 60.21 138.986 60.286C138.986 60.286 138.986 60.3619 138.91 60.3619C138.91 60.3619 138.91 60.3619 138.834 60.3619H138.758L138.454 60.286L138.378 60.5897L138.302 61.1971V61.4249L138.454 61.5008C138.606 61.5767 138.834 61.6527 138.986 61.6527C139.138 61.6527 139.214 61.6527 139.366 61.5767C139.518 61.5008 139.594 61.5008 139.67 61.3489C139.822 61.1971 139.974 60.9693 140.127 60.5897C140.203 60.3619 140.279 60.0582 140.355 59.7544C140.431 59.4507 140.431 59.0711 140.507 58.6915C140.583 58.3118 140.583 57.8563 140.583 57.3248C140.583 56.8692 140.659 56.4137 140.659 55.9581H140.735H141.495V61.3489V61.6527H141.799H142.484H142.788V61.3489V55.047V54.7433H142.484H140.963H139.898H139.594H139.29H138.986V55.047V55.6544V55.9581H139.29H139.594Z" fill="white"/>
<path fill-rule="evenodd" clip-rule="evenodd" d="M180.727 2.27782C180.347 2.27782 180.195 2.2019 180.195 1.82227H178.827C178.827 2.65745 179.511 3.56858 180.727 3.56858C181.868 3.56858 182.628 2.73339 182.628 1.82227H181.26C181.26 2.2019 181.108 2.27782 180.727 2.27782Z" fill="white"/>
<path fill-rule="evenodd" clip-rule="evenodd" d="M111.387 22.9297C111.387 23.765 111.311 24.4483 111.311 25.1317C111.234 25.5872 111.234 26.0428 111.158 26.4984C111.082 26.8779 111.082 27.2576 111.006 27.5613C110.93 27.865 110.854 28.1687 110.854 28.3965C110.778 28.6243 110.778 28.8521 110.702 29.0039L110.55 29.3835H110.094H109.714V29.7632V32.3447V32.7243H110.094H110.778H111.158V32.3447L111.311 31.0539H115.644L115.796 32.3447V32.7243H116.177H116.861H117.241V32.3447V29.7632V29.3835H116.861H116.329V21.639V21.2594H115.948H113.744H111.767H111.387H110.93H110.55V21.639V22.5502V22.9297H110.93H111.387ZM112.983 25.1317C113.059 24.4483 113.059 23.689 113.059 22.9297H113.211H114.352V29.3835H112.299C112.375 29.2317 112.375 29.0039 112.451 28.7761C112.527 28.3205 112.679 27.7891 112.755 27.1816C112.907 26.6502 112.983 25.9668 112.983 25.1317Z" fill="white"/>
<path fill-rule="evenodd" clip-rule="evenodd" d="M78.1608 8.42794V4.85937V4.47974H77.7807H76.7923H76.4121V4.85937V13.9705V14.3502H76.7923H77.7807H78.1608V13.9705V10.1742H80.7459V13.9705V14.3502H81.1261H82.1145H82.4947V13.9705V4.85937V4.47974H82.1145H81.1261H80.7459V4.85937V8.42794H78.1608Z" fill="white"/>
<path fill-rule="evenodd" clip-rule="evenodd" d="M87.7406 10.7816C87.6646 10.3261 87.6646 9.87054 87.6646 9.41497C87.6646 8.80756 87.7406 8.27607 87.8167 7.82052C87.8927 7.36495 87.9687 7.06125 88.1208 6.75754C88.3489 6.30198 88.729 5.99827 89.2613 5.99827C89.4133 5.99827 89.4894 5.99827 89.6414 6.0742C89.7175 6.0742 89.8695 6.15013 89.9456 6.22605C90.0216 6.30198 90.1736 6.37791 90.2497 6.52976C90.3257 6.68162 90.4017 6.75754 90.4778 6.9094C90.5538 7.06125 90.6298 7.2131 90.6298 7.44089C90.7059 7.66866 90.7059 7.82052 90.7819 8.0483C90.7819 8.27607 90.8579 8.50385 90.8579 8.73164C90.8579 8.95942 90.8579 9.1872 90.8579 9.41497C90.8579 10.6298 90.7059 11.5409 90.4017 12.0724C90.1737 12.528 89.7935 12.8317 89.2613 12.8317C89.1092 12.8317 89.0332 12.8317 88.8811 12.7558C88.8051 12.7558 88.653 12.6798 88.577 12.6039C88.501 12.528 88.3489 12.452 88.2729 12.3002C88.1968 12.1483 88.1208 12.0724 88.0448 11.9206C87.9687 11.5409 87.8167 11.2372 87.7406 10.7816ZM85.8398 9.41497C85.8398 9.79461 85.8398 10.0983 85.9159 10.478C85.9159 10.7816 85.9919 11.1613 86.0679 11.465C86.22 12.0724 86.3721 12.6039 86.6762 13.0595C86.8283 13.2873 86.9803 13.515 87.1324 13.6669C87.2844 13.8187 87.5125 13.9706 87.7406 14.1224C87.9687 14.2743 88.1968 14.3502 88.501 14.4262C88.729 14.5021 89.0332 14.5021 89.3373 14.5021C89.9456 14.5021 90.4017 14.3502 90.8579 14.1224C91.3141 13.8947 91.6943 13.515 91.9224 13.0595C92.2265 12.6039 92.3786 12.0724 92.5306 11.465C92.6827 10.8575 92.7587 10.1743 92.7587 9.33905C92.7587 8.95942 92.7587 8.57979 92.6827 8.27607C92.6827 7.97236 92.6067 7.59273 92.5306 7.28903C92.3786 6.68162 92.2265 6.15013 91.9224 5.69456C91.7703 5.46679 91.6183 5.23901 91.4662 5.08715C91.3141 4.9353 91.086 4.78344 90.8579 4.63159C90.6298 4.47974 90.4017 4.40381 90.0976 4.32789C89.8695 4.25195 89.5654 4.25195 89.2613 4.25195C88.653 4.25195 88.1968 4.40381 87.7406 4.63159C87.2844 4.85937 86.9043 5.23901 86.6762 5.69456C86.3721 6.15013 86.22 6.68162 86.0679 7.28903C85.9159 7.89644 85.8398 8.57978 85.8398 9.41497Z" fill="white"/>
<path fill-rule="evenodd" clip-rule="evenodd" d="M98.6134 8.4278H98.5374H98.3093H98.0812H97.9291H97.7771V6.07407H97.8531H98.1572H98.4613C98.6134 6.07407 98.7655 6.07407 98.9175 6.15C98.9936 6.15 99.0696 6.22593 99.0696 6.22593C99.1456 6.22593 99.1456 6.30186 99.2217 6.30186C99.2977 6.30186 99.2977 6.37778 99.2977 6.4537C99.2977 6.52964 99.3737 6.52964 99.3737 6.60556C99.4498 6.75741 99.4498 6.90927 99.4498 7.21297C99.4498 7.51668 99.3737 7.82039 99.2217 8.04817C99.1456 8.20003 98.9936 8.27595 98.9175 8.35188C98.8415 8.35188 98.6894 8.4278 98.6134 8.4278ZM98.2332 10.0982C98.3093 10.0982 98.4613 10.0982 98.5374 10.0982C98.6134 10.0982 98.7655 10.0982 98.8415 10.1741C98.9175 10.1741 98.9936 10.2501 99.0696 10.2501C99.1456 10.2501 99.2217 10.326 99.2977 10.326C99.3737 10.4019 99.3737 10.4019 99.4498 10.4779C99.5258 10.5538 99.5258 10.6297 99.6018 10.7057C99.6778 10.8574 99.7539 11.0852 99.7539 11.3889C99.7539 11.5408 99.7539 11.6167 99.7539 11.6927C99.7539 11.7686 99.6779 11.8445 99.6779 11.9205C99.6779 11.9964 99.6018 12.0722 99.5258 12.1482C99.4497 12.2241 99.4498 12.3 99.3737 12.3C99.2977 12.376 99.2217 12.376 99.2217 12.4519C99.1456 12.5278 99.0696 12.5278 98.9936 12.5278C98.8415 12.6038 98.6894 12.6038 98.4613 12.6038H98.3093H98.1572H98.0051H97.8531H97.7771V10.0223H98.2332V10.0982ZM96.0283 4.93517V13.8945V14.1983L96.3324 14.2742C96.4085 14.2742 96.4845 14.3501 96.6366 14.3501C96.7126 14.3501 96.7886 14.3501 96.9407 14.4261H97.2448H97.549C97.7771 14.4261 97.9291 14.4261 98.0812 14.4261H98.5374C98.7655 14.4261 98.9175 14.4261 99.1456 14.3501C99.3737 14.3501 99.5258 14.2742 99.7539 14.1983C99.9059 14.1223 100.134 14.0464 100.286 13.9705C100.438 13.8945 100.59 13.7427 100.742 13.6667C100.894 13.5149 101.046 13.363 101.122 13.2112C101.275 13.0594 101.351 12.8316 101.427 12.6797C101.503 12.4519 101.579 12.3 101.655 11.9964C101.731 11.7686 101.731 11.5408 101.731 11.2371C101.731 11.0093 101.731 10.8574 101.731 10.7057C101.731 10.5538 101.655 10.326 101.579 10.2501C101.503 10.0982 101.503 9.94634 101.427 9.87041C101.351 9.71856 101.275 9.64264 101.198 9.49078C101.122 9.41485 101.046 9.263 100.894 9.18707C100.818 9.11115 100.742 9.03521 100.666 9.03521C100.742 8.95929 100.894 8.80744 100.97 8.73151C101.046 8.65558 101.122 8.50374 101.198 8.4278C101.275 8.27595 101.351 8.20003 101.351 8.04817C101.427 7.89631 101.427 7.82039 101.503 7.66854C101.503 7.51668 101.579 7.44076 101.579 7.2889C101.579 7.13705 101.579 7.06113 101.579 6.90927C101.579 6.68149 101.579 6.4537 101.503 6.22593C101.427 5.99815 101.427 5.77037 101.275 5.61851C101.198 5.46666 101.122 5.3148 100.97 5.16295C100.818 5.0111 100.742 4.93517 100.59 4.78331C100.286 4.63146 99.982 4.47961 99.6779 4.40368C99.5258 4.40368 99.3737 4.32776 99.2217 4.32776C99.0696 4.32776 98.9175 4.32776 98.7655 4.32776C98.5374 4.32776 98.3853 4.32776 98.1572 4.32776C97.9291 4.32776 97.777 4.32776 97.625 4.40368C97.4729 4.40368 97.2448 4.47961 97.0928 4.47961C96.9407 4.47961 96.7886 4.55554 96.6366 4.55554L96.3324 4.63146V4.93517H96.0283Z" fill="white"/>
<path fill-rule="evenodd" clip-rule="evenodd" d="M104.848 4.85937V13.9705V14.3502H105.228H106.216H106.672V13.9705V6.15012H109.258H109.638V5.77049V4.85937V4.47974H109.258H105.228H104.848V4.85937Z" fill="white"/>
<path fill-rule="evenodd" clip-rule="evenodd" d="M113.668 10.7816C113.592 10.3261 113.592 9.87054 113.592 9.41497C113.592 8.80756 113.668 8.27607 113.744 7.82052C113.82 7.36495 113.896 7.06125 114.048 6.75754C114.276 6.30198 114.656 5.99827 115.188 5.99827C115.34 5.99827 115.416 5.99827 115.569 6.0742C115.645 6.0742 115.797 6.15013 115.873 6.22605C115.949 6.30198 116.101 6.37791 116.177 6.52976C116.253 6.68162 116.329 6.75754 116.405 6.9094C116.481 7.06125 116.557 7.2131 116.557 7.44089C116.633 7.66866 116.633 7.82052 116.709 8.0483C116.709 8.27607 116.785 8.50385 116.785 8.73164C116.785 8.95942 116.785 9.1872 116.785 9.41497C116.785 10.6298 116.633 11.5409 116.329 12.0724C116.101 12.528 115.721 12.8317 115.188 12.8317C115.036 12.8317 114.96 12.8317 114.808 12.7558C114.732 12.7558 114.58 12.6798 114.504 12.6039C114.428 12.528 114.276 12.452 114.2 12.3002C114.124 12.1483 114.048 12.0724 113.972 11.9206C113.82 11.5409 113.744 11.2372 113.668 10.7816ZM111.767 10.478C111.767 10.7816 111.843 11.1613 111.919 11.465C112.071 12.0724 112.223 12.6039 112.527 13.0595C112.679 13.2873 112.831 13.515 112.983 13.6669C113.136 13.8187 113.364 13.9706 113.592 14.1224C113.82 14.2743 114.048 14.3502 114.352 14.4262C114.58 14.5021 114.884 14.5021 115.188 14.5021C115.797 14.5021 116.253 14.3502 116.709 14.1224C117.165 13.8947 117.545 13.515 117.773 13.0595C118.078 12.6039 118.23 12.0724 118.382 11.465C118.534 10.8575 118.61 10.1743 118.61 9.33905C118.61 8.95942 118.61 8.57979 118.534 8.27607C118.534 7.97236 118.458 7.59273 118.382 7.28903C118.23 6.68162 118.078 6.15013 117.773 5.69456C117.621 5.46679 117.469 5.23901 117.317 5.08715C117.165 4.9353 116.937 4.78344 116.709 4.63159C116.481 4.47974 116.253 4.40381 115.949 4.32789C115.721 4.25195 115.416 4.25195 115.112 4.25195C114.504 4.25195 114.048 4.40381 113.592 4.63159C113.136 4.85937 112.755 5.23901 112.527 5.69456C112.223 6.15013 112.071 6.68162 111.919 7.28903C111.767 7.89644 111.691 8.57978 111.691 9.41497C111.767 9.79461 111.767 10.0983 111.767 10.478Z" fill="white"/>
<path fill-rule="evenodd" clip-rule="evenodd" d="M123.704 9.26299V6.07407H123.932H124.16C124.236 6.07407 124.388 6.07407 124.464 6.07407C124.54 6.07407 124.616 6.07407 124.768 6.15C124.844 6.15 124.92 6.22593 124.996 6.22593C125.072 6.22593 125.148 6.30185 125.148 6.37778C125.224 6.4537 125.224 6.4537 125.3 6.52964C125.376 6.60556 125.376 6.68148 125.452 6.75741C125.452 6.83334 125.528 6.98519 125.528 7.06113C125.528 7.21297 125.528 7.36483 125.528 7.51668C125.528 7.74446 125.528 7.89631 125.528 8.04817C125.528 8.20003 125.452 8.35188 125.452 8.4278C125.376 8.50373 125.376 8.65558 125.3 8.73151C125.224 8.80744 125.224 8.88336 125.148 8.95929C125.072 9.03521 124.996 9.03521 124.92 9.11115C124.844 9.18707 124.768 9.18707 124.692 9.18707C124.54 9.26299 124.312 9.26299 124.084 9.26299H123.932H123.856H123.704ZM121.879 4.93517V13.8945V14.2742H122.259H123.247H123.628V13.8945V10.8574H123.78H123.932H124.084C124.312 10.8574 124.464 10.8574 124.692 10.7815C124.92 10.7815 125.072 10.7057 125.3 10.6297C125.528 10.5538 125.68 10.4779 125.833 10.4019C125.985 10.326 126.213 10.1741 126.365 10.0223C126.517 9.87041 126.669 9.71856 126.821 9.5667C126.973 9.41485 127.049 9.18707 127.125 8.95929C127.201 8.73151 127.277 8.50373 127.353 8.27595C127.429 8.04817 127.429 7.74446 127.429 7.44076C127.429 6.83334 127.353 6.30185 127.125 5.92221C127.049 5.69444 126.897 5.54258 126.821 5.39074C126.669 5.23888 126.517 5.08703 126.365 4.93517C126.213 4.78332 126.061 4.70739 125.833 4.63146C125.604 4.55554 125.452 4.55554 125.224 4.47961C124.844 4.40368 124.464 4.32776 124.084 4.32776C123.932 4.32776 123.78 4.32776 123.628 4.32776C123.476 4.32776 123.324 4.32776 123.171 4.32776C123.019 4.32776 122.867 4.32776 122.715 4.40368C122.563 4.40368 122.411 4.47961 122.259 4.47961L121.955 4.55554V4.93517H121.879Z" fill="white"/>
<path fill-rule="evenodd" clip-rule="evenodd" d="M131.915 9.41497C131.915 8.80756 131.991 8.27607 132.067 7.82052C132.143 7.36495 132.219 7.06125 132.371 6.75754C132.599 6.30198 132.98 5.99827 133.512 5.99827C133.664 5.99827 133.74 5.99827 133.892 6.0742C133.968 6.0742 134.12 6.15013 134.196 6.22605C134.272 6.30198 134.424 6.37791 134.5 6.52976C134.576 6.68162 134.652 6.75754 134.728 6.9094C134.804 7.06125 134.88 7.2131 134.88 7.44089C134.956 7.66866 134.956 7.82052 135.032 8.0483C135.032 8.27607 135.108 8.50385 135.108 8.73164C135.108 8.95942 135.108 9.1872 135.108 9.41497C135.108 10.6298 134.956 11.5409 134.652 12.0724C134.424 12.528 134.044 12.8317 133.512 12.8317C133.36 12.8317 133.284 12.8317 133.132 12.7558C133.056 12.7558 132.904 12.6798 132.827 12.6039C132.751 12.528 132.599 12.452 132.523 12.3002C132.447 12.1483 132.371 12.0724 132.295 11.9206C132.143 11.6169 132.067 11.2372 131.991 10.7816C131.915 10.3261 131.915 9.87054 131.915 9.41497ZM130.09 9.41497C130.09 9.79461 130.09 10.0983 130.166 10.478C130.166 10.7816 130.242 11.1613 130.318 11.465C130.47 12.0724 130.623 12.6039 130.927 13.0595C131.079 13.2873 131.231 13.515 131.383 13.6669C131.535 13.8187 131.763 13.9706 131.991 14.1224C132.219 14.2743 132.447 14.3502 132.751 14.4262C132.98 14.5021 133.284 14.5021 133.588 14.5021C134.196 14.5021 134.652 14.3502 135.108 14.1224C135.565 13.8947 135.945 13.515 136.173 13.0595C136.477 12.6039 136.629 12.0724 136.781 11.465C136.933 10.8575 137.009 10.1743 137.009 9.33905C137.009 8.95942 137.009 8.57979 136.933 8.27607C136.933 7.97236 136.857 7.59273 136.781 7.28903C136.629 6.68162 136.477 6.15013 136.173 5.69456C136.021 5.46679 135.869 5.23901 135.717 5.08715C135.565 4.9353 135.337 4.78344 135.108 4.63159C134.88 4.47974 134.652 4.40381 134.348 4.32789C134.12 4.25195 133.816 4.25195 133.512 4.25195C132.904 4.25195 132.447 4.40381 131.991 4.63159C131.535 4.85937 131.155 5.23901 130.927 5.69456C130.623 6.15013 130.47 6.68162 130.318 7.28903C130.166 7.89644 130.09 8.57978 130.09 9.41497Z" fill="white"/>
<path fill-rule="evenodd" clip-rule="evenodd" d="M149.707 8.12409C149.631 8.50374 149.631 8.88337 149.631 9.33892C149.631 9.79449 149.631 10.1741 149.707 10.5538C149.783 10.9334 149.783 11.313 149.859 11.6167C149.935 11.9205 150.011 12.2241 150.163 12.5278C150.315 12.8316 150.391 13.0594 150.619 13.2872C150.771 13.5149 150.923 13.6667 151.151 13.8186C151.38 13.9705 151.532 14.1223 151.76 14.1983C151.988 14.2742 152.216 14.3501 152.444 14.4261C152.672 14.502 152.9 14.502 153.204 14.502C153.432 14.502 153.585 14.502 153.813 14.502C154.041 14.502 154.193 14.4261 154.345 14.4261C154.573 14.3501 154.725 14.3501 154.877 14.2742C155.029 14.1983 155.181 14.1223 155.333 13.9705L155.561 13.8186L155.485 13.5908L155.257 12.7556L155.105 12.2241L154.649 12.5278C154.573 12.6038 154.497 12.6038 154.421 12.6797C154.345 12.7556 154.269 12.7556 154.117 12.8316C154.041 12.8316 153.889 12.9075 153.813 12.9075C153.737 12.9075 153.585 12.9075 153.432 12.9075C153.128 12.9075 152.9 12.8316 152.672 12.7556C152.444 12.6038 152.216 12.4519 152.064 12.1482C151.912 11.8445 151.76 11.5408 151.608 11.0852C151.532 10.6297 151.456 10.0982 151.456 9.49078C151.456 8.80744 151.532 8.27595 151.608 7.82039C151.684 7.59261 151.76 7.36483 151.836 7.21298C151.912 7.06112 151.988 6.90927 152.064 6.75741C152.14 6.60556 152.216 6.52964 152.368 6.4537C152.444 6.37778 152.596 6.30186 152.672 6.22593C152.748 6.15 152.9 6.15 152.976 6.07407C153.052 6.07407 153.204 5.99815 153.356 5.99815C153.508 5.99815 153.661 5.99815 153.737 5.99815C153.889 5.99815 153.965 5.99815 154.041 6.07407C154.117 6.07407 154.193 6.15 154.345 6.15C154.421 6.15 154.497 6.22593 154.573 6.22593L155.029 6.4537L155.181 5.92222L155.409 5.0111L155.485 4.70739L155.105 4.63146C154.953 4.55554 154.877 4.55554 154.725 4.47961C154.573 4.47961 154.497 4.40368 154.345 4.40368C154.041 4.32776 153.661 4.32776 153.204 4.32776C152.976 4.32776 152.748 4.32776 152.52 4.40368C152.292 4.47961 152.064 4.55554 151.836 4.63146C151.608 4.70739 151.38 4.85925 151.228 5.0111C150.999 5.16295 150.847 5.3148 150.695 5.54258C150.543 5.77037 150.391 5.99815 150.239 6.22593C150.087 6.4537 150.011 6.75741 149.935 7.06112C149.783 7.44076 149.707 7.74446 149.707 8.12409Z" fill="white"/>
<path fill-rule="evenodd" clip-rule="evenodd" d="M158.603 4.85937V13.9705V14.3502H158.983H159.971H160.351V13.9705V10.402L162.632 14.1224L162.784 14.3502H163.012H164.229H164.913L164.533 13.7428L161.948 9.4909H161.872V9.41498L161.644 9.1872L161.796 9.03535L161.872 8.95941L164.229 5.08716L164.609 4.47974H163.925H162.784H162.556L162.404 4.63159L160.351 8.20015V4.85937V4.47974H159.971H158.983H158.603V4.85937Z" fill="white"/>
<path fill-rule="evenodd" clip-rule="evenodd" d="M167.726 4.85937V13.9705V14.3502H168.106H168.791H169.019L169.171 14.1224L172.136 8.80757V13.9705V14.3502H172.592H173.581H173.961V13.9705V4.85937V4.47974H173.581H172.896H172.668L172.592 4.63159L169.551 10.0224V4.85937V4.47974H169.095H168.106H167.726V4.85937Z" fill="white"/>
<path fill-rule="evenodd" clip-rule="evenodd" d="M177.534 4.85937V13.9705V14.3502H177.99H178.599H178.827L178.979 14.1224L182.02 8.80757V13.9705V14.3502H182.4H183.389H183.769V13.9705V4.85937V4.47974H183.389H182.704H182.476L182.4 4.63159L179.359 10.0224V4.85937V4.47974H178.903H177.99H177.534V4.85937Z" fill="white"/>
<path fill-rule="evenodd" clip-rule="evenodd" d="M78.1608 30.7502V22.9297H80.7459H81.2021V22.5502V21.639V21.2594H80.7459H76.7923H76.4121V21.639V30.7502V31.1298H76.7923H77.7807H78.1608V30.7502Z" fill="white"/>
<path fill-rule="evenodd" clip-rule="evenodd" d="M85.2317 27.5613C85.1557 27.1058 85.1557 26.6502 85.1557 26.1946C85.1557 25.5873 85.2317 25.0557 85.3077 24.6003C85.3838 24.1447 85.4598 23.8409 85.6119 23.5372C85.84 23.0817 86.2201 22.778 86.7523 22.778C86.9044 22.778 86.9804 22.778 87.1325 22.8539C87.2085 22.8539 87.3606 22.9298 87.4366 23.0058C87.5127 23.0817 87.6647 23.1576 87.7408 23.3095C87.8168 23.4614 87.8928 23.5373 87.9689 23.6891C88.0449 23.8409 88.1209 23.9928 88.1209 24.2206C88.197 24.4484 88.1969 24.6003 88.273 24.8279C88.273 25.0557 88.349 25.2835 88.349 25.5113C88.349 25.7391 88.349 25.9669 88.349 26.1946C88.349 27.4095 88.1969 28.3207 87.8928 28.8521C87.6647 29.3077 87.2846 29.6114 86.7523 29.6114C86.6003 29.6114 86.5242 29.6114 86.3722 29.5355C86.2962 29.5355 86.1441 29.4595 86.0681 29.3836C85.992 29.3077 85.84 29.2317 85.7639 29.0799C85.6879 28.928 85.6119 28.8521 85.5358 28.7002C85.3838 28.3966 85.3077 28.0169 85.2317 27.5613ZM83.2549 26.1946C83.2549 26.5743 83.2549 26.878 83.3309 27.2577C83.3309 27.5613 83.4069 27.941 83.483 28.2447C83.635 28.8521 83.7871 29.3836 84.0912 29.8392C84.2433 30.0669 84.3954 30.2947 84.5474 30.4466C84.6995 30.5984 84.9276 30.7503 85.1557 30.9022C85.3838 31.054 85.6119 31.13 85.916 31.2059C86.1441 31.2817 86.4482 31.2817 86.7523 31.2817C87.3606 31.2817 87.8168 31.13 88.273 30.9022C88.7292 30.6744 89.1093 30.2947 89.3374 29.8392C89.6416 29.3836 89.7936 28.8521 89.9457 28.2447C90.0977 27.6373 90.1738 26.954 90.1738 26.1187C90.1738 25.7391 90.1738 25.3595 90.0977 25.0557C90.0977 24.7521 90.0217 24.3725 89.9457 24.0687C89.7936 23.4614 89.6416 22.9298 89.3374 22.4742C89.1854 22.2465 89.0333 22.0187 88.8812 21.8669C88.7292 21.715 88.5011 21.5631 88.273 21.4113C88.0449 21.2594 87.8168 21.1835 87.5127 21.1075C87.2846 21.0316 86.9804 21.0316 86.6763 21.0316C86.0681 21.0316 85.6119 21.1835 85.1557 21.4113C84.6995 21.6391 84.3193 22.0187 84.0912 22.4742C83.7871 22.9298 83.635 23.4614 83.483 24.0687C83.3309 24.6762 83.2549 25.3595 83.2549 26.1946Z" fill="white"/>
<path fill-rule="evenodd" clip-rule="evenodd" d="M93.1396 26.1946C93.1396 26.6501 93.1397 27.0298 93.2157 27.4094C93.2917 27.789 93.2917 28.1687 93.3678 28.4724C93.4438 28.7761 93.5198 29.0798 93.6719 29.3835C93.8239 29.6872 93.9 29.915 94.1281 30.1427C94.2801 30.3705 94.4321 30.5224 94.6602 30.6742C94.8883 30.8261 95.0404 30.978 95.2685 31.0539C95.4965 31.1298 95.7247 31.2058 95.9528 31.2817C96.1809 31.3576 96.409 31.3576 96.7132 31.3576C96.9411 31.3576 97.0933 31.3576 97.3214 31.3576C97.5494 31.3576 97.7016 31.2817 97.8536 31.2817C98.0817 31.2058 98.2337 31.2058 98.3857 31.1298C98.5378 31.0539 98.6899 30.978 98.8419 30.8261L99.0701 30.6742L98.994 30.4464L98.766 29.6113L98.6139 29.0798L98.1578 29.3835C98.0817 29.4594 98.0056 29.4594 97.9296 29.5353C97.8535 29.6113 97.7776 29.6113 97.6255 29.6872C97.5494 29.6872 97.3974 29.7631 97.3214 29.7631C97.2453 29.7631 97.0932 29.7631 96.9411 29.7631C96.637 29.7631 96.4089 29.6872 96.1808 29.6113C95.9527 29.4594 95.7246 29.3075 95.5726 29.0038C95.4205 28.7002 95.2684 28.3965 95.1164 27.9409C95.0404 27.4854 94.9643 26.9538 94.9643 26.3464C94.9643 25.6631 95.0404 25.1316 95.1164 24.6761C95.1924 24.4483 95.2686 24.2205 95.3446 24.0686C95.4206 23.9167 95.4965 23.7649 95.5726 23.613C95.6486 23.4612 95.7246 23.3853 95.8767 23.3094C95.9527 23.2334 96.1048 23.1575 96.1808 23.0816C96.2569 23.0056 96.4089 23.0056 96.485 22.9297C96.561 22.9297 96.7132 22.8538 96.8652 22.8538C97.0173 22.8538 97.1693 22.8538 97.2454 22.8538C97.3974 22.8538 97.4735 22.8538 97.5495 22.9297C97.6255 22.9297 97.7776 23.0056 97.8536 23.0056C97.9297 23.0056 98.0056 23.0816 98.0816 23.0816L98.5378 23.3094L98.6899 22.7778L98.9181 21.8667L98.994 21.563L98.6899 21.4112C98.5378 21.3352 98.4619 21.3352 98.3098 21.2593C98.1578 21.2593 98.0816 21.1834 97.9296 21.1834C97.6254 21.1074 97.2453 21.1074 96.7891 21.1074C96.561 21.1074 96.333 21.1074 96.1049 21.1834C95.8768 21.2593 95.6486 21.3352 95.4205 21.4112C95.1924 21.4871 94.9643 21.639 94.8123 21.7908C94.5842 21.9427 94.4322 22.0945 94.2801 22.3222C94.1281 22.55 93.976 22.7778 93.8239 23.0056C93.6719 23.2334 93.5959 23.5372 93.5198 23.8408C93.4438 24.1445 93.3677 24.5242 93.2916 24.9038C93.2156 25.3594 93.1396 25.739 93.1396 26.1946Z" fill="white"/>
<path fill-rule="evenodd" clip-rule="evenodd" d="M101.122 21.7908L103.784 28.3965C103.708 28.5483 103.708 28.7761 103.632 28.928C103.556 29.0799 103.556 29.2317 103.479 29.3076C103.403 29.3835 103.403 29.4594 103.403 29.4594H103.327H103.175H103.099C103.023 29.4594 103.023 29.3835 102.947 29.3835L102.491 29.0799L102.339 29.6113L102.035 30.4466L101.959 30.7502L102.187 30.902C102.263 30.978 102.339 31.0539 102.415 31.0539C102.491 31.1298 102.567 31.1298 102.719 31.1298C102.871 31.2058 103.099 31.2058 103.403 31.2058C103.556 31.2058 103.708 31.2058 103.86 31.1298C104.012 31.0539 104.164 31.0539 104.24 30.978C104.392 30.902 104.468 30.8261 104.544 30.6742C104.62 30.5983 104.696 30.4466 104.848 30.2947C104.924 30.1428 105 29.991 105.076 29.8391C105.152 29.6872 105.228 29.4594 105.304 29.2317C105.456 28.8521 105.608 28.3205 105.836 27.7132L107.661 21.7908L107.813 21.2594H107.205H106.217H105.912L105.836 21.5631L104.62 25.815L102.947 21.4872L102.871 21.2594H102.567H101.427H100.818L101.122 21.7908Z" fill="white"/>
<path fill-rule="evenodd" clip-rule="evenodd" d="M122.183 26.8779L122.715 25.0556L122.867 24.6001L123.02 25.0556L123.552 26.8779L123.628 27.0298H123.476H122.487H122.335L122.183 26.8779ZM122.183 21.4112L119.446 30.5983L119.294 31.1298H119.826H120.815H121.119L121.195 30.8261L121.803 28.5483H123.78L124.464 30.8261L124.54 31.1298H124.844H125.833H126.365L126.213 30.5983L123.476 21.4112L123.4 21.1074H123.096H122.563H122.259L122.183 21.4112Z" fill="white"/>
<path fill-rule="evenodd" clip-rule="evenodd" d="M130.851 26.0427V22.8538H131.079H131.307C131.383 22.8538 131.535 22.8538 131.611 22.8538C131.687 22.8538 131.763 22.8538 131.915 22.9297C131.991 22.9297 132.067 23.0056 132.143 23.0056C132.219 23.0056 132.295 23.0816 132.295 23.1575C132.371 23.2334 132.371 23.2334 132.447 23.3094C132.523 23.3853 132.523 23.4612 132.599 23.5372C132.599 23.613 132.676 23.7649 132.676 23.8408C132.676 23.9927 132.676 24.1445 132.676 24.2964C132.676 24.5242 132.676 24.6761 132.676 24.8279C132.676 24.9797 132.599 25.1316 132.599 25.2075C132.523 25.2834 132.523 25.4353 132.447 25.5112C132.371 25.5871 132.371 25.6631 132.295 25.739C132.219 25.8149 132.143 25.8149 132.067 25.8909C131.991 25.9668 131.915 25.9668 131.839 25.9668C131.611 26.0427 131.459 26.0427 131.231 26.0427H131.079H131.003H130.851ZM129.102 21.7149V30.6742V31.1298H129.482H130.471H130.851V30.7502V27.7131H131.003H131.155H131.307C131.535 27.7131 131.687 27.7131 131.915 27.6371C132.143 27.6371 132.295 27.5612 132.523 27.4853C132.752 27.4094 132.904 27.3335 133.056 27.2576C133.208 27.1816 133.436 27.0298 133.588 26.8779C133.74 26.726 133.892 26.5742 134.044 26.4223C134.196 26.2704 134.272 26.0427 134.348 25.8149C134.424 25.5871 134.5 25.3593 134.576 25.1316C134.652 24.9038 134.652 24.6001 134.652 24.2964C134.652 23.6889 134.576 23.1575 134.348 22.7778C134.272 22.55 134.12 22.3982 134.044 22.2464C133.892 22.0945 133.74 21.9427 133.588 21.7908C133.436 21.639 133.284 21.563 133.056 21.4871C132.904 21.4112 132.676 21.3352 132.523 21.2593C132.143 21.1834 131.763 21.1074 131.383 21.1074C131.231 21.1074 131.079 21.1074 130.927 21.1074C130.775 21.1074 130.623 21.1074 130.471 21.1074C130.319 21.1074 130.166 21.1074 130.014 21.1834C129.862 21.1834 129.71 21.2593 129.558 21.2593L129.254 21.3352V21.7149H129.102Z" fill="white"/>
<path fill-rule="evenodd" clip-rule="evenodd" d="M137.313 24.9039C137.237 25.2835 137.237 25.7391 137.237 26.1187C137.237 26.5743 137.237 26.954 137.313 27.3336C137.389 27.7132 137.389 28.0929 137.465 28.3966C137.541 28.7002 137.617 29.0039 137.77 29.3077C137.922 29.6114 137.998 29.8392 138.226 30.0669C138.378 30.2947 138.53 30.4466 138.758 30.5984C138.986 30.7503 139.138 30.9022 139.366 30.9781C139.594 31.054 139.822 31.13 140.05 31.2059C140.279 31.2817 140.507 31.2817 140.811 31.2817C141.039 31.2817 141.191 31.2817 141.419 31.2817C141.647 31.2817 141.799 31.2059 141.951 31.2059C142.179 31.13 142.331 31.13 142.483 31.054C142.636 30.9781 142.788 30.9022 142.94 30.7503L143.168 30.5984L143.092 30.3706L142.864 29.5355L142.712 29.0039L142.255 29.3077C142.179 29.3836 142.103 29.3836 142.027 29.4595C141.951 29.5355 141.875 29.5355 141.723 29.6114C141.647 29.6114 141.495 29.6873 141.419 29.6873C141.343 29.6873 141.191 29.6873 141.039 29.6873C140.735 29.6873 140.507 29.6114 140.279 29.5355C140.05 29.3836 139.822 29.2317 139.67 28.928C139.518 28.6244 139.366 28.3207 139.214 27.8651C139.138 27.4095 139.062 26.878 139.062 26.2706C139.062 25.5873 139.138 25.0557 139.214 24.6003C139.29 24.3725 139.366 24.1447 139.442 23.9928C139.518 23.8409 139.594 23.6891 139.67 23.5372C139.746 23.3854 139.822 23.3095 139.974 23.2336C140.05 23.1576 140.127 23.0817 140.279 23.0058C140.355 22.9298 140.507 22.9298 140.583 22.8539C140.659 22.8539 140.811 22.778 140.963 22.778C141.115 22.778 141.267 22.778 141.343 22.778C141.495 22.778 141.571 22.778 141.647 22.8539C141.723 22.8539 141.875 22.9298 141.951 22.9298C142.027 22.9298 142.103 23.0058 142.179 23.0058L142.636 23.2336L142.788 22.702L143.016 21.7909L143.092 21.4872L142.788 21.3353C142.636 21.2594 142.56 21.2594 142.407 21.1835C142.255 21.1835 142.179 21.1075 142.027 21.1075C141.723 21.0316 141.343 21.0316 140.887 21.0316C140.659 21.0316 140.431 21.0316 140.203 21.1075C139.974 21.1835 139.746 21.2594 139.518 21.3353C139.29 21.4113 139.062 21.5631 138.91 21.715C138.682 21.8669 138.53 22.0187 138.378 22.2464C138.226 22.4742 138.074 22.702 137.922 22.9298C137.77 23.1576 137.693 23.4614 137.617 23.765C137.465 24.2206 137.389 24.5243 137.313 24.9039Z" fill="white"/>
<path fill-rule="evenodd" clip-rule="evenodd" d="M147.502 22.9297V30.7502V31.1298H147.882H148.87H149.251V30.7502V22.9297H151.151H151.531V22.5502V21.639V21.2594H151.151H145.677H145.297V21.639V22.5502V22.9297H145.677H147.502Z" fill="white"/>
<path fill-rule="evenodd" clip-rule="evenodd" d="M156.245 25.2834V22.8538H156.321H156.625H156.93C157.082 22.8538 157.234 22.8538 157.386 22.9297C157.462 22.9297 157.538 23.0056 157.538 23.0056C157.614 23.0056 157.614 23.0816 157.69 23.0816C157.766 23.0816 157.766 23.1575 157.766 23.2334C157.766 23.3094 157.842 23.3094 157.842 23.3853C157.918 23.5372 157.918 23.6889 157.918 23.9927C157.918 24.2964 157.842 24.6001 157.69 24.8279C157.614 24.9797 157.462 25.0556 157.386 25.1316C157.31 25.2075 157.158 25.2834 157.082 25.2834H157.006H156.778H156.549H156.397H156.245ZM156.702 26.9538C156.778 26.9538 156.93 26.9538 157.006 26.9538C157.082 26.9538 157.234 26.9538 157.31 27.0298C157.386 27.0298 157.462 27.1057 157.538 27.1057C157.614 27.1057 157.69 27.1816 157.766 27.1816C157.842 27.2576 157.842 27.2576 157.918 27.3335C157.994 27.4093 157.994 27.4853 158.07 27.5612C158.146 27.7131 158.222 27.9409 158.222 28.2446C158.222 28.3965 158.222 28.4724 158.222 28.5483C158.222 28.6243 158.146 28.7001 158.146 28.776C158.146 28.852 158.07 28.9279 157.994 29.0038C157.918 29.0798 157.918 29.1557 157.842 29.1557C157.766 29.2316 157.69 29.2316 157.69 29.3075C157.614 29.3835 157.538 29.3835 157.462 29.3835C157.31 29.4594 157.158 29.4594 156.93 29.4594H156.778H156.625H156.473H156.321H156.245V26.8779H156.702V26.9538ZM154.497 21.7149V30.6742V30.978L154.801 31.0539C154.877 31.0539 154.953 31.1298 155.105 31.1298C155.181 31.1298 155.257 31.1298 155.409 31.2058H155.713H156.017C156.245 31.2058 156.397 31.2058 156.549 31.2058H157.006C157.234 31.2058 157.386 31.2058 157.614 31.1298C157.842 31.1298 157.994 31.0539 158.222 30.978C158.374 30.902 158.602 30.8261 158.754 30.7502C158.906 30.6742 159.058 30.5224 159.211 30.4464C159.363 30.2946 159.515 30.1427 159.591 29.9908C159.743 29.8391 159.819 29.6113 159.895 29.4594C159.971 29.2316 160.047 29.0798 160.123 28.776C160.199 28.5483 160.199 28.3205 160.199 28.0168C160.199 27.789 160.199 27.6371 160.199 27.4853C160.199 27.3335 160.123 27.1057 160.047 27.0298C159.971 26.8779 159.971 26.726 159.895 26.6501C159.819 26.4982 159.743 26.4223 159.667 26.2704C159.591 26.1945 159.515 26.0427 159.363 25.9668C159.287 25.8909 159.211 25.8149 159.135 25.8149C159.211 25.739 159.363 25.5871 159.439 25.5112C159.515 25.4353 159.591 25.2834 159.667 25.2075C159.743 25.0556 159.819 24.9797 159.819 24.8279C159.895 24.6761 159.895 24.6001 159.971 24.4483C159.971 24.2964 160.047 24.2205 160.047 24.0686C160.047 23.9167 160.047 23.8408 160.047 23.6889C160.047 23.4612 160.047 23.2334 159.971 23.0056C159.895 22.7778 159.895 22.55 159.743 22.3982C159.667 22.2464 159.591 22.0945 159.439 21.9427C159.287 21.7908 159.211 21.7149 159.058 21.563C158.754 21.4112 158.45 21.2593 158.146 21.1834C157.994 21.1834 157.842 21.1074 157.69 21.1074C157.538 21.1074 157.386 21.1074 157.234 21.1074C157.006 21.1074 156.854 21.1074 156.625 21.1074C156.397 21.1074 156.245 21.1074 156.093 21.1834C155.941 21.1834 155.713 21.2593 155.561 21.2593C155.409 21.2593 155.257 21.3352 155.105 21.3352L154.801 21.4112V21.7149H154.497Z" fill="white"/>
<path fill-rule="evenodd" clip-rule="evenodd" d="M163.393 21.639V30.7502V31.1298H163.773H167.878H168.259V30.7502V29.8391V29.4594H167.878H165.141V26.8779H167.574H167.954V26.4984V25.5872V25.2076H167.574H165.141V22.9297H167.802H168.183V22.5502V21.639V21.2594H167.802H163.773H163.393V21.639Z" fill="white"/>
<path fill-rule="evenodd" clip-rule="evenodd" d="M171.68 21.639V30.7502V31.1298H172.06H173.049H173.429V30.7502V26.9538H176.014V30.7502V31.1298H176.394H177.383H177.763V30.7502V21.639V21.2594H177.383H176.394H176.014V21.639V25.2076H173.429V21.639V21.2594H173.049H172.06H171.68V21.639Z" fill="white"/>
<path fill-rule="evenodd" clip-rule="evenodd" d="M181.412 21.639V30.7502V31.1298H181.792H182.781H183.161V30.7502V26.9538H185.746V30.7502V31.1298H186.126H187.115H187.495V30.7502V21.639V21.2594H187.115H186.126H185.746V21.639V25.2076H183.161V21.639V21.2594H182.781H181.792H181.412V21.639Z" fill="white"/>
<path fill-rule="evenodd" clip-rule="evenodd" d="M192.893 29.5354V26.4224C193.045 26.4224 193.121 26.4224 193.197 26.4224C193.273 26.4224 193.425 26.4224 193.501 26.4224C193.577 26.4224 193.653 26.4224 193.805 26.4984C193.881 26.4984 193.957 26.5743 194.033 26.5743C194.109 26.5743 194.185 26.6502 194.185 26.7261C194.261 26.802 194.261 26.802 194.337 26.8779C194.413 26.9538 194.413 27.0298 194.489 27.1057C194.565 27.3335 194.565 27.5613 194.565 27.941C194.565 28.2446 194.565 28.5483 194.489 28.7761C194.413 29.0039 194.337 29.1558 194.261 29.2317C194.185 29.3835 194.033 29.4594 193.881 29.5354C193.729 29.6113 193.577 29.6113 193.349 29.6113C193.121 29.5354 192.969 29.5354 192.893 29.5354ZM191.144 21.639V30.6742V30.978L191.448 31.0539C191.6 31.1298 191.752 31.1298 191.904 31.1298C192.056 31.1298 192.208 31.2058 192.437 31.2058H192.893H193.273C193.729 31.2058 194.185 31.1298 194.565 30.978C194.946 30.8261 195.326 30.5983 195.63 30.3706C196.162 29.8391 196.466 28.928 196.466 27.7891C196.466 27.4854 196.466 27.2576 196.39 26.9538C196.314 26.7261 196.314 26.4984 196.238 26.2706C196.162 26.0428 196.086 25.8909 195.934 25.739C195.782 25.5872 195.706 25.4353 195.554 25.2835C195.402 25.1317 195.25 25.0557 195.098 24.9798C194.946 24.9039 194.794 24.8279 194.565 24.752C194.261 24.6761 193.881 24.6001 193.501 24.6001C193.425 24.6001 193.273 24.6001 193.197 24.6001H192.969V21.5631V21.2594H192.589H191.6H191.22V21.639H191.144Z" fill="white"/>
<path fill-rule="evenodd" clip-rule="evenodd" d="M197.455 21.639V30.7502V31.1298H197.835H198.823H199.203V30.7502V21.639V21.2594H198.823H197.835H197.455V21.639Z" fill="white"/>
<path fill-rule="evenodd" clip-rule="evenodd" d="M202.853 21.639V30.7502V31.1298H203.233H203.917H204.146L204.222 30.902L207.263 25.5872V30.7502V31.1298H207.643H208.631H209.012V30.7502V21.639V21.2594H208.631H208.023H207.795L207.643 21.4113L204.602 26.8779V21.639V21.2594H204.222H203.233H202.853V21.639Z" fill="white"/>
<path fill-rule="evenodd" clip-rule="evenodd" d="M80.2899 44.4172L82.1146 38.4948L82.2667 37.9634H81.7345H80.7461H80.4419L80.3659 38.2671L79.1494 42.5189L77.4767 38.1912L77.4007 37.9634H77.0965H76.0321H75.4238L75.6519 38.4948L78.313 45.1005C78.237 45.2523 78.237 45.4801 78.161 45.632C78.0849 45.7838 78.0849 45.9357 78.0089 46.0115C77.9329 46.0875 77.9329 46.1634 77.9329 46.1634H77.8569H77.7048H77.6288C77.5527 46.1634 77.5527 46.0875 77.4767 46.0875L77.0205 45.7838L76.7924 46.3153L76.4883 47.1505L76.4122 47.4542L76.6403 47.606C76.7164 47.682 76.7924 47.7579 76.8684 47.7579C76.9445 47.8338 77.0205 47.8338 77.1726 47.8338C77.3246 47.9098 77.5527 47.9098 77.8569 47.9098C78.0089 47.9098 78.161 47.9098 78.313 47.8338C78.4651 47.7579 78.6172 47.7579 78.6932 47.682C78.8453 47.606 78.9213 47.5301 78.9973 47.3782C79.0734 47.3023 79.1494 47.1505 79.3015 46.9987C79.3775 46.8468 79.4535 46.6949 79.5296 46.5431C79.6056 46.3912 79.6816 46.1634 79.7577 45.9357C79.9857 45.556 80.1378 45.1004 80.2899 44.4172Z" fill="white"/>
<path fill-rule="evenodd" clip-rule="evenodd" d="M84.9277 38.419V47.5302V47.9098H85.3839H86.3723H86.7525V47.5302V43.7339H89.2616V47.5302V47.9098H89.7177H90.6301H91.0863V47.5302V38.419V38.0393H90.6301H89.7177H89.2616V38.419V42.0634H86.7525V38.419V38.0393H86.3723H85.3839H84.9277V38.419Z" fill="white"/>
<path fill-rule="evenodd" clip-rule="evenodd" d="M99.5262 38.2671L96.4849 43.6579V38.419V38.0393H96.0287H95.1164H94.6602V38.419V47.5302V47.9098H95.1164H95.7246H95.9527L96.1048 47.6821L99.146 42.3672V47.5302V47.9098H99.5262H100.514H100.894V47.5302V38.419V38.0393H100.514H99.8303H99.6022L99.5262 38.2671Z" fill="white"/>
<path fill-rule="evenodd" clip-rule="evenodd" d="M106.293 42.0634V39.6337H106.369H106.673H106.977C107.129 39.6337 107.281 39.6337 107.433 39.7096C107.509 39.7096 107.585 39.7856 107.585 39.7856C107.661 39.7856 107.661 39.8615 107.737 39.8615C107.813 39.8615 107.813 39.9374 107.813 40.0134C107.813 40.0893 107.889 40.0893 107.889 40.1652C107.965 40.3171 107.965 40.469 107.965 40.7727C107.965 41.0763 107.889 41.3801 107.737 41.6079C107.661 41.7597 107.509 41.8357 107.433 41.9116C107.357 41.9875 107.205 42.0634 107.129 42.0634H107.053H106.825H106.597H106.445H106.293ZM107.357 43.7338C107.433 43.7338 107.509 43.8097 107.585 43.8097C107.661 43.8097 107.737 43.8856 107.813 43.8856C107.889 43.9616 107.889 43.9616 107.965 44.0375C108.041 44.1134 108.041 44.1894 108.117 44.2653C108.193 44.4172 108.269 44.645 108.269 44.9486C108.269 45.1005 108.269 45.1764 108.269 45.2523C108.269 45.3283 108.193 45.4042 108.193 45.4801C108.193 45.5561 108.117 45.632 108.041 45.7079C107.965 45.7838 107.965 45.8598 107.889 45.8598C107.813 45.9357 107.737 45.9357 107.737 46.0115C107.661 46.0875 107.585 46.0875 107.509 46.0875C107.357 46.1634 107.205 46.1634 106.977 46.1634H106.825H106.673H106.521H106.369H106.293V43.5819H106.749C106.825 43.5819 106.977 43.5819 107.053 43.5819C107.129 43.7338 107.281 43.7338 107.357 43.7338ZM104.468 38.4948V47.4542V47.7579L104.772 47.8338C104.848 47.8338 104.924 47.9098 105.076 47.9098C105.152 47.9098 105.228 47.9098 105.38 47.9857H105.684H105.988C106.217 47.9857 106.369 47.9857 106.521 47.9857H106.977C107.205 47.9857 107.357 47.9857 107.585 47.9098C107.813 47.9098 107.965 47.8338 108.193 47.7579C108.345 47.682 108.574 47.606 108.726 47.5301C108.878 47.4542 109.03 47.3024 109.182 47.2265C109.334 47.0746 109.486 46.9227 109.562 46.7709C109.714 46.619 109.79 46.3912 109.866 46.2393C109.942 46.0116 110.018 45.8598 110.094 45.556C110.17 45.3283 110.17 45.1005 110.17 44.7967C110.17 44.569 110.17 44.4172 110.17 44.2653C110.17 44.1134 110.094 43.8856 110.018 43.8097C109.942 43.6578 109.942 43.506 109.866 43.4301C109.79 43.2783 109.714 43.2023 109.638 43.0505C109.562 42.9745 109.486 42.8227 109.334 42.7467C109.258 42.6708 109.182 42.5949 109.106 42.5949C109.182 42.5189 109.334 42.3671 109.41 42.2911C109.486 42.2152 109.562 42.0634 109.638 41.9875C109.714 41.8356 109.79 41.7597 109.79 41.6079C109.866 41.456 109.866 41.3801 109.942 41.2282C109.942 41.0763 110.018 41.0004 110.018 40.8485C110.018 40.6968 110.018 40.6208 110.018 40.469C110.018 40.2412 110.018 40.0134 109.942 39.7856C109.866 39.5578 109.866 39.3301 109.714 39.1782C109.638 39.0263 109.562 38.8745 109.41 38.7226C109.258 38.5707 109.182 38.4948 109.03 38.3429C108.726 38.1912 108.421 38.0393 108.117 37.9634C107.965 37.9634 107.813 37.8875 107.661 37.8875C107.509 37.8875 107.357 37.8875 107.205 37.8875C106.977 37.8875 106.825 37.8875 106.597 37.8875C106.369 37.8875 106.217 37.8874 106.064 37.9634C105.912 37.9634 105.684 38.0393 105.532 38.0393C105.38 38.0393 105.228 38.1152 105.076 38.1152L104.772 38.1912V38.4948H104.468Z" fill="white"/>
<path fill-rule="evenodd" clip-rule="evenodd" d="M113.364 38.419V47.5302V47.9098H113.744H117.85H118.306V47.5302V46.619V46.2394H117.85H115.112V43.7339H117.546H118.002V43.2783V42.3672V41.9875H117.546H115.112V39.7097H117.85H118.23V39.3301V38.419V38.0393H117.85H113.744H113.364V38.419Z" fill="white"/>
<path fill-rule="evenodd" clip-rule="evenodd" d="M123.476 42.8228V39.6338H123.704H123.932C124.008 39.6338 124.16 39.6338 124.236 39.6338C124.312 39.6338 124.388 39.6338 124.54 39.7098C124.616 39.7098 124.692 39.7857 124.768 39.7857C124.844 39.7857 124.92 39.8616 124.92 39.9376C124.996 40.0135 124.996 40.0135 125.072 40.0894C125.148 40.1654 125.148 40.2413 125.225 40.3172C125.225 40.3932 125.301 40.545 125.301 40.621C125.301 40.7728 125.301 40.9246 125.301 41.0764C125.301 41.3042 125.301 41.4561 125.301 41.608C125.301 41.7598 125.225 41.9117 125.225 41.9876C125.148 42.0636 125.148 42.2153 125.072 42.2913C124.996 42.3672 124.996 42.4431 124.92 42.5191C124.844 42.595 124.768 42.595 124.692 42.6709C124.616 42.7469 124.54 42.7469 124.464 42.7469C124.312 42.8228 124.084 42.8228 123.856 42.8228H123.704H123.628H123.476ZM121.727 38.4949V47.4543V47.834H122.107H123.096H123.476V47.4543V44.4173H123.628H123.78H123.932C124.16 44.4173 124.312 44.4173 124.54 44.3414C124.768 44.3414 124.92 44.2654 125.148 44.1895C125.377 44.1136 125.529 44.0376 125.681 43.9617C125.833 43.8858 126.061 43.7339 126.213 43.582C126.365 43.4303 126.517 43.2784 126.669 43.1265C126.821 42.9747 126.897 42.7469 126.973 42.5191C127.049 42.2913 127.125 42.0636 127.201 41.8358C127.277 41.608 127.277 41.3042 127.277 41.0005C127.277 40.3932 127.201 39.8616 126.973 39.4821C126.897 39.2543 126.745 39.1024 126.669 38.9505C126.517 38.7987 126.365 38.6468 126.213 38.4949C126.061 38.3431 125.909 38.2671 125.681 38.1913C125.529 38.1154 125.301 38.0394 125.148 37.9635C124.768 37.8876 124.388 37.8116 124.008 37.8116C123.856 37.8116 123.704 37.8116 123.552 37.8116C123.4 37.8116 123.248 37.8116 123.096 37.8116C122.944 37.8116 122.791 37.8116 122.639 37.8876C122.487 37.8876 122.335 37.9635 122.183 37.9635L121.879 38.0394V38.4949H121.727Z" fill="white"/>
<path fill-rule="evenodd" clip-rule="evenodd" d="M129.862 42.9745C129.862 43.43 129.862 43.8097 129.938 44.1894C130.014 44.569 130.014 44.9486 130.09 45.2523C130.166 45.5561 130.242 45.8598 130.395 46.1634C130.547 46.4671 130.623 46.6949 130.851 46.9227C131.003 47.1505 131.155 47.3023 131.383 47.4542C131.611 47.606 131.763 47.7579 131.991 47.8338C132.219 47.9098 132.447 47.9857 132.675 48.0616C132.904 48.1376 133.132 48.1376 133.436 48.1376C133.664 48.1376 133.816 48.1376 134.044 48.1376C134.272 48.1376 134.424 48.0616 134.576 48.0616C134.804 47.9857 134.956 47.9857 135.108 47.9098C135.261 47.8338 135.413 47.7579 135.565 47.606L135.793 47.4542L135.717 47.2265L135.489 46.3912L135.337 45.8598L134.88 46.1634C134.804 46.2393 134.728 46.2393 134.652 46.3153C134.576 46.3912 134.5 46.3912 134.348 46.4671C134.272 46.4671 134.12 46.5431 134.044 46.5431C133.968 46.5431 133.816 46.5431 133.664 46.5431C133.36 46.5431 133.132 46.4671 132.904 46.3912C132.675 46.2393 132.447 46.0875 132.295 45.7839C132.143 45.4801 131.991 45.1764 131.839 44.7208C131.763 44.2653 131.687 43.7338 131.687 43.1264C131.687 42.443 131.763 41.9116 131.839 41.456C131.915 41.2282 131.991 41.0004 132.067 40.8485C132.143 40.6968 132.219 40.5449 132.295 40.393C132.371 40.2412 132.447 40.1652 132.599 40.0893C132.675 40.0134 132.828 39.9374 132.904 39.8615C132.98 39.7856 133.132 39.7856 133.208 39.7096C133.284 39.7096 133.436 39.6337 133.588 39.6337C133.74 39.6337 133.892 39.6337 133.968 39.6337C134.12 39.6337 134.196 39.6337 134.272 39.7096C134.348 39.7096 134.424 39.7856 134.576 39.7856C134.652 39.7856 134.728 39.8615 134.804 39.8615L135.261 40.0893L135.413 39.5578L135.641 38.6467L135.717 38.3429L135.413 38.1912C135.261 38.1153 135.185 38.1152 135.032 38.0393C134.88 38.0393 134.804 37.9634 134.652 37.9634C134.348 37.8874 133.968 37.8875 133.512 37.8875C133.284 37.8875 133.056 37.8874 132.828 37.9634C132.599 38.0393 132.371 38.1153 132.143 38.1912C131.915 38.267 131.687 38.4189 131.535 38.5707C131.307 38.7226 131.155 38.8745 131.003 39.1023C130.851 39.3301 130.699 39.5578 130.547 39.7856C130.395 40.0134 130.318 40.3171 130.242 40.6208C130.166 40.9245 130.09 41.3041 130.014 41.6838C129.862 42.1393 129.862 42.5189 129.862 42.9745Z" fill="white"/>
<path fill-rule="evenodd" clip-rule="evenodd" d="M138.834 38.419V47.5302V47.9098H139.214H139.898H140.127L140.279 47.6821L143.244 42.3672V47.5302V47.9098H143.7H144.688H145.069V47.5302V38.419V38.0393H144.688H144.004H143.776L143.7 38.2671L140.659 43.6579V38.419V38.0393H140.203H139.214H138.834V38.419Z" fill="white"/>
<path fill-rule="evenodd" clip-rule="evenodd" d="M150.239 39.7097V47.5302V47.9098H150.619H151.608H152.064V47.5302V39.7097H153.889H154.269V39.3301V38.419V38.0393H153.889H148.414H148.034V38.419V39.3301V39.7097H148.414H150.239Z" fill="white"/>
<path fill-rule="evenodd" clip-rule="evenodd" d="M157.234 38.419V47.5302V47.9098H157.614H161.72H162.1V47.5302V46.619V46.2394H161.72H158.983V43.7339H161.416H161.796V43.2783V42.3672V41.9875H161.416H158.983V39.7097H161.644H162.1V39.3301V38.419V38.0393H161.644H157.614H157.234V38.419Z" fill="white"/>
<path fill-rule="evenodd" clip-rule="evenodd" d="M167.118 39.7097V47.5302V47.9098H167.574H168.487H168.943V47.5302V39.7097H170.768H171.148V39.3301V38.419V38.0393H170.768H165.293H164.913V38.419V39.3301V39.7097H165.293H167.118Z" fill="white"/>
<path fill-rule="evenodd" clip-rule="evenodd" d="M141.267 6.15012C141.267 6.98532 141.191 7.66867 141.191 8.352C141.115 8.80757 141.115 9.26312 141.039 9.71869C140.963 10.0983 140.963 10.4779 140.887 10.7817C140.811 11.0854 140.735 11.389 140.735 11.6168C140.659 11.8446 140.659 12.0724 140.583 12.2243L140.431 12.604H139.899H139.519V12.9835V15.565V15.9447H139.899H140.583H140.963V15.565L141.115 14.2743H145.449L145.601 15.565V15.9447H145.981H146.666H147.046V15.565V12.9835V12.604H146.666H146.133V4.85937V4.47974H145.753H143.548H141.8H141.419H140.963H140.583V4.85937V5.77049V6.15012H140.963H141.267ZM142.94 8.352C143.016 7.66867 143.016 6.98532 143.016 6.15012H143.168H144.309V12.604H142.256C142.332 12.4521 142.332 12.2243 142.408 11.9965C142.484 11.5409 142.636 11.0095 142.712 10.402C142.788 9.87054 142.864 9.1872 142.94 8.352Z" fill="white"/>
<path fill-rule="evenodd" clip-rule="evenodd" d="M206.046 19.0576C205.666 19.0576 205.514 18.9817 205.514 18.6021H204.146C204.146 19.4373 204.83 20.3484 206.046 20.3484C207.187 20.3484 207.947 19.5132 207.947 18.6021H206.579C206.503 18.9817 206.35 19.0576 206.046 19.0576Z" fill="white"/>
<path fill-rule="evenodd" clip-rule="evenodd" d="M31.9335 5.31503L31.8575 5.23911V5.16319V5.08725V5.01133V4.9354V4.85948V4.78354V4.70762V4.6317V4.55576V4.47984V4.40391V4.32799L31.9335 4.55576H32.0096H32.0856H32.1616H32.2377H32.3137H32.3897H32.4658H32.5418H32.6178H32.6939H32.7699H32.8459H32.9219H32.998H33.074H33.15V4.6317V4.70762V4.78354V4.85948V4.9354V5.01133V5.08725V5.16319V5.23911V5.31503V5.39096V5.46689V5.54282V5.61874V5.69466L32.6939 5.31503H32.6178H32.5418H32.4658H32.3897H32.3137H32.2377H32.1616H32.0856H32.0096H31.9335H31.8575H31.7815H31.9335ZM25.6989 20.4244V19.9689V19.7411H25.5469L24.4824 19.1337C24.5584 18.9059 24.7105 18.6023 24.8626 18.3745C25.0146 18.1467 25.0907 17.8429 25.2427 17.6151C25.3948 17.3874 25.4708 17.0837 25.6229 16.8559C25.775 16.6281 25.927 16.3244 26.003 16.0967C26.1551 15.8689 26.3072 15.6411 26.3832 15.3374C26.5353 15.1096 26.6873 14.8819 26.8394 14.5781C26.9915 14.3503 27.1435 14.1225 27.2956 13.8188C27.4477 13.5911 27.5997 13.3633 27.7518 13.1355C27.9038 12.8318 28.1319 12.604 28.284 12.3003C28.5121 11.9966 28.6642 11.7688 28.8162 11.541C28.9683 11.3132 29.1964 11.0096 29.4245 10.7818C29.6526 10.554 29.8046 10.2503 30.0327 10.0225C30.2608 9.79472 30.4129 9.56693 30.641 9.26323C30.8691 9.03545 31.0972 8.73174 31.2492 8.50396C31.4773 8.27618 31.6294 8.0484 31.8575 7.82062C32.0096 7.66876 32.2377 7.44099 32.3897 7.28913C32.5418 7.51691 32.7699 7.66876 32.9219 7.82062C33.15 8.0484 33.3021 8.27618 33.5302 8.50396C33.7583 8.73174 33.9864 8.95952 34.1385 9.26323C34.3666 9.49101 34.5186 9.79472 34.7467 10.0225C34.9748 10.2503 35.1269 10.554 35.355 10.7818C35.5831 11.0096 35.7351 11.3132 35.9632 11.541C36.1153 11.7688 36.3434 12.0725 36.4954 12.3003C36.6475 12.528 36.8756 12.8318 37.0277 13.1355C37.1797 13.3633 37.3318 13.5911 37.4839 13.8188C37.6359 14.0466 37.788 14.2744 37.9401 14.5022C38.0921 14.73 38.2442 14.9577 38.3962 15.2614C38.5483 15.4892 38.7004 15.7929 38.7764 16.0207C38.9285 16.2484 39.0805 16.5522 39.1566 16.78C39.3086 17.0078 39.3847 17.3115 39.5367 17.5392C39.6888 17.767 39.7648 18.0707 39.9169 18.2985C40.0689 18.5263 40.145 18.83 40.221 19.0578L39.0805 19.7411L39.0045 19.8171H38.9285V19.893V19.9689V21.1078V28.7005V28.8524V28.9283H39.0045H39.1566H40.4491H40.6012H40.6772V28.8524V28.7005V20.88L41.6656 20.3485L41.7416 20.2726L41.8177 20.1966C41.8177 20.1966 41.8937 20.1207 41.8937 20.0449C41.8937 19.9689 41.9697 19.9689 41.9697 19.893C41.9697 19.8171 42.0458 19.8171 42.0458 19.7411C42.0458 19.6652 42.0458 19.6652 42.1218 19.5893C42.1218 19.5134 42.1218 19.5133 42.1218 19.4374C42.1218 19.3615 42.1218 19.3615 42.1218 19.2856C42.1218 19.2096 42.1218 19.2096 42.1218 19.1337C42.1218 19.0578 42.1218 19.0578 42.0458 18.9818C41.8937 18.6782 41.8177 18.3745 41.6656 18.0707C41.5135 17.767 41.3615 17.4634 41.2854 17.1596C41.1334 16.8559 40.9813 16.5522 40.8293 16.2484C40.6772 15.9448 40.5251 15.6411 40.3731 15.4133C40.221 15.1096 40.0689 14.8059 39.9169 14.5781C39.7648 14.2744 39.6128 13.9707 39.4607 13.7429C39.3086 13.4392 39.1566 13.2114 38.9285 12.9077C38.7764 12.604 38.5483 12.3762 38.3962 12.0725C38.2442 11.8448 38.0161 11.541 37.864 11.3132C37.712 11.0096 37.4839 10.7818 37.3318 10.554C37.1797 10.3262 36.9516 10.0225 36.7996 9.79472C36.5715 9.56693 36.4194 9.26323 36.1913 9.03544C35.9632 8.80766 35.8112 8.50396 35.5831 8.27618C35.355 8.0484 35.2029 7.82062 34.9748 7.51691C34.7467 7.28913 34.5946 7.06135 34.3666 6.83357C34.2145 6.60579 33.9864 6.45394 33.8343 6.22615L33.9104 6.15023C33.9864 6.07431 33.9864 6.0743 33.9864 5.99837C34.1385 5.99837 34.2145 5.99838 34.2145 5.92245C34.2145 5.84652 34.2905 5.7706 34.2905 5.69466C34.2905 5.61874 34.3666 5.54282 34.3666 5.46689C34.3666 5.39096 34.4426 5.31503 34.4426 5.23911C34.4426 5.16319 34.4426 5.08725 34.4426 5.01133C34.4426 4.9354 34.4426 4.85948 34.4426 4.78354C34.4426 4.70762 34.4426 4.6317 34.4426 4.55576C34.4426 4.47984 34.4426 4.40391 34.4426 4.32799C34.4426 4.25206 34.4426 4.17613 34.3666 4.10021C34.3666 4.02428 34.2905 3.94835 34.2905 3.87243C34.2905 3.7965 34.2145 3.72058 34.2145 3.72058C34.2145 3.7965 34.2145 3.72058 34.1385 3.72058L34.0624 3.64464L33.9864 3.56872L33.9104 3.49279C33.8343 3.41686 33.8343 3.41686 33.7583 3.34094C33.6823 3.26501 33.6823 3.26501 33.6062 3.18909C33.4542 3.03723 33.3781 3.03723 33.3781 2.96131C33.3021 2.96131 33.2261 2.88538 33.15 2.88538C33.074 2.88538 32.998 2.80945 32.9219 2.80945C32.8459 2.80945 32.7699 2.73352 32.6939 2.73352C32.6178 2.73352 32.5418 2.73352 32.4658 2.73352C32.3897 2.73352 32.3137 2.73352 32.2377 2.73352C32.1616 2.73352 32.0856 2.73352 32.0096 2.73352C31.9335 2.73352 31.8575 2.73352 31.7815 2.73352C31.7054 2.73352 31.6294 2.73352 31.5534 2.80945C31.4773 2.80945 31.4013 2.88538 31.3253 2.88538C31.2492 2.88538 31.1732 2.96131 31.0972 2.96131C31.2492 3.03723 31.1732 3.03723 31.0972 3.11315C31.0212 3.18909 30.9451 3.18909 30.9451 3.26501C30.8691 3.34094 30.8691 3.34094 30.7931 3.41686C30.717 3.49279 30.717 3.49279 30.641 3.56872C30.565 3.64464 30.565 3.64464 30.4889 3.72058C30.4889 3.72058 30.4129 3.7965 30.4129 3.87243C30.4129 3.94835 30.3369 4.02428 30.3369 4.10021C30.3369 4.17613 30.2608 4.25206 30.2608 4.32799C30.2608 4.40391 30.1848 4.47984 30.1848 4.55576C30.1848 4.6317 30.1848 4.70762 30.1848 4.78354C30.1848 4.85948 30.1848 4.9354 30.1848 5.01133C30.1848 5.08725 30.1848 5.16319 30.1848 5.23911C30.1848 5.31503 30.1848 5.39096 30.1848 5.46689C30.1848 5.54282 30.1848 5.61874 30.2608 5.69466C30.2608 5.7706 30.3369 5.84652 30.3369 5.92245C30.3369 5.99838 30.4129 6.07431 30.4129 6.15023C30.4129 5.99837 30.4889 6.0743 30.4889 6.0743C30.4889 6.15023 30.565 6.15023 30.565 6.22615L30.641 6.30209C30.4889 6.52986 30.2608 6.68172 30.1088 6.9095C29.8807 7.13728 29.7286 7.36506 29.5005 7.59284C29.2724 7.82062 29.1204 8.0484 28.8923 8.35211C28.6642 8.57989 28.5121 8.80766 28.284 9.11137C28.0559 9.33915 27.9038 9.64286 27.6757 9.87064C27.4477 10.0984 27.2956 10.4021 27.1435 10.6299C26.9915 10.8577 26.7634 11.1614 26.6113 11.3892C26.4592 11.617 26.2311 11.9207 26.0791 12.1485C25.927 12.4521 25.6989 12.6799 25.5469 12.9836C25.3948 13.2874 25.1667 13.5152 25.0146 13.8188C24.8626 14.1225 24.7105 14.3503 24.5584 14.6541C24.4064 14.9577 24.2543 15.2614 24.1022 15.4892C23.9502 15.7929 23.7981 16.0967 23.6461 16.3244C23.494 16.6281 23.3419 16.9318 23.1899 17.2356C23.0378 17.5392 22.8857 17.8429 22.8097 18.1467C22.6576 18.4504 22.5056 18.7541 22.4295 19.0578C22.4295 19.1337 22.4295 19.1337 22.3535 19.2096C22.3535 19.2856 22.3535 19.2856 22.3535 19.3615C22.3535 19.4374 22.3535 19.4374 22.3535 19.5133C22.3535 19.5893 22.3535 19.5893 22.3535 19.6652C22.3535 19.7411 22.3535 19.7411 22.4295 19.8171C22.4295 19.893 22.5056 19.893 22.5056 19.9689C22.5056 20.0449 22.5816 20.0449 22.5816 20.1207C22.5816 20.1966 22.6576 20.1966 22.6576 20.2726L22.7337 20.3485L22.8097 20.4244L23.7981 20.956V28.7764V28.9283V29.0042H23.8742H24.0262H25.3188H25.4708H25.5469V28.9283V28.7764V21.1838V20.4244H25.6989Z" fill="white"/>
<path fill-rule="evenodd" clip-rule="evenodd" d="M41.4374 56.8692L44.3266 55.1228C44.5547 54.971 44.7067 54.895 44.9348 54.8192C45.1629 54.7433 45.391 54.6673 45.5431 54.5914C45.7712 54.5155 45.9993 54.4395 46.2274 54.4395C46.4555 54.3636 46.6836 54.3636 46.9117 54.3636C47.0637 54.3636 47.2158 54.3636 47.3678 54.3636C47.5199 54.3636 47.672 54.3636 47.824 54.3636C47.9761 54.3636 48.0521 54.3636 48.2042 54.4395C48.2802 54.4395 48.3563 54.4395 48.4323 54.5155C48.4323 54.4395 48.5083 54.3636 48.5083 54.2877C48.5083 54.1358 48.5844 54.0599 48.6604 53.908C48.7364 53.7561 48.8124 53.6043 48.8124 53.4525C48.8885 53.3006 48.9645 53.1488 49.0405 53.0728C49.1926 52.845 49.2686 52.6932 49.4207 52.5413C49.5728 52.3894 49.7248 52.1617 49.8769 52.0099C50.029 51.858 50.181 51.7061 50.4091 51.5543C50.5612 51.4024 50.7893 51.2505 50.9413 51.1746L51.3215 50.9469L52.6901 50.1117L53.9066 49.4284L48.5083 40.469L45.9232 42.0634L45.6191 42.1393C45.467 42.2153 45.391 42.2912 45.239 42.3671C45.0869 42.4431 45.0109 42.5949 44.8588 42.6709L44.7828 42.8227L44.7067 42.9746C44.6307 43.0505 44.5547 43.1265 44.5547 43.2024C44.4786 43.2782 44.4786 43.3541 44.4026 43.4301C44.3266 43.5819 44.2505 43.7338 44.1745 43.8097C44.0985 43.9616 44.0224 44.1135 44.0224 44.2653C44.0224 44.4172 43.9464 44.4931 43.9464 44.6449C43.9464 44.7208 43.8704 44.8727 43.8704 45.0246V45.1005H43.7943L42.4258 45.9357H42.3497H42.2737C42.1977 45.8597 42.0456 45.8597 41.9696 45.7839C41.8175 45.7839 41.7415 45.708 41.6655 45.708C41.5134 45.708 41.3613 45.632 41.2093 45.632C41.0572 45.632 40.9051 45.632 40.7531 45.632C40.601 45.632 40.4489 45.632 40.2969 45.708C40.1448 45.708 39.9928 45.7839 39.8407 45.7839C39.6886 45.8597 39.5366 45.8597 39.3845 45.9357C39.2324 46.0116 39.0804 46.0875 39.0043 46.1635L36.1151 47.9098L41.4374 56.8692ZM29.9566 45.1764C30.0326 45.3283 30.0326 45.3283 30.1086 45.4042C30.1846 45.5561 30.1846 45.632 30.2607 45.7839C30.2607 45.9357 30.3367 46.0875 30.3367 46.2394C30.3367 46.3913 30.3367 46.5431 30.2607 46.695C30.2607 46.8469 30.1846 46.9987 30.1086 47.0747C30.0326 47.3023 29.8045 47.6061 29.6524 47.7579L29.5764 47.8339L29.5004 47.9098C29.4243 47.9857 29.3483 47.9857 29.2723 48.0617C29.1962 48.1376 29.1202 48.1376 28.9681 48.2135L39.7647 61.8803C40.525 61.7285 41.2093 61.5007 41.8936 61.273C42.6539 61.0452 43.3382 60.7414 44.0224 60.4377C45.6191 59.7544 47.2158 58.9951 48.6604 58.0081C50.105 57.097 51.4736 56.034 52.7661 54.895C52.6901 54.5155 52.538 54.0599 52.3859 53.6802C52.2339 53.3006 52.1579 52.921 52.0058 52.5413L51.9298 52.6172C51.7777 52.6932 51.7017 52.7691 51.5496 52.845C51.3975 52.921 51.3215 53.0728 51.1694 53.1488C51.0934 53.2247 50.9413 53.3766 50.8653 53.5284C50.7893 53.6802 50.7132 53.7561 50.6372 53.908C50.5612 54.0599 50.4852 54.2117 50.4091 54.2877C50.3331 54.4395 50.2571 54.5914 50.2571 54.7433C50.2571 54.895 50.181 54.971 50.181 55.1228C50.181 55.1987 50.105 55.3506 50.105 55.5025V55.5784H50.029L48.7364 56.3376L48.6604 56.4136H48.5844H48.5083C48.4323 56.3376 48.2802 56.3376 48.2042 56.2617C48.0521 56.2617 47.9761 56.1858 47.9001 56.1858C47.748 56.1858 47.5959 56.1099 47.4439 56.1099C47.2918 56.1099 47.1397 56.1099 46.9877 56.1099C46.8356 56.1099 46.6836 56.1099 46.5315 56.1858C46.3794 56.1858 46.2274 56.2617 46.0753 56.2617C45.9232 56.3376 45.7712 56.3376 45.6191 56.4136C45.467 56.4895 45.315 56.5654 45.239 56.6414L41.5894 58.8432L41.0572 59.1469L40.9051 59.2229L40.8291 59.2988L40.7531 59.2229L40.677 59.071L40.3729 58.5396L34.0623 48.0617L33.7581 47.5302L33.6821 47.3783L33.6061 47.3023L33.6821 47.2264L33.8342 47.1505L34.3664 46.8469L38.0159 44.6449C38.244 44.4931 38.3961 44.4172 38.6242 44.3413C38.8523 44.2653 39.0804 44.1894 39.2324 44.1135C39.4605 44.0375 39.6886 43.9616 39.9167 43.9616C40.1448 43.8857 40.3729 43.8857 40.601 43.8857C40.7531 43.8857 40.9051 43.8857 41.0572 43.8857C41.2093 43.8857 41.3613 43.8857 41.5134 43.8857C41.6655 43.8857 41.7415 43.8857 41.8936 43.9616C41.9696 43.9616 42.0456 43.9616 42.1216 44.0375C42.1216 43.9616 42.1977 43.8857 42.1977 43.8097C42.1977 43.6579 42.2737 43.5819 42.3497 43.4301C42.4258 43.2782 42.5018 43.1265 42.5018 42.9746C42.5778 42.8227 42.6539 42.6709 42.7299 42.5949C42.8059 42.519 42.882 42.3671 42.882 42.2912L43.034 42.1393C42.5778 41.8357 42.1216 41.6079 41.5894 41.3801C41.0572 41.1523 40.525 40.9245 40.0688 40.6967L29.9566 45.1764ZM38.6242 0.607414C36.5713 0.22778 34.5185 0 32.3135 0C30.1846 0 28.0558 0.22778 26.0029 0.607414C23.874 0.987049 21.8972 1.67039 19.9203 2.42966C17.9435 3.26485 16.1188 4.2519 14.294 5.3908C12.5453 6.60563 10.8726 7.89639 9.35192 9.41492C7.83128 10.9335 6.53874 12.5279 5.32223 14.3502C4.18175 16.0965 3.11731 17.9946 2.35699 19.9688C1.52064 21.8669 0.912382 23.9169 0.532223 26.0429C0.228096 28.017 0 30.143 0 32.2689C0 34.3948 0.228096 36.5208 0.608255 38.5708C0.988414 40.6967 1.6727 42.6709 2.43302 44.6449C3.26937 46.6191 4.25778 48.4412 5.39826 50.2635C6.61477 52.0099 7.90731 53.6802 9.42795 55.1987C12.3932 58.1599 15.9667 60.5896 19.9203 62.1841C21.8211 63.0192 23.874 63.6267 26.0029 64.0062C28.0558 64.3859 30.1846 64.6137 32.3135 64.6137C33.454 64.6137 34.5945 64.5378 35.735 64.4618C36.8754 64.31 37.9399 64.1581 39.0804 63.9303C39.3845 63.8545 39.6126 63.7785 39.9167 63.7026C40.2208 63.6267 40.525 63.5507 40.7531 63.4748C41.4374 63.3229 42.1216 63.0951 42.7299 62.8673C43.4142 62.6395 44.0224 62.4118 44.7067 62.1081C46.3034 61.4247 47.824 60.6655 49.2686 59.8303C50.7132 58.9191 52.0818 57.9321 53.3744 56.7932C53.6025 56.5654 53.8306 56.4136 54.0586 56.1858C54.2867 55.9581 54.5148 55.7303 54.7429 55.5784L54.971 55.3506L55.1991 55.1228C56.7198 53.6043 58.0123 52.0099 59.2288 50.1876C60.3693 48.4412 61.4337 46.5431 62.1941 44.569C63.0304 42.6709 63.6387 40.6209 64.0188 38.4949C64.399 36.4449 64.6271 34.3189 64.6271 32.193C64.6271 30.067 64.399 27.941 64.0188 25.891C63.6387 23.7651 62.9544 21.791 62.1941 19.8169C61.3577 17.8428 60.3693 16.0206 59.2288 14.1983C58.0123 12.452 56.7198 10.7816 55.1991 9.26306C53.6785 7.74453 52.0818 6.45378 50.2571 5.23894C48.5083 4.10004 46.6075 3.03707 44.6307 2.2778C42.7299 1.67039 40.7531 1.06298 38.6242 0.607414ZM28.2838 45.708H28.2078H28.1318C28.0558 45.708 28.0558 45.708 28.0558 45.708H27.9797C27.9797 45.708 27.9037 45.708 27.9037 45.7839L27.8277 45.8597C27.8277 45.8597 27.8277 45.9357 27.7516 45.9357C27.7516 45.9357 27.7516 46.0116 27.6756 46.0116V46.0875V46.1635C27.6756 46.2394 27.6756 46.2394 27.6756 46.2394C27.6756 46.3153 27.6756 46.3153 27.6756 46.3153C27.6756 46.3153 27.6756 46.3913 27.7516 46.3913L27.8277 46.4672L27.9037 46.5431L27.9797 46.6191H28.0558H28.1318C28.2078 46.6191 28.2078 46.6191 28.2838 46.6191C28.3599 46.6191 28.3599 46.6191 28.3599 46.6191C28.3599 46.6191 28.4359 46.6191 28.4359 46.5431C28.4359 46.5431 28.5119 46.5431 28.5119 46.4672L28.588 46.3913L28.664 46.3153V46.2394V46.1635C28.664 46.0875 28.664 46.0875 28.664 46.0875V46.0116C28.664 46.0116 28.664 45.9357 28.588 45.9357L28.5119 45.8597L28.4359 45.7839C28.3599 45.7839 28.3599 45.7839 28.2838 45.708ZM22.6575 41.456C21.593 41.9875 20.6046 42.5949 19.6922 43.2782C18.7799 43.9616 17.9435 44.7208 17.1832 45.4802C16.4229 46.2394 15.8146 47.0747 15.1303 47.9098L26.0029 46.8469C26.0029 46.7709 25.9269 46.695 25.9269 46.6191C25.9269 46.4672 25.9269 46.3913 25.9269 46.2394C25.9269 46.0875 25.9269 45.9357 26.0029 45.7839C26.0029 45.632 26.0789 45.4802 26.155 45.4042C26.231 45.3283 26.231 45.1764 26.307 45.1005C26.3831 45.0246 26.3831 44.9486 26.4591 44.8727L26.5351 44.7968L26.6111 44.7208C26.6872 44.6449 26.8392 44.569 26.9153 44.4172C27.0673 44.3413 27.1434 44.2653 27.2954 44.1894C27.3715 44.1894 27.4475 44.1135 27.5235 44.1135H27.6756L25.7748 40.0893C24.7104 40.5449 23.6459 40.9245 22.6575 41.456ZM2.35699 26.3466C2.73715 24.3725 3.3454 22.4744 4.10572 20.6521C4.86604 18.8298 5.85445 17.0076 6.9189 15.4131C8.05938 13.7427 9.27589 12.2243 10.7205 10.7816C12.1651 9.339 13.6857 8.12417 15.3584 6.98527C17.0311 5.84637 18.7799 4.93524 20.6046 4.17598C22.4294 3.41671 24.3302 2.80929 26.307 2.42966C28.2078 2.05002 30.2607 1.82224 32.2375 1.82224C34.2904 1.82224 36.2672 2.05002 38.168 2.42966C40.1448 2.80929 42.0456 3.41671 43.8704 4.17598C45.6951 4.93524 47.5199 5.92229 49.1166 6.98527C50.7893 8.12417 52.3099 9.339 53.7545 10.7816C55.1991 12.2243 56.4156 13.7427 57.5561 15.4131C58.6966 17.0835 59.609 18.8298 60.3693 20.6521C61.1296 22.4744 61.7379 24.3725 62.118 26.3466C62.4982 28.2448 62.7263 30.2948 62.7263 32.2689C62.7263 34.3189 62.4982 36.293 62.118 38.1911C61.7379 40.1653 61.1296 42.0634 60.3693 43.8857C59.609 45.708 58.6966 47.4542 57.6321 49.0487C56.5677 50.6432 55.3512 52.0858 54.0586 53.4525C53.9826 53.1488 53.9066 52.845 53.7545 52.5413C53.6025 52.2377 53.5264 51.858 53.3744 51.5543L55.4272 50.3395L55.9594 50.0357L56.1115 49.9598L56.1875 49.8839L56.1115 49.8079L56.2636 49.732L55.9594 49.2006L49.5728 38.7227L49.2686 38.1911L49.1926 38.0394L49.1166 37.9634L49.0405 38.0394L48.8885 38.1152L48.3563 38.4189L44.7067 40.6209L44.5547 40.6967L44.4786 40.7726C44.0985 40.5449 43.6423 40.2412 43.1861 40.0134C42.7299 39.7856 42.2737 39.5578 41.8175 39.3301L41.4374 39.1783L41.0572 39.0264L40.677 38.8745L40.1448 38.7227H40.0688H39.9928H39.9167H39.8407L29.1962 43.582L26.6872 38.2671L26.6111 38.1152V38.0394H26.5351H26.3831C25.3946 38.2671 24.4823 38.6467 23.4938 39.0264C22.5815 39.406 21.6691 39.8615 20.7567 40.3171C19.8443 40.8486 19.008 41.3801 18.2476 41.9875C17.4113 42.5949 16.651 43.2782 15.9667 43.9616C15.6626 44.2653 15.3584 44.6449 15.0543 44.9486C14.7502 45.3283 14.4461 45.632 14.1419 46.0116C13.8378 46.3913 13.6097 46.7709 13.3056 47.0747C13.0775 47.4542 12.7734 47.8339 12.5453 48.2135V48.2895C12.4692 48.4412 12.3932 48.5172 12.3932 48.5931C12.3932 48.745 12.3172 48.8209 12.3932 49.0487C12.3932 49.1246 12.3932 49.1246 12.4692 49.2006C12.4692 49.2765 12.4692 49.2765 12.5453 49.3524C12.5453 49.4284 12.6213 49.4284 12.6213 49.5043C12.6213 49.5802 12.6973 49.5802 12.6973 49.5802C12.7734 49.6562 12.8494 49.732 12.9254 49.732C13.0014 49.8079 13.0775 49.8079 13.1535 49.8079C13.2295 49.8079 13.3056 49.8079 13.3816 49.8079C13.4576 49.8079 13.5337 49.8079 13.6097 49.8079L26.9153 48.5931L37.7118 62.26C36.8754 62.4118 35.9631 62.5637 35.1267 62.6395C34.2143 62.7155 33.302 62.7914 32.3135 62.7914C30.2607 62.7914 28.2838 62.5637 26.3831 62.1841C24.4062 61.8044 22.5054 61.197 20.6807 60.4377C18.8559 59.6785 17.0311 58.6915 15.4345 57.6284C13.7618 56.4895 12.2411 55.2747 10.7965 53.8321C9.35192 52.3894 8.13541 50.871 6.99493 49.2006C5.85445 47.5301 4.94207 45.7839 4.18175 43.9616C3.42143 42.1393 2.81318 40.2412 2.43302 38.2671C2.05286 36.3689 1.82476 34.3189 1.82476 32.3448C1.82476 30.2189 1.97683 28.2448 2.35699 26.3466Z" fill="white"/>
<path fill-rule="evenodd" clip-rule="evenodd" d="M26.687 23.9168V24.5243V24.6761V24.7521H26.7631H26.9151L29.8044 24.828V27.4095V28.8521C29.9564 29.1558 30.1085 29.3836 30.3366 29.6114C30.4886 29.8392 30.6407 29.991 30.7928 30.1429C30.1085 30.5225 29.4242 30.9021 28.6639 31.2059C27.9036 31.5854 27.1432 31.8132 26.3069 32.1169C25.5466 32.4207 24.7863 32.6485 24.0259 32.8002C23.3416 33.028 22.6574 33.1799 22.1251 33.3318L22.0491 33.4836C21.9731 33.5596 21.897 33.5596 21.897 33.6355C21.821 33.7114 21.821 33.7114 21.745 33.7874C21.745 33.8633 21.6689 33.9392 21.6689 34.0152C21.6689 34.091 21.6689 34.1669 21.6689 34.2429V34.3188V34.3947V34.4707V34.5466V34.6225L21.745 34.6985L21.821 34.7744L21.897 34.8503C21.897 34.8503 21.9731 34.9263 22.0491 34.9263C22.0491 34.9263 22.0491 34.9263 22.1251 34.9263C22.2012 34.9263 22.2012 34.9263 22.2772 34.9263C22.3532 34.9263 22.3532 34.9263 22.4293 34.9263C22.7334 34.8503 23.0375 34.8503 23.3416 34.7744C23.6458 34.6985 23.9499 34.6985 24.254 34.6225C24.5582 34.5466 24.8623 34.4707 25.1664 34.3947C25.4705 34.3188 25.7747 34.2429 26.0788 34.1669C26.3829 34.091 26.687 33.9392 27.0672 33.8633C27.3713 33.7874 27.7515 33.6355 28.0556 33.4836C28.4358 33.3318 28.7399 33.2558 29.1201 33.104C29.5002 32.9521 29.8804 32.8002 30.2605 32.6485L30.5647 32.4966L30.8688 32.3447L31.1729 32.1929L31.4771 32.041L31.7812 31.8892C31.8572 31.8132 32.0093 31.8132 32.0853 31.7373L32.3134 31.5854L32.5415 31.4337C32.9977 31.6614 33.5299 31.8892 33.9101 32.041C34.3663 32.2688 34.8225 32.4207 35.2787 32.6485C35.7348 32.8002 36.115 33.028 36.4952 33.1799C36.8753 33.3318 37.2555 33.4836 37.6356 33.6355C38.0158 33.7874 38.396 33.8633 38.7761 34.0152C39.1563 34.091 39.4604 34.2429 39.8406 34.3188C40.2207 34.3947 40.5248 34.4707 40.905 34.5466C41.2091 34.6225 41.5893 34.6985 41.9695 34.6985C42.0455 34.6985 42.0455 34.6985 42.1215 34.6985C42.1976 34.6985 42.1975 34.6985 42.2736 34.6985C42.3496 34.6985 42.3496 34.6985 42.4256 34.6225C42.5017 34.6225 42.5017 34.5466 42.5777 34.5466L42.6537 34.4707L42.7298 34.3947L42.8058 34.3188L42.8818 34.2429V34.1669V34.091V34.0152V33.9392C42.8818 33.8633 42.8818 33.7874 42.8818 33.7114C42.8818 33.6355 42.8818 33.5596 42.8058 33.4836C42.8058 33.4077 42.7298 33.3318 42.6537 33.3318C42.5777 33.2558 42.5777 33.2558 42.5017 33.1799L42.1975 33.104C41.5133 32.9521 40.7529 32.7244 39.8406 32.4207C38.9282 32.117 37.9398 31.8132 36.9514 31.4337C35.9629 31.054 35.0506 30.5984 34.1382 30.067C33.3018 29.5354 32.4655 28.928 31.8572 28.3206V23.5373V23.3854V23.3095H31.7812H31.6291L27.2193 23.1576H27.0672H26.9912V23.2335V23.3854L26.687 23.9168Z" fill="white"/>
<path fill-rule="evenodd" clip-rule="evenodd" d="M33.6063 23.5374L33.6823 24.7522V24.98V25.0558H33.7584H33.9104H33.9865L37.712 24.8281H37.8641H38.0162V24.7522V24.6003V24.5244L37.9401 23.3096V23.2337V23.0818V23.0059H37.7881H37.636L33.8344 23.2337H33.6823H33.5303L33.6063 23.3096V23.4615V23.5374Z" fill="white"/>
<path fill-rule="evenodd" clip-rule="evenodd" d="M32.3134 38.8746C32.1614 38.8746 31.9333 38.8746 31.7812 38.7986C31.5531 38.7228 31.4011 38.7228 31.173 38.5709C30.9449 38.495 30.7928 38.3431 30.5647 38.2672C30.3366 38.1153 30.1845 37.9635 29.9565 37.8116C29.7284 37.6597 29.5763 37.4321 29.3482 37.2802C29.1201 37.0524 28.968 36.8246 28.816 36.6727C28.6639 36.4449 28.5118 36.2171 28.3598 35.9894C28.2077 35.7616 28.1317 35.5338 28.0557 35.382V35.306L27.9796 35.2301H27.9036H27.8276L26.611 35.6857H26.535H26.459V35.7616V35.8376C26.535 36.1413 26.6871 36.4449 26.8391 36.7487C26.9912 37.0524 27.2193 37.3561 27.3714 37.6597C27.5995 37.9635 27.8276 38.2672 28.0557 38.495C28.2838 38.7986 28.5879 39.0264 28.892 39.2542C29.1961 39.482 29.5003 39.7098 29.7284 39.9376C30.0325 40.1653 30.3366 40.3172 30.6407 40.4691C30.9449 40.6209 31.249 40.6969 31.4771 40.7728C31.7812 40.8487 32.0093 40.8487 32.2374 40.8487C32.4655 40.8487 32.7696 40.8487 32.9977 40.7728C33.3019 40.6969 33.5299 40.6209 33.8341 40.4691C34.1382 40.3172 34.4423 40.1653 34.7465 39.9376C35.0506 39.7098 35.3547 39.482 35.6588 39.2542C35.963 39.0264 36.1911 38.7228 36.4952 38.495C36.7233 38.1913 36.9514 37.9635 37.1795 37.6597C37.4076 37.3561 37.5596 37.0524 37.7117 36.7487C37.8638 36.4449 38.0158 36.1413 38.0919 35.8376V35.7616V35.6857H38.0158H37.9398L36.7233 35.2301H36.6473H36.5712L36.4952 35.306V35.382C36.4192 35.6098 36.3431 35.8376 36.1911 35.9894C36.039 36.2171 35.8869 36.4449 35.7349 36.6727C35.5828 36.9005 35.3547 37.1283 35.2026 37.2802C35.0506 37.5079 34.8225 37.6597 34.5944 37.8116C34.3663 37.9635 34.2142 38.1153 33.9861 38.2672C33.758 38.4191 33.606 38.495 33.3779 38.5709C33.1498 38.6469 32.9977 38.7228 32.7696 38.7986C32.6936 38.8746 32.5415 38.8746 32.3134 38.8746Z" fill="white"/>
</svg>
