<svg width="70" height="50" viewBox="0 0 70 50" fill="none" xmlns="http://www.w3.org/2000/svg">
<path fill-rule="evenodd" clip-rule="evenodd" d="M60 1.6129H10C7.23858 1.6129 5 3.77927 5 6.45161V40.129C5 40.6813 5.44771 41.129 6 41.129H64C64.5523 41.129 65 40.6813 65 40.129V6.45161C65 3.77927 62.7614 1.6129 60 1.6129ZM10 0C6.3181 0 3.33333 2.88849 3.33333 6.45161V40.129C3.33333 40.6813 3.78105 41.129 4.33333 41.129H65.6667C66.2189 41.129 66.6667 40.6813 66.6667 40.129V6.45161C66.6667 2.88849 63.6819 0 60 0H10Z" fill="black"/>
<path fill-rule="evenodd" clip-rule="evenodd" d="M7.5 8.25806C7.5 7.70578 7.94771 7.25806 8.5 7.25806H62.0968C62.3195 7.25806 62.5 7.43859 62.5 7.66129C62.5 7.88399 62.3195 8.06452 62.0968 8.06452H9.33333C8.78105 8.06452 8.33333 8.51223 8.33333 9.06452V31.4382C8.33333 31.6683 8.14678 31.8548 7.91667 31.8548C7.68655 31.8548 7.5 31.6683 7.5 31.4382V8.25806ZM62.0865 10.8147C62.3166 10.8147 62.5032 11.0013 62.5032 11.2314V38.5161C62.5032 39.0684 62.0554 39.5161 61.5032 39.5161H8.5C7.94772 39.5161 7.5 39.0684 7.5 38.5161V34.2876C7.5 34.0575 7.68655 33.871 7.91667 33.871C8.14678 33.871 8.33333 34.0575 8.33333 34.2876V37.7097C8.33333 38.262 8.78105 38.7097 9.33333 38.7097H60.6698C61.2221 38.7097 61.6698 38.262 61.6698 37.7097V11.2314C61.6698 11.0013 61.8564 10.8147 62.0865 10.8147Z" fill="black"/>
<path fill-rule="evenodd" clip-rule="evenodd" d="M63.3333 48.3871H6.66667C3.90524 48.3871 1.66667 46.2207 1.66667 43.5484C1.66667 43.103 2.02773 42.7419 2.47312 42.7419H67.5269C67.9723 42.7419 68.3333 43.103 68.3333 43.5484C68.3333 46.2207 66.0947 48.3871 63.3333 48.3871ZM6.66667 50C2.98477 50 0 47.1115 0 43.5484V42.129C0 41.5767 0.447715 41.129 1 41.129H69C69.5523 41.129 70 41.5767 70 42.129V43.5484C70 47.1115 67.0152 50 63.3333 50H6.66667Z" fill="black"/>
<path fill-rule="evenodd" clip-rule="evenodd" d="M39.1667 44.7581C39.1667 44.9808 38.9861 45.1613 38.7634 45.1613H31.2366C31.0139 45.1613 30.8333 44.9808 30.8333 44.7581C30.8333 44.5354 31.0139 44.3548 31.2366 44.3548H38.7634C38.9861 44.3548 39.1667 44.5354 39.1667 44.7581Z" fill="black"/>
<path fill-rule="evenodd" clip-rule="evenodd" d="M37.5 4.43548C37.5 4.65818 37.3195 4.83871 37.0968 4.83871H34.5699C34.3472 4.83871 34.1667 4.65818 34.1667 4.43548C34.1667 4.21279 34.3472 4.03226 34.5699 4.03226H37.0968C37.3195 4.03226 37.5 4.21279 37.5 4.43548Z" fill="black"/>
<path d="M23.3333 16.6624H22.8333V17.6624H23.3333V16.6624ZM37.3026 17.6624C37.5788 17.6624 37.8026 17.4385 37.8026 17.1624C37.8026 16.8863 37.5788 16.6624 37.3026 16.6624V17.6624ZM38.7061 16.5868H38.2061V17.5868H38.7061V16.5868ZM40.5044 17.5868H41.0044V16.5868H40.5044V17.5868ZM42.5658 16.6624C42.2896 16.6624 42.0658 16.8863 42.0658 17.1624C42.0658 17.4385 42.2896 17.6624 42.5658 17.6624V16.6624ZM47.0833 17.6624H47.5833V16.6624H47.0833V17.6624ZM35 22.9483L35.2161 23.3992L36.1571 22.9483L35.2161 22.4974L35 22.9483ZM27.4342 29.112C27.1581 29.112 26.9342 29.3358 26.9342 29.612C26.9342 29.8881 27.1581 30.112 27.4342 30.112V29.112ZM46.6667 30.112H47.1667V29.112H46.6667V30.112ZM23.3333 29.112H22.8333V30.112H23.3333V29.112ZM25.4605 30.112C25.7367 30.112 25.9605 29.8881 25.9605 29.612C25.9605 29.3358 25.7367 29.112 25.4605 29.112V30.112ZM25.8333 13.4033H44.1667V12.4033H25.8333V13.4033ZM47 16.1291V30.6453H48V16.1291H47ZM44.1667 33.3711H25.8333V34.3711H44.1667V33.3711ZM23 30.6453V16.1291H22V30.6453H23ZM25.8333 33.3711C24.2529 33.3711 23 32.1353 23 30.6453H22C22 32.7183 23.7318 34.3711 25.8333 34.3711V33.3711ZM47 30.6453C47 32.1353 45.7471 33.3711 44.1667 33.3711V34.3711C46.2682 34.3711 48 32.7183 48 30.6453H47ZM44.1667 13.4033C45.7471 13.4033 47 14.639 47 16.1291H48C48 14.0561 46.2682 12.4033 44.1667 12.4033V13.4033ZM25.8333 12.4033C23.7318 12.4033 22 14.0561 22 16.1291H23C23 14.639 24.2529 13.4033 25.8333 13.4033V12.4033ZM35.6579 26.1049H40.9211V25.1049H35.6579V26.1049ZM23.3333 17.6624H37.3026V16.6624H23.3333V17.6624ZM38.7061 17.5868H40.5044V16.5868H38.7061V17.5868ZM42.5658 17.6624H47.0833V16.6624H42.5658V17.6624ZM34.7839 22.4974L28.8629 25.3346L29.295 26.2364L35.2161 23.3992L34.7839 22.4974ZM28.8629 20.5619L34.7839 23.3992L35.2161 22.4974L29.295 19.6601L28.8629 20.5619ZM27.4342 30.112H46.6667V29.112H27.4342V30.112ZM23.3333 30.112H25.4605V29.112H23.3333V30.112Z" fill="black"/>
</svg>
