<svg width="48" height="48" viewBox="0 0 48 48" fill="none" xmlns="http://www.w3.org/2000/svg">
<path d="M22.3158 11H24.6842C24.8947 11 25 11.0926 25 11.2778V35.7222C25 35.9074 24.8947 36 24.6842 36H22.3158C22.1053 36 22 35.9074 22 35.7222V11.2778C22 11.0926 22.1053 11 22.3158 11Z" fill="black"/>
<path d="M11.2907 22.2188H35.7093C35.9031 22.2188 36 22.324 36 22.5345V24.903C36 25.1135 35.9031 25.2188 35.7093 25.2188H11.2907C11.0969 25.2188 11 25.1135 11 24.903V22.5345C11 22.324 11.0969 22.2188 11.2907 22.2188Z" fill="black"/>
</svg>
