<svg width="70" height="70" viewBox="0 0 70 70" fill="none" xmlns="http://www.w3.org/2000/svg">
<path d="M6 28.096L14.4373 2H55.5627L64 28.096V69H6V28.096Z" stroke="black" stroke-width="2"/>
<path d="M57.9509 35.4999C57.9509 37.0462 56.6837 38.3081 55.1102 38.3081C53.5367 38.3081 52.2695 37.0462 52.2695 35.4999C52.2695 33.9535 53.5367 32.6917 55.1102 32.6917C56.6837 32.6917 57.9509 33.9535 57.9509 35.4999ZM57.9509 48.7327C57.9509 50.2791 56.6837 51.541 55.1102 51.541C53.5367 51.541 52.2695 50.2791 52.2695 48.7327C52.2695 47.1864 53.5367 45.9245 55.1102 45.9245C56.6837 45.9245 57.9509 47.1864 57.9509 48.7327ZM57.9509 61.0204C57.9509 62.5668 56.6837 63.8286 55.1102 63.8286C53.5367 63.8286 52.2695 62.5668 52.2695 61.0204C52.2695 59.4741 53.5367 58.2122 55.1102 58.2122C56.6837 58.2122 57.9509 59.4741 57.9509 61.0204Z" stroke="black"/>
<path d="M5.9541 42.1165H63.2232M5.9541 55.3494H62.746M26.9528 35.5H38.4066M26.9528 48.7329H38.4066M27.9073 61.9658H39.3611M42.2245 35.5H46.997M42.2245 48.7329H46.997M42.2245 61.9658H46.997M12.6355 32.6644H21.2259M12.6355 45.8973H21.2259M12.6355 59.1302H21.2259M12.6355 35.5H21.2259M12.6355 48.7329H21.2259M12.6355 61.9658H21.2259M12.6355 38.3357H21.2259M12.6355 51.5685H21.2259M12.6355 64.8014H21.2259" stroke="black"/>
</svg>
