<svg width="26" height="27" viewBox="0 0 26 27" fill="none" xmlns="http://www.w3.org/2000/svg">
<g clip-path="url(#clip0_767_842)">
<path d="M13 27.0001C20.1814 27.0001 26 21.0829 26 13.7798C26 6.47663 20.1814 0.559448 13 0.559448C5.81858 0.559448 0 6.47663 0 13.7798C0 21.0829 5.81858 27.0001 13 27.0001ZM5.94858 13.4933L18.4828 8.57866C19.0645 8.36494 19.5726 8.72299 19.3841 9.61756L19.3852 9.61646L17.251 19.8413C17.0928 20.5661 16.6693 20.7425 16.0767 20.4009L12.8267 17.9651L11.2591 19.5009C11.0858 19.6771 10.9395 19.8258 10.6037 19.8258L10.8344 16.4624L16.8578 10.9285C17.1199 10.6939 16.7993 10.5617 16.4537 10.7953L9.01008 15.5612L5.80125 14.5433C5.10467 14.3185 5.0895 13.8349 5.94858 13.4933Z" fill="white"/>
</g>
<defs>
<clipPath id="clip0_767_842">
<rect width="26" height="26.4406" fill="white" transform="translate(0 0.559448)"/>
</clipPath>
</defs>
</svg>
