<svg width="68" height="56" viewBox="0 0 68 56" fill="none" xmlns="http://www.w3.org/2000/svg">
<path d="M6.96289 8.66662L62.9999 8.66663C65.209 8.66663 66.9999 10.4575 66.9999 12.6666V43.5C66.9999 45.7091 65.209 47.5 62.9999 47.5H6.96289V8.66662Z" stroke="black" stroke-width="2"/>
<line x1="6.96289" y1="48.6666" x2="6.96289" y2="55" stroke="black" stroke-width="2" stroke-linecap="round"/>
<path d="M6.79004 7.66667V5C6.79004 2.79086 4.99918 1 2.79004 1L0.999919 1" stroke="black" stroke-width="2" stroke-linecap="round"/>
<rect x="10.5986" y="13.1667" width="2.30864" height="2.33333" stroke="black"/>
<rect x="10.5986" y="20.6667" width="2.30864" height="2.33333" stroke="black"/>
<rect x="17.2158" y="13.1667" width="4.79012" height="4.83334" stroke="black"/>
<rect x="17.2158" y="25.6667" width="4.79012" height="2.33333" stroke="black"/>
<rect x="17.2158" y="30.6669" width="4.79012" height="2.33333" stroke="black"/>
<rect x="17.2158" y="35.6669" width="4.79012" height="2.33333" stroke="black"/>
<rect x="17.2158" y="40.6667" width="4.79012" height="2.33333" stroke="black"/>
<path d="M30.2774 15.5834C30.2774 16.9216 29.2016 18.0001 27.8824 18.0001C26.5631 18.0001 25.4873 16.9216 25.4873 15.5834C25.4873 14.2452 26.5631 13.1667 27.8824 13.1667C29.2016 13.1667 30.2774 14.2452 30.2774 15.5834Z" stroke="black"/>
<path d="M30.2774 33.0835C30.2774 34.4217 29.2016 35.5002 27.8824 35.5002C26.5631 35.5002 25.4873 34.4217 25.4873 33.0835C25.4873 31.7453 26.5631 30.6669 27.8824 30.6669C29.2016 30.6669 30.2774 31.7453 30.2774 33.0835Z" stroke="black"/>
<path d="M30.2774 40.5834C30.2774 41.9216 29.2016 43.0001 27.8824 43.0001C26.5631 43.0001 25.4873 41.9216 25.4873 40.5834C25.4873 39.2452 26.5631 38.1667 27.8824 38.1667C29.2016 38.1667 30.2774 39.2452 30.2774 40.5834Z" stroke="black"/>
<path d="M28.2959 50.5001H27.7959V51.0001V53.8334H25.4873V48.1667H51.7836V53.8334H30.4503V51.0001V50.5001H29.9503H28.2959Z" stroke="black"/>
<path d="M59.2286 50.1667V50.6667H59.7286H61.7101V53.8334H58.9014H56.0928V48.1667H59.2286V50.1667Z" stroke="black"/>
<path d="M60.0551 28.0833C60.0551 35.8649 53.7946 42.1667 46.0798 42.1667C38.3649 42.1667 32.1045 35.8649 32.1045 28.0833C32.1045 20.3018 38.3649 14 46.0798 14C53.7946 14 60.0551 20.3018 60.0551 28.0833Z" stroke="black"/>
<path d="M56.7464 28.0833C56.7464 34.0238 51.9673 38.8333 46.0797 38.8333C40.1922 38.8333 35.4131 34.0238 35.4131 28.0833C35.4131 22.1427 40.1922 17.3333 46.0797 17.3333C51.9673 17.3333 56.7464 22.1427 56.7464 28.0833Z" stroke="black"/>
<path d="M50.9562 28.0833C50.9562 30.8022 48.7694 33 46.0797 33C43.3899 33 41.2031 30.8022 41.2031 28.0833C41.2031 25.3644 43.3899 23.1666 46.0797 23.1666C48.7694 23.1666 50.9562 25.3644 50.9562 28.0833Z" stroke="black"/>
<path d="M35.0879 28.1223L39.1883 30.0486C39.9238 30.3942 40.7643 30.4365 41.5304 30.1666M38.5952 36.3246L42.6956 34.3983C43.4311 34.0528 44.0036 33.4313 44.2908 32.6666M48.1741 38.5802L49.345 34.1775C49.5551 33.3877 49.4505 32.5465 49.0537 31.8332M55.194 34.0263L52.599 30.2925C52.1334 29.6227 51.4266 29.1627 50.6292 29.0106M56.55 24.9213L52.0429 24.524C51.2344 24.4527 50.4303 24.7026 49.802 25.2202M49.5741 17.6666L46.375 20.8897C45.8011 21.4678 45.4741 22.249 45.4639 23.0666M39.8761 19.4108L40.2704 23.9516C40.3411 24.7661 40.725 25.5205 41.34 26.054" stroke="black"/>
<path d="M63.4503 33.5V16.8333C63.4503 14.0719 61.2117 11.8333 58.4503 11.8333H57.6602" stroke="black"/>
</svg>
